<svg width="18" height="18" viewBox="0 0 18 18" fill="none" xmlns="http://www.w3.org/2000/svg">
<path d="M5.95662 1.80978C5.74679 2.0213 5.62891 2.30816 5.62891 2.60727C5.62891 2.90638 5.74679 3.19324 5.95662 3.40477L11.4966 8.98813L5.95662 14.5715C5.75917 14.7853 5.65168 15.0679 5.65678 15.3599C5.66188 15.6519 5.77917 15.9306 5.98397 16.1372C6.18877 16.3438 6.46511 16.4623 6.75485 16.4678C7.04459 16.4733 7.32514 16.3652 7.53747 16.1665L13.8696 9.78651C14.0794 9.57498 14.1973 9.28812 14.1973 8.98901C14.1973 8.6899 14.0794 8.40304 13.8696 8.19151L7.53921 1.80978C7.32933 1.5983 7.0447 1.47949 6.74792 1.47949C6.45113 1.47949 6.1665 1.5983 5.95662 1.80978Z" fill="white"/>
</svg>
