<svg width="190" height="71" viewBox="0 0 190 71" fill="none" xmlns="http://www.w3.org/2000/svg">
<g filter="url(#filter0_d_1301_5717)">
<rect x="8.09961" y="8.09998" width="173" height="54" rx="27" fill="#46C756"/>
<g clip-path="url(#clip0_1301_5717)">
<path d="M31.6122 34.9563C31.6116 36.9728 32.1426 38.9417 33.1523 40.6772L31.5156 46.6067L37.6311 45.0156C39.3226 45.9293 41.2178 46.408 43.1436 46.4081H43.1487C49.5063 46.4081 54.6816 41.2748 54.6843 34.9654C54.6856 31.908 53.4867 29.033 51.3085 26.87C49.1307 24.7072 46.2343 23.5155 43.1482 23.5141C36.7898 23.5141 31.6149 28.6471 31.6123 34.9563" fill="url(#paint0_linear_1301_5717)"/>
<path d="M31.1999 34.9526C31.1993 37.0417 31.7493 39.081 32.795 40.8786L31.0996 47.0206L37.4344 45.3725C39.1798 46.3168 41.145 46.8147 43.1447 46.8154H43.1499C49.7356 46.8154 55.0968 41.4975 55.0996 34.9621C55.1007 31.7949 53.8587 28.8165 51.6027 26.5761C49.3465 24.3359 46.3465 23.1013 43.1499 23.1C36.563 23.1 31.2025 28.4172 31.1999 34.9526ZM34.9725 40.569L34.736 40.1964C33.7417 38.6277 33.2169 36.8149 33.2176 34.9534C33.2197 29.5213 37.675 25.1018 43.1536 25.1018C45.8067 25.103 48.3001 26.1292 50.1755 27.9911C52.0508 29.8533 53.0827 32.3286 53.082 34.9614C53.0796 40.3935 48.6241 44.8135 43.1499 44.8135H43.1459C41.3635 44.8125 39.6153 44.3376 38.0907 43.44L37.7279 43.2265L33.9687 44.2044L34.9725 40.569Z" fill="url(#paint1_linear_1301_5717)"/>
<path d="M40.1634 29.9974C39.9397 29.5041 39.7043 29.4942 39.4916 29.4855C39.3174 29.4781 39.1183 29.4786 38.9194 29.4786C38.7202 29.4786 38.3967 29.553 38.1232 29.8493C37.8495 30.1458 37.0781 30.8625 37.0781 32.32C37.0781 33.7776 38.1481 35.1864 38.2973 35.3842C38.4466 35.5817 40.3628 38.6686 43.3977 39.8561C45.92 40.843 46.4332 40.6467 46.9807 40.5973C47.5282 40.5479 48.7473 39.8808 48.996 39.189C49.2449 38.4973 49.2449 37.9043 49.1703 37.7804C49.0957 37.657 48.8965 37.5828 48.5979 37.4347C48.2993 37.2866 46.8313 36.5698 46.5577 36.4709C46.2839 36.3721 46.0849 36.3228 45.8857 36.6195C45.6866 36.9157 45.1148 37.5828 44.9406 37.7804C44.7665 37.9785 44.5922 38.0031 44.2937 37.8549C43.9949 37.7063 43.0333 37.3938 41.8925 36.3846C41.0048 35.5993 40.4056 34.6295 40.2314 34.3329C40.0572 34.0367 40.2128 33.8761 40.3625 33.7285C40.4966 33.5958 40.6612 33.3826 40.8106 33.2096C40.9595 33.0366 41.0092 32.9132 41.1087 32.7156C41.2084 32.5178 41.1585 32.3448 41.084 32.1966C41.0092 32.0484 40.4289 30.5832 40.1634 29.9974Z" fill="white"/>
</g>
<path d="M75.6731 33.5101H73.34C73.2974 33.2083 73.2104 32.9402 73.079 32.7058C72.9476 32.4679 72.7789 32.2655 72.573 32.0986C72.367 31.9317 72.1291 31.8038 71.8592 31.715C71.5929 31.6263 71.3034 31.5819 70.9909 31.5819C70.4263 31.5819 69.9345 31.7221 69.5154 32.0027C69.0964 32.2797 68.7715 32.6845 68.5407 33.2172C68.3098 33.7463 68.1944 34.389 68.1944 35.1454C68.1944 35.9231 68.3098 36.5765 68.5407 37.1057C68.775 37.6348 69.1017 38.0343 69.5208 38.3042C69.9398 38.5741 70.4245 38.709 70.975 38.709C71.2839 38.709 71.5698 38.6682 71.8326 38.5865C72.0989 38.5048 72.335 38.3858 72.541 38.2296C72.747 38.0698 72.9174 37.8763 73.0524 37.649C73.1909 37.4217 73.2868 37.1625 73.34 36.8713L75.6731 36.8819C75.6127 37.3826 75.4618 37.8656 75.2203 38.3308C74.9824 38.7924 74.661 39.2062 74.2562 39.5719C73.8549 39.9341 73.3755 40.2218 72.818 40.4348C72.264 40.6444 71.6373 40.7491 70.9377 40.7491C69.9647 40.7491 69.0946 40.529 68.3276 40.0886C67.5641 39.6483 66.9604 39.0108 66.5165 38.1763C66.0762 37.3418 65.856 36.3315 65.856 35.1454C65.856 33.9558 66.0797 32.9437 66.5272 32.1092C66.9746 31.2747 67.5819 30.639 68.3489 30.2022C69.1159 29.7619 69.9789 29.5417 70.9377 29.5417C71.5698 29.5417 72.1557 29.6305 72.6955 29.8081C73.2388 29.9856 73.72 30.2449 74.139 30.5858C74.5581 30.9231 74.899 31.3368 75.1618 31.8269C75.4281 32.3169 75.5985 32.878 75.6731 33.5101ZM79.5836 35.8699V40.6H77.3144V29.6909H79.5197V33.8617H79.6156C79.8002 33.3787 80.0985 33.0005 80.5105 32.7271C80.9224 32.4501 81.4391 32.3116 82.0605 32.3116C82.6287 32.3116 83.1241 32.4359 83.5467 32.6845C83.9728 32.9295 84.3031 33.2829 84.5375 33.7445C84.7754 34.2026 84.8926 34.7513 84.889 35.3905V40.6H82.6198V35.7953C82.6234 35.291 82.4956 34.8986 82.2363 34.6181C81.9806 34.3375 81.622 34.1973 81.1603 34.1973C80.8514 34.1973 80.5779 34.263 80.34 34.3944C80.1056 34.5258 79.921 34.7175 79.786 34.9696C79.6546 35.2182 79.5872 35.5183 79.5836 35.8699ZM89.0379 40.7545C88.5159 40.7545 88.0507 40.6639 87.6423 40.4828C87.2339 40.2981 86.9108 40.0265 86.6728 39.6678C86.4385 39.3056 86.3213 38.8546 86.3213 38.3148C86.3213 37.8603 86.4047 37.4785 86.5716 37.1696C86.7385 36.8606 86.9658 36.612 87.2534 36.4238C87.5411 36.2356 87.8678 36.0936 88.2336 35.9977C88.6029 35.9018 88.99 35.8344 89.3948 35.7953C89.8706 35.7456 90.2542 35.6994 90.5454 35.6568C90.8365 35.6106 91.0478 35.5432 91.1792 35.4544C91.3106 35.3656 91.3763 35.2342 91.3763 35.0602V35.0282C91.3763 34.6909 91.2698 34.4299 91.0567 34.2452C90.8472 34.0606 90.5489 33.9682 90.1618 33.9682C89.7534 33.9682 89.4285 34.0588 89.187 34.2399C88.9456 34.4174 88.7858 34.6412 88.7076 34.9111L86.6089 34.7406C86.7155 34.2434 86.925 33.8138 87.2375 33.4515C87.55 33.0858 87.953 32.8052 88.4466 32.6099C88.9438 32.4111 89.5191 32.3116 90.1725 32.3116C90.627 32.3116 91.062 32.3649 91.4775 32.4714C91.8966 32.578 92.2677 32.7431 92.5908 32.9668C92.9175 33.1905 93.175 33.4782 93.3632 33.8297C93.5514 34.1777 93.6455 34.595 93.6455 35.0815V40.6H91.4935V39.4654H91.4296C91.2982 39.7211 91.1224 39.9466 90.9022 40.1419C90.6821 40.3336 90.4175 40.4846 90.1086 40.5946C89.7996 40.7012 89.4427 40.7545 89.0379 40.7545ZM89.6878 39.1884C90.0216 39.1884 90.3163 39.1227 90.572 38.9913C90.8277 38.8564 91.0283 38.6753 91.1739 38.448C91.3195 38.2207 91.3923 37.9633 91.3923 37.6756V36.8074C91.3213 36.8535 91.2236 36.8961 91.0993 36.9352C90.9786 36.9707 90.8419 37.0044 90.6892 37.0364C90.5365 37.0648 90.3838 37.0915 90.2311 37.1163C90.0784 37.1376 89.9399 37.1571 89.8156 37.1749C89.5493 37.214 89.3167 37.2761 89.1178 37.3613C88.9189 37.4466 88.7645 37.562 88.6544 37.7076C88.5443 37.8496 88.4892 38.0272 88.4892 38.2402C88.4892 38.5492 88.6011 38.7853 88.8248 38.9487C89.0521 39.1085 89.3397 39.1884 89.6878 39.1884ZM99.7879 32.4182V34.1227H94.8607V32.4182H99.7879ZM95.9793 30.4579H98.2485V38.0858C98.2485 38.2953 98.2804 38.4586 98.3444 38.5758C98.4083 38.6895 98.497 38.7694 98.6107 38.8155C98.7279 38.8617 98.8628 38.8848 99.0155 38.8848C99.122 38.8848 99.2286 38.8759 99.3351 38.8581C99.4417 38.8368 99.5233 38.8209 99.5801 38.8102L99.937 40.4988C99.8234 40.5343 99.6636 40.5751 99.4576 40.6213C99.2517 40.671 99.0013 40.7012 98.7066 40.7118C98.1597 40.7331 97.6803 40.6603 97.2684 40.4934C96.86 40.3265 96.5421 40.0673 96.3149 39.7157C96.0876 39.3642 95.9757 38.9203 95.9793 38.3841V30.4579ZM106.412 40.6L104.185 32.4182H106.481L107.749 37.9153H107.823L109.144 32.4182H111.398L112.74 37.8834H112.809L114.056 32.4182H116.346L114.125 40.6H111.722L110.316 35.4544H110.215L108.809 40.6H106.412ZM117.587 40.6V32.4182H119.856V40.6H117.587ZM118.726 31.3635C118.389 31.3635 118.1 31.2516 117.858 31.0279C117.62 30.8006 117.501 30.529 117.501 30.2129C117.501 29.9004 117.62 29.6323 117.858 29.4086C118.1 29.1813 118.389 29.0677 118.726 29.0677C119.064 29.0677 119.351 29.1813 119.589 29.4086C119.831 29.6323 119.952 29.9004 119.952 30.2129C119.952 30.529 119.831 30.8006 119.589 31.0279C119.351 31.2516 119.064 31.3635 118.726 31.3635ZM126.055 32.4182V34.1227H121.128V32.4182H126.055ZM122.247 30.4579H124.516V38.0858C124.516 38.2953 124.548 38.4586 124.612 38.5758C124.676 38.6895 124.765 38.7694 124.878 38.8155C124.995 38.8617 125.13 38.8848 125.283 38.8848C125.39 38.8848 125.496 38.8759 125.603 38.8581C125.709 38.8368 125.791 38.8209 125.848 38.8102L126.204 40.4988C126.091 40.5343 125.931 40.5751 125.725 40.6213C125.519 40.671 125.269 40.7012 124.974 40.7118C124.427 40.7331 123.948 40.6603 123.536 40.4934C123.127 40.3265 122.81 40.0673 122.582 39.7157C122.355 39.3642 122.243 38.9203 122.247 38.3841V30.4579ZM130.008 35.8699V40.6H127.739V29.6909H129.945V33.8617H130.04C130.225 33.3787 130.523 33.0005 130.935 32.7271C131.347 32.4501 131.864 32.3116 132.485 32.3116C133.054 32.3116 133.549 32.4359 133.972 32.6845C134.398 32.9295 134.728 33.2829 134.962 33.7445C135.2 34.2026 135.317 34.7513 135.314 35.3905V40.6H133.045V35.7953C133.048 35.291 132.92 34.8986 132.661 34.6181C132.405 34.3375 132.047 34.1973 131.585 34.1973C131.276 34.1973 131.003 34.263 130.765 34.3944C130.53 34.5258 130.346 34.7175 130.211 34.9696C130.079 35.2182 130.012 35.5183 130.008 35.8699ZM145.878 37.1163V32.4182H148.147V40.6H145.969V39.1138H145.883C145.699 39.5932 145.392 39.9785 144.962 40.2697C144.536 40.5609 144.016 40.7065 143.401 40.7065C142.854 40.7065 142.373 40.5822 141.958 40.3336C141.542 40.0851 141.217 39.7317 140.983 39.2736C140.752 38.8155 140.635 38.2669 140.631 37.6277V32.4182H142.901V37.2228C142.904 37.7058 143.034 38.0875 143.289 38.3681C143.545 38.6486 143.888 38.7889 144.317 38.7889C144.591 38.7889 144.847 38.7268 145.084 38.6025C145.322 38.4746 145.514 38.2864 145.66 38.0378C145.809 37.7893 145.882 37.4821 145.878 37.1163ZM156.8 34.7513L154.722 34.8791C154.687 34.7015 154.611 34.5417 154.493 34.3997C154.376 34.2541 154.222 34.1387 154.03 34.0535C153.842 33.9647 153.616 33.9203 153.354 33.9203C153.002 33.9203 152.705 33.9949 152.464 34.144C152.222 34.2896 152.102 34.4849 152.102 34.7299C152.102 34.9253 152.18 35.0904 152.336 35.2253C152.492 35.3603 152.76 35.4686 153.14 35.5503L154.621 35.8486C155.417 36.0119 156.01 36.2747 156.4 36.6369C156.791 36.9991 156.986 37.475 156.986 38.0645C156.986 38.6007 156.828 39.0712 156.512 39.476C156.2 39.8809 155.77 40.1969 155.223 40.4242C154.68 40.6479 154.053 40.7598 153.343 40.7598C152.26 40.7598 151.397 40.5343 150.754 40.0833C150.115 39.6287 149.74 39.0108 149.63 38.2296L151.862 38.1124C151.93 38.4427 152.093 38.6948 152.352 38.8688C152.611 39.0393 152.943 39.1245 153.348 39.1245C153.746 39.1245 154.066 39.0481 154.307 38.8954C154.552 38.7392 154.676 38.5385 154.68 38.2935C154.676 38.0875 154.589 37.9189 154.419 37.7875C154.248 37.6525 153.986 37.5495 153.631 37.4785L152.214 37.1962C151.415 37.0364 150.82 36.7594 150.429 36.3652C150.042 35.9711 149.849 35.4686 149.849 34.8578C149.849 34.3322 149.991 33.8794 150.275 33.4995C150.562 33.1195 150.965 32.8265 151.484 32.6206C152.006 32.4146 152.617 32.3116 153.316 32.3116C154.35 32.3116 155.163 32.53 155.756 32.9668C156.352 33.4036 156.7 33.9984 156.8 34.7513Z" fill="white"/>
</g>
<defs>
<filter id="filter0_d_1301_5717" x="-0.000391006" y="-2.47955e-05" width="189.2" height="70.2" filterUnits="userSpaceOnUse" color-interpolation-filters="sRGB">
<feFlood flood-opacity="0" result="BackgroundImageFix"/>
<feColorMatrix in="SourceAlpha" type="matrix" values="0 0 0 0 0 0 0 0 0 0 0 0 0 0 0 0 0 0 127 0" result="hardAlpha"/>
<feOffset/>
<feGaussianBlur stdDeviation="4.05"/>
<feComposite in2="hardAlpha" operator="out"/>
<feColorMatrix type="matrix" values="0 0 0 0 1 0 0 0 0 1 0 0 0 0 1 0 0 0 0.27 0"/>
<feBlend mode="normal" in2="BackgroundImageFix" result="effect1_dropShadow_1301_5717"/>
<feBlend mode="normal" in="SourceGraphic" in2="effect1_dropShadow_1301_5717" result="shape"/>
</filter>
<linearGradient id="paint0_linear_1301_5717" x1="43.1" y1="46.6067" x2="43.1" y2="23.5141" gradientUnits="userSpaceOnUse">
<stop stop-color="#1FAF38"/>
<stop offset="1" stop-color="#60D669"/>
</linearGradient>
<linearGradient id="paint1_linear_1301_5717" x1="43.0996" y1="47.0206" x2="43.0996" y2="23.1" gradientUnits="userSpaceOnUse">
<stop stop-color="#F9F9F9"/>
<stop offset="1" stop-color="white"/>
</linearGradient>
<clipPath id="clip0_1301_5717">
<rect width="24" height="24" fill="white" transform="translate(31.0996 23.1)"/>
</clipPath>
</defs>
</svg>
