<svg width="221" height="202" viewBox="0 0 221 202" fill="none" xmlns="http://www.w3.org/2000/svg">
<path opacity="0.3" d="M182.919 200.439C185.735 200.699 188.795 200.336 191.721 200.182C199.708 199.759 207.442 198.917 215.292 197.157C219.178 196.286 223.089 193.834 219.716 189.401C217.345 186.281 213.633 185.086 210.271 183.635C206.384 181.96 202.763 180.499 199.23 178.03C197.155 176.578 194.852 174.942 193.019 173.174C190.258 170.515 188.175 168.035 184.595 166.555C179.303 164.371 173.07 164.393 167.491 163.877C160.738 163.253 153.99 163.303 147.219 163.29C139.494 163.276 131.775 163.042 124.071 162.989C122.22 162.978 120.372 162.675 118.51 162.721C111.612 162.889 104.677 163.128 97.7775 162.795C88.6238 162.351 79.1694 161.606 70.0388 163.016C62.9546 164.11 56.8574 168.395 50.3977 171.326C38.1183 176.899 21.7047 180.227 14.4435 182.067C7.18239 183.908 -0.392759 185.28 0.0158244 190.058C0.0825071 199.018 49.264 199.77 58.105 200.447C60.0024 200.593 61.9374 200.442 63.8348 200.425C66.9301 200.398 70.0364 200.749 73.1353 200.733C79.2374 200.699 85.3648 201.343 91.4633 201.171C97.552 200.999 103.766 200.582 109.856 200.85C120.147 201.306 130.596 201.846 140.904 201.668C151.016 201.491 182.242 200.377 182.919 200.439Z" fill="#9FCDCE"/>
<path d="M163.418 65.4772C190.628 56.9164 182.46 20.0978 176.42 9.32185C170.38 -1.45408 160.312 4.59223 160.312 4.59223C150.877 -1.33405 135.575 -3.84859 117.109 11.7164C98.6413 27.2813 100.713 38.6562 102.784 41.1708C104.854 43.6853 108.996 41.7091 108.996 41.7091C108.938 59.1302 125.277 57.993 125.277 57.993L163.418 65.4772Z" fill="#915C37"/>
<path d="M28.539 170.311L28.5499 170.28C31.0802 169.972 82.2768 163.757 91.8197 163.543C101.605 163.322 144.465 155.795 152.82 160.536C161.175 165.277 165.31 182.838 165.31 182.838C165.31 182.838 148.188 186.004 102.938 181.985C102.938 181.985 59.2943 190.664 29.4871 182.194L29.4884 182.16C29.4884 182.16 27.6831 179.294 28.539 170.311Z" fill="#477F7F"/>
<path d="M10.9009 147.356C12.5813 145.474 23.7476 160.372 28.4518 170.292C28.4518 170.292 28.4857 170.288 28.55 170.28L28.5391 170.311C27.6831 179.294 29.4884 182.16 29.4884 182.16L29.4872 182.194C29.4799 182.192 29.4726 182.191 29.4654 182.188C29.4654 182.188 20.331 184.165 15.5178 183.583C15.5178 183.583 12.5486 175.556 11.0027 166.249C9.45447 156.942 9.22171 149.236 10.9009 147.356Z" fill="#D69A63"/>
<path d="M63.9148 180.177C69.5586 180.177 74.7356 179.913 79.6495 179.378C80.8377 179.248 82.0549 179.063 83.231 178.885C85.2569 178.576 87.3519 178.257 89.3985 178.207C92.3192 178.135 95.2969 178.158 98.1752 178.182C101.144 178.205 104.214 178.229 107.234 178.149C111.607 178.034 116.046 177.797 120.338 177.569C126.067 177.265 131.989 176.951 137.827 176.919C139.765 176.91 141.696 176.73 143.563 176.557C144.378 176.482 145.222 176.403 146.056 176.34C149.643 176.067 153.342 175.829 156.919 175.6L157.109 175.588C157.337 175.574 157.568 175.56 157.8 175.548C158.729 175.497 159.689 175.445 160.588 175.256C161.763 175.007 162.109 174.806 162.277 174.71C162.372 174.655 162.372 174.655 162.666 174.76L162.734 174.784C162.8 174.807 162.873 174.773 162.897 174.707C162.922 174.64 162.887 174.566 162.82 174.543L162.752 174.519C162.393 174.39 162.347 174.375 162.148 174.49C161.993 174.579 161.67 174.766 160.534 175.006C159.655 175.192 158.705 175.244 157.786 175.294C157.552 175.307 157.32 175.319 157.092 175.334L156.902 175.346C153.324 175.575 149.625 175.812 146.036 176.085C145.2 176.148 144.356 176.227 143.54 176.302C141.678 176.474 139.752 176.654 137.826 176.664C131.982 176.695 126.056 177.01 120.325 177.315C116.034 177.543 111.598 177.778 107.228 177.893C104.213 177.973 101.144 177.949 98.1776 177.926C95.2969 177.903 92.318 177.88 89.3924 177.951C87.3301 178.001 85.2266 178.321 83.1934 178.631C82.0198 178.81 80.8061 178.995 79.6228 179.124C73.6771 179.772 67.3435 180.022 60.2618 179.886C57.7909 179.84 55.28 179.777 52.8515 179.716C50.4764 179.657 48.0189 179.596 45.6049 179.55C44.1622 179.522 42.7 179.395 41.2851 179.27C39.8678 179.145 38.4032 179.017 36.9532 178.989C34.9321 178.951 32.7133 178.738 30.36 178.355C30.2909 178.344 30.2097 178.332 30.12 178.319C29.6459 178.251 28.8518 178.135 28.6299 177.905C28.5802 177.854 28.5002 177.853 28.4493 177.901C28.3984 177.95 28.3972 178.031 28.4456 178.082C28.7063 178.354 29.3695 178.469 30.0836 178.572C30.1721 178.584 30.2522 178.596 30.3201 178.607C32.6855 178.991 34.9163 179.206 36.9495 179.244C38.3898 179.271 39.8508 179.399 41.2645 179.524C42.683 179.649 44.1489 179.777 45.6013 179.805C48.0152 179.851 50.4715 179.912 52.8466 179.971C55.2763 180.032 57.7872 180.093 60.2594 180.141C61.4972 180.166 62.7169 180.177 63.9148 180.177Z" fill="black"/>
<path d="M10.901 147.356C11.9 146.238 16.249 151.046 20.6015 157.215C18.8484 161.7 13.9296 164.499 13.9296 164.499C14.2073 172.493 17.6566 181.515 18.5259 183.672C17.4323 183.71 16.4017 183.689 15.5167 183.582C15.5167 183.582 12.5475 175.556 11.0017 166.249C9.45462 156.942 9.22183 149.236 10.901 147.356Z" fill="#EAE2DA"/>
<path d="M149.999 67.5808L152.894 76.1841C152.894 76.1841 137.072 75.8507 130.078 82.679C123.083 89.5073 112.507 113.573 111.176 120.483C109.844 127.394 116.422 131.641 121.752 128.312C127.082 124.98 140.209 106.776 140.209 106.776C146.294 120.766 145.203 139.305 145.203 139.305C145.203 139.305 127.847 128.058 115.234 120.287C102.623 112.514 97.5668 126.779 93.9587 134.479C90.3517 142.179 71.8915 177.467 71.8915 177.467C66.1241 179.071 45.7107 189.527 47.2201 192.548C48.7296 195.569 59.8208 195.926 71.2114 194.956C82.6032 193.986 88.5368 191.954 88.5368 191.954C90.4039 185.604 88.0445 177.467 88.0445 177.467C110.309 159.231 109.417 142.274 109.417 142.274C146.288 189.273 165.084 189.494 179.487 175.643C193.891 161.793 193.877 117.064 188.837 94.4746C183.797 71.8849 167.98 76.4193 167.98 76.4193L163.601 63.9933C157.071 59.3571 149.999 67.5808 149.999 67.5808Z" fill="#E88A4B"/>
<path d="M71.8915 177.466C80.0547 180.452 88.0445 177.466 88.0445 177.466C88.0445 177.466 90.4039 185.604 88.5368 191.953C88.5368 191.953 82.6032 193.986 71.2114 194.955C59.8196 195.925 48.7296 195.568 47.2201 192.547C45.7107 189.526 66.1241 179.069 71.8915 177.466Z" fill="#D69A63"/>
<path d="M56.1905 184.838C59.7138 186.777 60.7141 191.29 60.7141 191.29C70.103 193.085 85.7613 189.547 89.1427 188.735C89.0348 189.826 88.8433 190.913 88.5365 191.952C88.5365 191.952 82.603 193.986 71.2112 194.954C59.8193 195.924 48.7294 195.568 47.2199 192.546C46.4949 191.093 50.8414 187.919 56.1905 184.838Z" fill="#F4EFEA"/>
<path opacity="0.5" d="M153.735 74.9705C153.285 74.945 152.845 74.8832 152.416 74.7874L149.996 67.599C149.996 67.599 157.068 59.3752 163.598 64.0103L164.069 65.3451C162.919 71.0787 158.619 75.2396 153.735 74.9705Z" fill="#E88A4B"/>
<path d="M122.729 93.3321C125.267 88.7747 127.857 84.8525 130.083 82.6786C133.983 78.8704 140.629 77.2907 145.744 76.6372C146.916 76.4868 148.009 76.3862 148.969 76.3183C149.091 79.5409 150.014 88.1781 156.429 86.9706C164.043 85.5375 167.747 76.9366 167.975 76.391L167.984 76.4189C167.984 76.4189 169.365 76.0237 171.44 76.0479C176.389 76.1074 185.29 78.5564 188.841 94.473C193.306 114.48 193.826 151.853 183.88 169.759C180.267 166.302 163.501 150.615 145.224 139.266L145.21 139.246C145.27 138.12 146.104 120.316 140.214 106.774C140.214 106.774 139.979 107.1 139.563 107.668C139.033 108.39 138.207 109.508 137.185 110.861C135.827 109.004 130.209 101.867 120.766 96.9972C121.412 95.746 122.069 94.5179 122.729 93.3321Z" fill="#EFE8DC"/>
<path d="M123.476 15.1832C110.868 27.1242 114.28 40.9203 122.586 58.6458C130.894 76.3725 152.551 74.2956 163.676 64.7272C174.801 55.1589 178.955 35.1334 170.647 17.3328C162.341 -0.46667 136.085 3.24213 123.476 15.1832Z" fill="#FFA05F"/>
<path d="M149.519 36.6913C149.646 36.6913 149.772 36.6853 149.897 36.6707C149.967 36.6623 150.018 36.5992 150.01 36.5289C150.001 36.4586 149.937 36.4077 149.868 36.4161C149.378 36.4707 148.83 36.3907 148.299 36.3131C148.143 36.29 147.99 36.2682 147.841 36.2488C143.358 35.6887 141.157 33.5512 140.418 32.6577C140.373 32.6031 140.292 32.5958 140.238 32.6407C140.183 32.6855 140.176 32.7668 140.221 32.8213C140.979 33.7379 143.236 35.9324 147.809 36.5046C147.956 36.5228 148.107 36.5459 148.261 36.5677C148.679 36.6283 149.107 36.6913 149.519 36.6913Z" fill="black"/>
<path d="M119.926 42.7599C119.937 42.7599 119.947 42.7587 119.958 42.7563C122.801 42.0312 125.344 39.5579 126.286 36.602C126.308 36.5341 126.271 36.4626 126.203 36.4408C126.135 36.419 126.063 36.4565 126.041 36.5244C125.125 39.3991 122.654 41.8045 119.893 42.5077C119.824 42.5247 119.783 42.595 119.801 42.6629C119.817 42.7211 119.869 42.7599 119.926 42.7599Z" fill="black"/>
<path opacity="0.5" d="M132.287 46.7084C132.487 48.5028 133.139 50.2366 133.415 52.0261C133.599 53.2191 133.687 54.3697 133.432 55.5591C133.182 56.7303 132.216 58.4313 133.146 59.5467C133.779 60.3069 134.895 60.5275 135.804 60.7409C136.445 60.8913 137.418 61.0416 138.059 60.8076C139.079 60.4366 139.035 59.0375 139.17 58.1658C139.224 57.8057 139.236 57.4541 139.236 57.0891C139.236 53.3986 138.162 49.5346 136.073 46.472C135.908 46.2284 135.752 45.9968 135.569 45.7652C135.421 45.5761 135.28 45.3857 135.115 45.2099C134.578 44.6449 133.415 43.4362 132.624 44.183C132.134 44.6474 132.219 46.0877 132.287 46.7084Z" fill="#E88A4B"/>
<path d="M155.84 49.0664C159.876 49.0664 163.148 52.3387 163.148 56.3749C163.148 60.411 159.876 63.6833 155.84 63.6833C151.804 63.6833 148.531 60.411 148.531 56.3749C148.53 52.3387 151.802 49.0664 155.84 49.0664Z" fill="#F48656"/>
<path d="M122.583 58.665C122.401 58.2783 122.223 57.8939 122.047 57.5108C123.178 56.7931 124.519 56.376 125.957 56.376C129.993 56.376 133.265 59.6483 133.265 63.6844C133.265 65.6085 132.521 67.3568 131.306 68.6626C127.779 66.513 124.732 63.254 122.583 58.665Z" fill="#F48656"/>
<path d="M164.552 48.808C164.557 48.808 164.562 48.808 164.567 48.8068C164.637 48.7983 164.688 48.7353 164.68 48.665C164.33 45.5394 165.031 42.4404 166.653 39.938C166.722 39.8301 166.796 39.7137 166.872 39.5937C167.083 39.2591 167.32 38.8784 167.575 38.5534C167.618 38.4977 167.609 38.4164 167.553 38.374C167.497 38.3303 167.417 38.34 167.374 38.3958C167.112 38.7316 166.869 39.1172 166.656 39.4567C166.581 39.5767 166.508 39.6919 166.439 39.7986C164.785 42.3507 164.07 45.5102 164.425 48.694C164.432 48.7595 164.487 48.808 164.552 48.808Z" fill="black"/>
<path d="M183.878 169.76C183.063 171.468 181.145 174.05 179.49 175.642C165.087 189.493 146.291 189.272 109.42 142.273C109.42 142.273 110.312 159.23 88.0475 177.466C88.0475 177.466 80.0577 180.452 71.8945 177.466C71.8945 177.466 90.3547 142.179 93.9617 134.479C97.2061 127.553 101.622 115.319 111.652 118.58L124.473 126.052C134.949 132.658 145.206 139.304 145.206 139.304C145.206 139.304 145.21 139.231 145.216 139.093C145.213 139.16 145.21 139.212 145.209 139.247L145.223 139.266C163.5 150.617 180.265 166.303 183.878 169.76Z" fill="#53898C"/>
<path d="M170.181 182.143C170.22 182.143 170.259 182.125 170.283 182.092C170.325 182.035 170.314 181.955 170.257 181.913C170.226 181.89 167.163 179.584 166.104 178.673C164.439 177.24 162.665 175.861 160.95 174.529C159.562 173.45 158.126 172.335 156.757 171.197C155.175 169.883 153.507 168.611 151.893 167.382C150.958 166.67 149.993 165.933 149.056 165.198C146.42 163.13 143.798 160.956 141.261 158.854C139.016 156.993 136.694 155.067 134.373 153.223C131.845 151.216 129.236 149.231 126.714 147.312C125.191 146.154 123.616 144.956 122.077 143.766C120.54 142.577 119.027 141.307 117.564 140.078C115.648 138.469 113.668 136.807 111.609 135.307C111.166 134.984 110.71 134.666 110.267 134.358C109.827 134.051 109.373 133.735 108.931 133.412C108.914 133.4 108.877 133.365 108.827 133.32C108.412 132.943 108.215 132.798 108.07 132.874C107.938 132.942 107.885 133.185 107.81 133.739C107.798 133.831 107.784 133.925 107.776 133.956C107.59 134.684 107.333 135.498 107.048 136.246L106.778 136.956C105.625 139.993 104.433 143.135 102.938 146.08L102.779 146.391C100.22 151.436 97.5733 156.653 94.7799 161.705C93.8876 163.32 92.8049 164.854 91.7586 166.337C90.9329 167.506 90.0806 168.716 89.3253 169.957C87.914 172.276 83.2171 178.055 82.5503 178.53C82.4921 178.571 82.4788 178.651 82.52 178.708C82.5612 178.765 82.6412 178.779 82.6982 178.739C83.4111 178.231 88.0959 172.47 89.5435 170.09C90.294 168.856 91.1451 167.651 91.9671 166.485C93.0171 164.996 94.1034 163.456 95.003 161.829C97.7988 156.774 100.447 151.555 103.007 146.508L103.165 146.196C104.666 143.239 105.86 140.092 107.016 137.047L107.286 136.337C107.573 135.579 107.835 134.757 108.022 134.02C108.033 133.979 108.044 133.904 108.061 133.774C108.083 133.613 108.131 133.26 108.183 133.129C108.304 133.195 108.561 133.428 108.652 133.512C108.721 133.575 108.755 133.605 108.778 133.622C109.222 133.946 109.678 134.264 110.119 134.572C110.559 134.878 111.015 135.196 111.457 135.518C113.508 137.012 115.484 138.673 117.397 140.278C118.862 141.509 120.378 142.781 121.92 143.974C123.46 145.164 125.034 146.362 126.557 147.52C129.079 149.438 131.686 151.422 134.212 153.428C136.532 155.27 138.852 157.194 141.097 159.055C143.634 161.159 146.259 163.335 148.897 165.404C149.836 166.14 150.802 166.878 151.737 167.59C153.348 168.819 155.014 170.089 156.592 171.4C157.965 172.539 159.402 173.656 160.791 174.736C162.504 176.068 164.275 177.444 165.935 178.873C167.001 179.788 170.071 182.099 170.101 182.122C170.128 182.135 170.154 182.143 170.181 182.143Z" fill="black"/>
<path d="M177.004 177.978C177.04 177.978 177.077 177.962 177.102 177.933C177.148 177.879 177.141 177.798 177.088 177.752C176.337 177.113 175.758 176.171 175.244 175.247C173.568 172.243 172.906 169.017 173.33 165.915L173.338 165.866C173.532 164.447 173.797 162.505 174.871 161.594C174.926 161.548 174.932 161.468 174.886 161.414C174.84 161.359 174.76 161.353 174.705 161.399C173.556 162.373 173.282 164.372 173.083 165.832L173.076 165.881C172.645 169.037 173.317 172.319 175.019 175.372C175.546 176.317 176.141 177.282 176.922 177.947C176.946 177.968 176.975 177.978 177.004 177.978Z" fill="black"/>
<path d="M105.497 115.037C103.785 115.731 100.166 121.471 101.951 123.842C103.736 126.213 114.82 130.415 117.705 126.439C120.149 123.072 119.252 117.998 117.276 116.799C113.766 114.67 108.337 113.884 105.497 115.037Z" fill="#FFA05F"/>
<path d="M104.491 125.772C104.546 125.772 104.599 125.736 104.614 125.679C105.511 122.469 106.349 120.009 107.333 117.7L107.403 117.534C107.83 116.529 108.27 115.49 108.861 114.615C108.901 114.557 108.886 114.477 108.827 114.437C108.769 114.397 108.689 114.413 108.649 114.471C108.044 115.366 107.598 116.417 107.168 117.433L107.097 117.599C106.11 119.919 105.269 122.389 104.368 125.608C104.349 125.676 104.389 125.748 104.457 125.766C104.468 125.771 104.479 125.772 104.491 125.772Z" fill="black"/>
<path d="M108.527 127.399C108.589 127.399 108.644 127.354 108.653 127.291C109.047 124.87 110.032 122.398 111.007 120.072C111.176 119.669 111.343 119.243 111.503 118.832C111.991 117.582 112.497 116.29 113.228 115.208C113.268 115.15 113.252 115.07 113.194 115.03C113.136 114.99 113.056 115.006 113.016 115.064C112.269 116.168 111.758 117.474 111.264 118.738C111.104 119.147 110.938 119.57 110.769 119.972C109.788 122.312 108.798 124.8 108.4 127.249C108.389 127.319 108.436 127.384 108.505 127.395C108.513 127.398 108.52 127.399 108.527 127.399Z" fill="black"/>
<path d="M113.237 128.206C113.304 128.206 113.359 128.155 113.364 128.087C113.404 127.55 113.543 127.005 113.675 126.479C113.74 126.22 113.808 125.951 113.864 125.685C114.26 123.786 114.976 121.941 115.668 120.158C115.727 120.005 115.807 119.794 115.901 119.549C116.233 118.674 116.925 116.853 117.08 116.682C117.128 116.629 117.124 116.548 117.072 116.501C117.02 116.454 116.939 116.457 116.891 116.509C116.717 116.701 116.232 117.958 115.662 119.458C115.57 119.702 115.49 119.913 115.43 120.065C114.734 121.859 114.015 123.714 113.614 125.633C113.56 125.894 113.492 126.159 113.427 126.416C113.292 126.953 113.151 127.508 113.11 128.069C113.105 128.139 113.157 128.201 113.229 128.206C113.231 128.206 113.235 128.206 113.237 128.206Z" fill="black"/>
<path d="M145.572 54.7516C142.201 53.3852 140.747 48.8169 142.324 44.5492C143.9 40.2815 147.909 37.9294 151.28 39.2958C154.649 40.6622 156.104 45.2305 154.528 49.4982C152.952 53.7659 148.942 56.118 145.572 54.7516Z" fill="white"/>
<path d="M129.201 57.3221C126.763 58.3066 123.616 55.929 122.17 52.0129C120.726 48.0969 121.531 44.1238 123.97 43.1393C126.408 42.1548 129.555 44.5324 131 48.4485C132.444 52.3645 131.639 56.3376 129.201 57.3221Z" fill="white"/>
<path d="M145.576 54.7508C143.437 53.8839 142.072 51.727 141.762 49.1773C142.329 46.9538 144.047 45.3194 146.115 45.2697C148.704 45.2079 150.863 47.646 150.937 50.7171C150.975 52.3005 150.451 53.7421 149.579 54.7762C148.268 55.2503 146.874 55.277 145.576 54.7508Z" fill="#563925"/>
<path d="M125.906 48.1313C127.955 47.2656 130.375 48.9096 131.314 51.8013C131.488 52.342 131.6 52.8876 131.651 53.4234C131.412 55.299 130.562 56.7733 129.204 57.3213C127.543 57.9918 125.553 57.1019 123.997 55.2275C123.962 55.1317 123.926 55.0335 123.895 54.9341C122.957 52.0425 123.857 48.9957 125.906 48.1313Z" fill="#563925"/>
<path d="M137.182 64.7165C137.207 64.7165 137.232 64.7092 137.254 64.6934C139.491 63.1513 142.057 62.5802 144.479 63.087C144.585 63.1088 144.696 63.1306 144.814 63.1525C145.38 63.2604 146.084 63.3949 146.503 63.7102C146.56 63.7526 146.64 63.7417 146.682 63.6847C146.724 63.6289 146.714 63.5477 146.657 63.5053C146.191 63.1549 145.454 63.013 144.862 62.9003C144.747 62.8785 144.635 62.8566 144.532 62.836C142.041 62.3147 139.405 62.9003 137.11 64.4825C137.052 64.5225 137.037 64.6025 137.077 64.6607C137.1 64.6971 137.14 64.7165 137.182 64.7165Z" fill="black"/>
<path d="M169.318 36.4681C163.385 35.7516 161.198 43.2613 161.198 43.2613C152.82 37.0756 157.879 25.0908 157.879 25.0908C157.879 25.0908 151.074 31.5469 145.179 29.441C138.836 27.1762 145.179 16.2887 145.179 16.2887C130.371 38.4759 128.938 18.9754 128.938 18.9754C125.754 31.7046 118.152 34.755 115.027 35.4788C114.457 27.8952 116.695 21.1165 123.34 14.8459C136.076 2.8285 162.598 -0.9033 170.988 17.0101C179.379 34.9247 175.184 55.0787 163.946 64.7077C163.78 64.8495 163.612 64.9901 163.441 65.1296C166.64 60.5103 166.664 55.7843 166.664 55.7843C176.188 51.0232 175.249 37.1847 169.318 36.4681Z" fill="#915C37"/>
<path d="M91.2213 127.299C92.2119 126.508 94.8428 126.265 97.9054 126.29C98.2667 126.294 98.6328 126.3 99.0026 126.31C104.886 126.468 111.779 127.455 111.779 127.455C111.779 127.455 112.14 127.359 112.797 127.192C114.473 126.764 118.08 125.866 122.588 124.868C123.806 124.598 125.091 124.321 126.421 124.045C130.255 123.247 134.466 122.452 138.564 121.835C140.47 121.547 142.35 121.3 144.158 121.108C146.64 120.845 148.983 120.689 151.06 120.685C153.95 120.68 156.324 120.97 157.839 121.682C157.839 121.682 165.813 92.4638 175.596 76.6709C180.383 78.0858 186.147 82.4141 188.838 94.4752C189.081 95.5688 189.314 96.7145 189.534 97.9063C184.241 111.14 176.184 128.625 168.502 134.77C158.524 142.751 131.072 139.365 118.952 137.38C117.208 137.094 115.781 136.838 114.77 136.649C113.678 136.444 113.068 136.318 113.068 136.318C113.068 136.318 94.8938 146.942 90.0441 143.38C89.9726 143.328 89.9034 143.272 89.838 143.214C89.7858 143.168 89.7361 143.12 89.6864 143.072C85.3921 138.953 88.2946 129.634 91.2213 127.299Z" fill="#E88A4B"/>
<path d="M175.598 76.6689C180.386 78.0838 186.149 82.4121 188.84 94.4732C189.084 95.5668 189.316 96.7126 189.536 97.9044C187.967 101.828 186.154 106.125 184.182 110.389C180.513 107.115 172.969 101.209 164.949 99.8018C167.918 91.7878 171.608 83.1117 175.598 76.6689Z" fill="#F4F0EA"/>
<path d="M88.3274 140.892C88.348 140.892 88.3673 140.887 88.3867 140.878C89.2354 140.431 90.2163 140.15 91.1644 139.879L91.4954 139.784C93.1697 139.298 95.1217 138.761 97.1089 138.557C97.1792 138.55 97.2301 138.487 97.2228 138.416C97.2155 138.346 97.1525 138.295 97.0822 138.302C95.0745 138.51 93.1091 139.049 91.4238 139.539L91.0941 139.634C90.1326 139.909 89.1397 140.194 88.2679 140.652C88.2049 140.685 88.1806 140.762 88.2146 140.826C88.2364 140.867 88.2813 140.892 88.3274 140.892Z" fill="black"/>
<path d="M87.5209 136.96C87.5488 136.96 87.5767 136.952 87.5997 136.934C88.1417 136.508 88.9031 136.284 89.6378 136.067C89.9967 135.961 90.3677 135.851 90.6999 135.721C92.1572 135.149 93.6946 134.762 95.1471 134.606C95.3689 134.581 95.5884 134.546 95.8006 134.511C96.2807 134.432 96.7329 134.358 97.2069 134.415C97.2772 134.423 97.3403 134.373 97.3488 134.304C97.3573 134.234 97.3064 134.169 97.2373 134.162C96.7268 134.101 96.2346 134.181 95.7593 134.259C95.5508 134.293 95.335 134.328 95.1192 134.351C93.6449 134.511 92.0845 134.903 90.6053 135.483C90.284 135.61 89.9348 135.713 89.5638 135.822C88.8049 136.046 88.0205 136.278 87.4398 136.732C87.384 136.776 87.3743 136.857 87.4179 136.912C87.4458 136.943 87.4833 136.96 87.5209 136.96Z" fill="black"/>
<path d="M88.1722 132.852C88.2001 132.852 88.2279 132.844 88.2509 132.824C88.7577 132.425 89.4209 132.242 90.0611 132.065C90.4175 131.967 90.7873 131.864 91.1268 131.726C92.8532 131.02 95.0174 130.619 97.3865 130.565C97.4568 130.564 97.5137 130.505 97.5113 130.434C97.5101 130.364 97.4532 130.31 97.3804 130.31C94.981 130.364 92.7854 130.773 91.0298 131.489C90.7037 131.621 90.3424 131.722 89.992 131.819C89.3264 132.003 88.6389 132.194 88.0921 132.624C88.0363 132.668 88.0266 132.748 88.0703 132.804C88.0969 132.835 88.1346 132.852 88.1722 132.852Z" fill="black"/>
<g opacity="0.7">
<path d="M72.817 88.7325C73.9324 83.0535 80.8238 82.1842 83.4438 82.0605C83.7312 82.1782 84.0185 82.297 84.3034 82.4194C84.5519 82.5261 84.9847 82.7092 85.4915 82.9238C86.4336 83.3227 87.8437 83.9204 88.5929 84.249L88.5905 84.2502C88.1225 84.5715 87.5018 84.9837 86.8471 85.3329C86.2336 85.6602 86.1148 85.7427 86.1208 85.9609C86.1245 86.2531 86.4385 86.3258 86.6458 86.3743C86.9986 86.481 87.372 86.6217 87.6702 86.7356C88.3286 86.9854 89.01 87.1842 89.6696 87.3782C90.357 87.5795 91.0675 87.788 91.7355 88.0487C92.1865 88.2257 93.2716 88.513 93.7178 88.6294C93.913 88.6803 94.084 88.724 94.2355 88.7628C93.9045 88.9228 93.5129 89.1132 93.1213 89.3059C92.138 89.7885 91.1584 90.2747 91.1584 90.2747L90.8638 90.4214L91.019 90.7123C91.1317 90.9245 91.6773 91.047 91.7937 91.0712C92.2119 91.1997 92.6424 91.3658 93.0582 91.5259C93.1868 91.5756 93.3141 91.6241 93.4402 91.6726C94.0197 91.892 94.5968 92.1163 95.1739 92.3406C96.5948 92.8923 98.0558 93.4584 99.5349 93.9446C90.0757 97.5661 71.4542 95.6784 72.817 88.7325Z" fill="#9FCDCE"/>
<path d="M95.1484 85.3207C95.0381 85.2455 94.9278 85.1679 94.8151 85.0903C94.4829 84.86 94.141 84.6211 93.7918 84.4065C95.1921 84.0925 96.9016 83.7154 97.2229 83.6645C97.3211 83.6815 97.3648 83.6512 97.4302 83.6063L97.6133 83.479L97.5588 83.262C97.5212 83.1141 97.4302 83.0522 97.3247 83.0328C97.0652 82.9286 94.9217 81.7974 94.3555 81.401C93.7445 80.973 93.091 80.5959 92.4593 80.231C91.8749 79.8939 91.2699 79.5447 90.7098 79.1604C90.5243 79.0331 90.3085 78.8852 90.083 78.7409C90.8117 78.5506 91.5113 78.2972 92.0459 78.0947C92.0641 78.0898 92.092 78.085 92.1259 78.0789C92.4557 78.0135 92.7964 77.9468 92.817 77.6352C92.8316 77.4364 92.8315 77.4364 91.5936 76.5064C90.9632 76.0324 90.1679 75.4407 89.5156 74.9558C89.0755 74.6284 88.6996 74.3483 88.4826 74.1859C88.445 74.158 88.4075 74.1301 88.3711 74.1022C89.4671 66.5198 94.9641 62.1272 99.6574 66.7186C103.987 70.9536 101.177 86.3537 100.647 89.0404C99.2901 88.2038 97.9661 87.2799 96.6797 86.3827C96.1705 86.0263 95.6613 85.6711 95.1484 85.3207Z" fill="#9FCDCE"/>
</g>
</svg>
