<svg width="299" height="176" viewBox="0 0 299 176" fill="none" xmlns="http://www.w3.org/2000/svg">
<path d="M241.249 44.2515C241.249 44.2515 244.323 38.1017 242.859 33.1235C241.395 28.1452 238.613 24.4844 238.613 24.4844L235.099 29.4626L232.024 26.0947L228.803 31.073L226.167 29.3159C226.167 29.3159 225.582 35.0264 215.332 37.5157C209.795 38.8603 217.235 45.4226 217.235 45.4226L241.249 44.2515Z" fill="#B55252"/>
<path d="M268.191 109.409C271.934 110.158 263.798 126.687 261.748 124.052C259.698 121.416 265.262 108.824 268.191 109.409Z" fill="#D5C0FF"/>
<path d="M233.59 68.9922L223.723 70.7383L224.557 75.4551C225.04 78.1799 227.639 79.9981 230.364 79.5157C233.089 79.0334 234.907 76.4338 234.425 73.7091L233.59 68.9922Z" fill="#FE8F95"/>
<path d="M257.43 32.7688C258.743 30.8013 260.546 35.7901 261.575 34.3234C262.604 32.8567 262.261 27.0416 263.794 26.786C265.328 26.5303 264.106 33.7075 265.174 32.9898C266.242 32.272 266.9 27.0241 268.79 26.8387C270.681 26.6533 267.817 33.6935 268.923 33.7251C270.029 33.7567 270.548 29.223 272.62 30.0001C274.693 30.7772 269.791 36.8619 271.325 36.6063C272.858 36.3506 273.996 35.2757 274.927 36.2004C275.858 37.1246 269.028 42.6458 269.028 42.6458L260.745 41.3925C260.745 41.3917 256.117 34.7363 257.43 32.7688Z" fill="#FE8F95"/>
<path d="M176.529 87.3428C174.219 87.8506 178.211 91.3436 176.47 91.7693C174.73 92.1949 169.437 89.7618 168.642 91.0972C167.846 92.433 174.976 93.9033 173.92 94.6373C172.863 95.3713 167.735 94.0768 166.875 95.7706C166.014 97.4644 173.614 97.3555 173.242 98.3974C172.869 99.4394 168.457 98.2744 168.428 100.487C168.398 102.701 175.848 100.346 175.053 101.682C174.257 103.018 172.842 103.687 173.365 104.89C173.888 106.094 181.514 101.737 181.514 101.737L183.357 93.565C183.357 93.5659 178.839 86.835 176.529 87.3428Z" fill="#FE8F95"/>
<path d="M204.376 99.8593C190.021 104.068 178.404 102.327 178.404 102.327L180.377 92.8192C180.377 92.8192 192.384 92.5077 204.13 87.4008C209.515 85.0591 216.573 77.1232 224.078 75.4795L232.693 73.9548C240.293 72.0717 245.742 65.863 249.492 60.851C256.825 51.0509 259.939 40.3086 259.939 40.3086L269.636 40.8098C269.636 40.8098 268.376 52.4886 260.667 65.3087C254.163 76.1244 247.702 82.7239 245.841 84.5236C246.043 91.66 246.806 98.4102 248.182 104.738L286.303 118.358C286.303 118.358 300.123 122.838 298.926 125.251C297.728 127.664 290.88 126.19 288.692 127.691C287.027 128.833 285.242 127.237 284.484 126.41L284.44 126.54C284.44 126.54 251.781 118.027 240.367 119.658C234.217 120.537 225.139 136.643 218.989 136.204C212.839 135.765 198.124 130.713 198.124 130.713L198.235 129.89L198.031 130.576C197.105 130.086 184.31 125.776 185.527 123.373C186.745 120.971 193.58 122.501 195.781 121.019C197.982 119.537 200.35 122.782 200.35 122.782L200.333 122.841C203.468 123.54 212.278 125.344 213.718 123.904C215.475 122.147 217.233 116.437 218.55 111.605C219.333 108.734 217.898 101.156 216.603 95.4763C213.22 96.9255 209.114 98.4708 204.376 99.8593Z" fill="#FE8F95"/>
<path d="M268.189 109.409L247.398 103.553L219.284 108.824C219.411 108.15 215.271 119.64 212.402 123.027C212.402 123.027 219.87 131.373 225.727 132.544L240.369 119.659L261.747 124.052C261.747 124.052 264.675 109.995 268.189 109.409Z" fill="#D5C0FF"/>
<path d="M237.012 46.8797C237.012 46.8797 242.486 39.3634 246.229 45.2782C249.972 51.1929 240.899 53.1288 240.899 53.1288L237.012 46.8797Z" fill="#EA6E7A"/>
<path d="M246.234 45.2793C249.977 51.194 240.904 53.1299 240.904 53.1299L240.725 52.7956C239.709 50.8949 240.535 48.5325 242.514 47.6786" stroke="#282B30" stroke-width="0.439268" stroke-miterlimit="10" stroke-linecap="round" stroke-linejoin="round"/>
<path d="M209.629 64.1038C214.047 74.3353 224.366 76.8505 235.227 71.4326C247.505 65.3079 248.518 58.6095 244.101 48.3776C239.683 38.1457 230.387 33.1618 220.156 37.579C209.925 41.9972 205.211 53.8724 209.629 64.1038Z" fill="#FE8F95"/>
<path d="M212.633 55.8201C212.633 55.8201 203.408 54.6504 205.146 61.4309C206.884 68.2115 214.515 62.935 214.515 62.935L212.633 55.8201Z" fill="#FE8F95"/>
<path d="M214.517 62.9351L214.396 62.5757C213.709 60.5331 211.424 59.5145 209.445 60.3684" stroke="#282B30" stroke-width="0.439268" stroke-miterlimit="10" stroke-linecap="round" stroke-linejoin="round"/>
<path d="M236.294 50.9551C236.454 51.3241 236.882 51.4941 237.251 51.3346C237.62 51.1752 237.79 50.7469 237.63 50.3779C237.471 50.0089 237.043 49.8389 236.674 49.9984C236.305 50.1578 236.135 50.5861 236.294 50.9551Z" fill="#282B30"/>
<path d="M223.935 56.292C224.094 56.661 224.523 56.831 224.892 56.6715C225.261 56.5121 225.431 56.0838 225.271 55.7148C225.112 55.3458 224.683 55.1758 224.314 55.3353C223.945 55.4947 223.775 55.923 223.935 56.292Z" fill="#282B30"/>
<path d="M232.527 52.7803C232.527 52.7803 235.135 54.2307 234.16 55.643" stroke="#282B30" stroke-width="0.439268" stroke-miterlimit="10" stroke-linecap="round" stroke-linejoin="round"/>
<path d="M238.53 46.0278C238.53 46.0278 235.109 44.5316 233.158 47.3561" stroke="#282B30" stroke-width="0.439268" stroke-miterlimit="10" stroke-linecap="round" stroke-linejoin="round"/>
<path d="M220.75 53.5058C220.75 53.5058 222.007 49.9903 225.401 50.5069" stroke="#282B30" stroke-width="0.439268" stroke-miterlimit="10" stroke-linecap="round" stroke-linejoin="round"/>
<path d="M237.218 56.3037C237.218 56.3037 238.069 60.7386 235.635 61.9874C232.382 63.6571 229.746 58.7368 229.746 58.7368L237.218 56.3037Z" stroke="#282B30" stroke-width="0.439268" stroke-miterlimit="10" stroke-linecap="round" stroke-linejoin="round"/>
<path d="M237.823 54.9526C238.361 56.1979 240.293 56.5616 242.138 55.7652C243.983 54.9684 245.043 53.3132 244.505 52.0679C243.967 50.8226 242.036 50.4584 240.191 51.2553C238.346 52.0517 237.286 53.7073 237.823 54.9526Z" fill="#EA6E7A"/>
<path d="M220.974 62.6565C221.512 63.9018 223.443 64.2655 225.288 63.4691C227.134 62.6723 228.193 61.0171 227.656 59.7718C227.118 58.5265 225.186 58.1628 223.341 58.9592C221.496 59.7556 220.436 61.4107 220.974 62.6565Z" fill="#EA6E7A"/>
<path d="M219.868 36.7832C219.868 36.7832 223.257 45.0889 215.515 53.782C212.423 57.2544 213.978 59.4007 213.978 59.4007C213.978 59.4007 210.956 55.156 207.448 56.6706C207.448 56.6706 197.759 38.5644 219.868 36.7832Z" fill="#B55252"/>
<path d="M270.389 44.6166L258.528 40.8828C259.537 43.1934 247.107 68.996 234.369 72.7298C234.369 72.7298 235.686 77.4884 231.294 78.9529C226.901 80.417 224.084 75.4787 224.084 75.4787C224.084 75.4787 220.458 75.7317 215.773 78.6599C213.543 80.0533 205.265 85.7313 197.909 88.6168C189.807 91.7949 182.681 92.131 182.681 92.131C182.681 92.131 180.637 103.45 181.51 103.552C199.08 105.602 215.919 97.9877 215.919 97.9877L218.115 110.727C218.115 110.727 226.8 110.492 235.295 109.029C241.654 107.933 247.907 106.149 250.329 103.259L247.327 85.4686C260.944 73.6083 265.107 60.0951 270.389 44.6166Z" fill="#0167B1"/>
<path d="M243.881 115.266L240.367 119.658L246.224 117.901" stroke="#282B30" stroke-width="0.439268" stroke-miterlimit="10" stroke-linecap="round" stroke-linejoin="round"/>
<path d="M223.092 35.4658C223.532 35.4658 227.046 44.6905 220.75 48.3509C220.75 48.3509 222.361 44.6905 220.164 42.3474C220.164 42.3474 221.043 48.4972 214.893 50.2542C208.743 52.0113 216.065 37.5154 216.065 37.5154L223.092 35.4658Z" fill="#B55252"/>
<path d="M215.918 97.9876L214.917 92.2969L208.768 92.0039" stroke="#282B30" stroke-width="0.439268" stroke-miterlimit="10" stroke-linecap="round" stroke-linejoin="round"/>
<path d="M247.32 85.4697L247.711 79.1201" stroke="#282B30" stroke-width="0.439268" stroke-miterlimit="10" stroke-linecap="round" stroke-linejoin="round"/>
<path d="M220.48 90.2469L229.559 87.9043L232.194 97.8612L222.238 100.204L220.48 90.2469Z" fill="#26778E"/>
<path d="M93.9636 12.5568C92.3282 10.848 91.422 16.0749 90.153 14.8098C88.8839 13.5447 88.2083 7.75863 86.6542 7.77445C85.0996 7.78982 87.5534 14.6442 86.377 14.1236C85.2007 13.6031 83.6377 8.5502 81.7441 8.69691C79.8499 8.84363 83.8969 15.2772 82.8128 15.5012C81.7291 15.7248 80.4289 11.351 78.5233 12.4773C76.6178 13.6035 82.5044 18.7412 80.9499 18.7566C79.3953 18.772 78.0876 17.9119 77.3316 18.9846C76.5756 20.0568 84.2633 24.3032 84.2633 24.3032L92.2013 21.6259C92.2013 21.6259 95.5995 14.2655 93.9636 12.5568Z" fill="#D98B7C"/>
<path d="M159.914 12.7706C161.55 11.0619 162.456 16.2887 163.725 15.0236C164.994 13.7585 165.67 7.9725 167.224 7.98831C168.778 8.00369 166.325 14.858 167.501 14.3375C168.677 13.817 170.24 8.76406 172.134 8.91078C174.028 9.0575 169.981 15.491 171.065 15.715C172.149 15.9386 173.449 11.5648 175.355 12.6911C177.26 13.8174 171.374 18.9551 172.928 18.9705C174.483 18.9858 175.791 18.1258 176.546 19.1984C177.302 20.2707 169.615 24.5171 169.615 24.5171L161.677 21.8398C161.676 21.8389 158.278 14.4789 159.914 12.7706Z" fill="#D98B7C"/>
<path d="M162.495 20.6143C162.495 20.6143 151.399 43.1571 132.406 48.8553V42.962H122.385V49.1496C122.242 49.1729 122.099 49.1966 121.957 49.2256L122.102 48.998C102.816 43.5397 91.5352 20.6143 91.5352 20.6143L82.0743 22.7979C82.0743 22.7979 85.349 34.0787 95.1746 45.3596C103.424 54.8315 110.902 60.1968 113.088 61.6744C114.45 72.4752 114.811 81.7165 113.957 89.0615L113.867 89.0633C113.867 89.0633 112.775 91.7925 94.7634 100.526C85.3806 105.075 76.749 109.286 74.3234 110.47L74.2671 110.302C73.4492 110.771 62.0665 115.046 63.2367 117.171C64.4069 119.296 70.5109 117.707 72.5373 118.973C74.5636 120.239 76.5953 117.245 76.5953 117.245L76.4367 116.772L76.7516 117.446C87.5348 115.183 97.1684 112.735 101.273 109.394C101.273 109.394 121.431 103.954 128.014 103.719C128.014 103.719 140.313 113.383 138.117 117.775C135.023 123.964 130.312 138.661 129.636 140.788C129 141.077 126.519 142.344 127.216 144.312C128.013 146.565 125.139 152.18 126.96 153.782C128.78 155.385 135.42 145.199 136.056 144.502L135.955 144.441C138.673 141.156 152.262 124.406 153.052 116.896C153.931 108.55 142.849 88.7707 142.849 88.7707C141.625 80.1958 144.282 59.6121 144.25 59.2629C147.719 56.5776 153.099 51.9697 158.856 45.3596C168.681 34.0787 171.957 22.7979 171.957 22.7979L162.495 20.6143Z" fill="#D98B7C"/>
<path d="M80.1313 105.035L111.319 90.3197L113.516 86.5859H143.386L144.265 89.6608C144.265 89.6608 155.027 110.965 155.027 115.578C155.027 120.19 140.531 139.957 140.531 139.957L137.895 141.934L129.988 138.639L129.769 133.368L137.017 116.017L128.451 103.937L103.413 110.087L82.9866 116.676L79.4724 116.895L76.6172 108.989L80.1313 105.035Z" fill="#26778E"/>
<path d="M134.679 98.4473L128.455 103.938L134.386 103.133" stroke="#282B30" stroke-width="0.439268" stroke-miterlimit="10" stroke-linecap="round" stroke-linejoin="round"/>
<path d="M129.109 87.9043L130.281 101.961" stroke="#282B30" stroke-width="0.439268" stroke-miterlimit="10" stroke-linecap="round" stroke-linejoin="round"/>
<path d="M111.318 90.3198C111.318 90.3198 113.881 90.8329 117.103 87.9043" stroke="#282B30" stroke-width="0.439268" stroke-miterlimit="10" stroke-linecap="round" stroke-linejoin="round"/>
<path d="M139.361 87.6113C139.361 87.6113 141.411 91.4185 144.047 90.8325" stroke="#282B30" stroke-width="0.439268" stroke-miterlimit="10" stroke-linecap="round" stroke-linejoin="round"/>
<path d="M140.953 24.7521C140.953 24.7521 147.469 19.0952 149.373 25.8143C151.276 32.5333 142.906 31.8318 142.906 31.8318L140.953 24.7521Z" fill="#D98B7C"/>
<path d="M149.373 25.8135C151.276 32.5325 142.906 31.831 142.906 31.831L142.827 31.4607C142.379 29.3544 143.645 27.3241 145.569 27.0636" stroke="#282B30" stroke-width="0.439268" stroke-miterlimit="10" stroke-linecap="round" stroke-linejoin="round"/>
<path d="M107.849 29.239C107.849 29.239 100.062 25.5206 100.016 32.504C99.9693 39.4875 107.851 36.5831 107.851 36.5831L107.849 29.239Z" fill="#D98B7C"/>
<path d="M100.016 32.5039C99.9693 39.4874 107.851 36.583 107.851 36.583L107.829 36.2047C107.7 34.0554 105.939 32.4354 104.014 32.6963" stroke="#282B30" stroke-width="0.439268" stroke-miterlimit="10" stroke-linecap="round" stroke-linejoin="round"/>
<path d="M106.707 32.117C106.707 32.117 98.5203 19.3167 104.95 12.5696C111.38 5.8224 123.357 12.0802 123.357 12.0802L106.707 32.117Z" fill="#282B30"/>
<path d="M143.657 29.3885C145.154 40.4322 139.296 46.6421 127.268 48.2723C114.647 49.9828 107.512 44.7533 106.015 33.7096C104.518 22.666 111.132 13.5534 122.175 12.0563C133.219 10.5597 142.16 18.3453 143.657 29.3885Z" fill="#D98B7C"/>
<path d="M118.461 31.4728C118.515 31.8712 118.236 32.2376 117.837 32.2916C117.439 32.3456 117.072 32.0662 117.018 31.6683C116.964 31.2698 117.244 30.9035 117.642 30.8495C118.04 30.7954 118.406 31.0744 118.461 31.4728Z" fill="#282B30"/>
<path d="M131.802 29.6642C131.856 30.0626 131.577 30.429 131.179 30.483C130.781 30.537 130.414 30.2581 130.36 29.8597C130.306 29.4612 130.585 29.0949 130.984 29.0409C131.382 28.9868 131.748 29.2662 131.802 29.6642Z" fill="#282B30"/>
<path d="M123.456 30.4277C123.456 30.4277 121.97 33.0159 123.535 33.7218" stroke="#282B30" stroke-width="0.439268" stroke-miterlimit="10" stroke-linecap="round" stroke-linejoin="round"/>
<path d="M114.002 28.4046C114.002 28.4046 116.16 25.3578 119.289 26.7701" stroke="#282B30" stroke-width="0.439268" stroke-miterlimit="10" stroke-linecap="round" stroke-linejoin="round"/>
<path d="M133.09 25.6339C133.09 25.6339 130.199 23.2715 127.559 25.4656" stroke="#282B30" stroke-width="0.439268" stroke-miterlimit="10" stroke-linecap="round" stroke-linejoin="round"/>
<path d="M120.943 36.2769C120.943 36.2769 121.909 37.9821 124.638 37.7959C128.287 37.5468 128.598 34.5049 128.598 34.5049" stroke="#282B30" stroke-width="0.439268" stroke-miterlimit="10" stroke-linecap="round" stroke-linejoin="round"/>
<path d="M119.216 35.6859C119.398 37.0301 117.931 38.3387 115.939 38.6088C113.948 38.8785 112.186 38.0079 112.004 36.6633C111.821 35.3191 113.288 34.0105 115.28 33.7404C117.271 33.4707 119.033 34.3418 119.216 35.6859Z" fill="#EA6E7A"/>
<path d="M137.626 33.587C137.808 34.9312 136.341 36.2397 134.35 36.5099C132.358 36.78 130.596 35.909 130.414 34.5648C130.231 33.2207 131.698 31.9121 133.69 31.6419C135.681 31.3718 137.444 32.2424 137.626 33.587Z" fill="#EA6E7A"/>
<path d="M106.552 37.1248C106.552 37.1248 105.401 32.6908 105.789 28.7822" stroke="#282B30" stroke-width="0.439268" stroke-miterlimit="10" stroke-linecap="round" stroke-linejoin="round"/>
<path d="M141.83 23.7158C141.83 23.7158 144.088 28.1836 143.831 31.707" stroke="#282B30" stroke-width="0.439268" stroke-miterlimit="10" stroke-linecap="round" stroke-linejoin="round"/>
<path d="M105.174 56.4963L111.543 43.9771L121.96 49.2255C121.96 49.2255 122.745 54.0803 127.577 54.5196C132.408 54.9588 132.408 48.8552 132.408 48.8552L145.147 40.6826L149.979 54.7392C149.979 54.7392 145.147 59.1319 145.147 60.0104C145.147 60.889 145.367 87.6843 145.367 87.6843L110.665 87.4647L111.543 62.2068L105.174 56.4963Z" fill="#6BAA77"/>
<path d="M122.303 48.4799L122.385 49.1498L132.296 48.8094V47.1621L122.303 48.4799Z" fill="#282B30"/>
<path d="M111.318 15.2051C111.318 15.2051 112.197 23.7708 119.225 25.3083L120.543 21.5745C120.543 21.5745 130.376 31.4277 129.548 27.285C129.328 26.1868 130.427 21.1352 130.427 21.1352L137.235 25.0887L137.016 20.2567L143.165 26.4065C143.165 26.4065 148.144 15.571 138.48 8.25017C132.764 3.91986 115.711 8.39645 111.318 15.2051Z" fill="#282B30"/>
<path d="M127.941 58.6201L131.079 64.9772L138.094 65.9963L133.018 70.9442L134.216 77.9312L127.941 74.6323L121.667 77.9312L122.865 70.9442L117.789 65.9963L124.804 64.9772L127.941 58.6201Z" stroke="#282B30" stroke-width="0.439268" stroke-miterlimit="10" stroke-linecap="round" stroke-linejoin="round"/>
<path d="M29.5211 37.9365C29.5211 37.9365 26.8855 33.9831 31.2782 31.3475C35.6708 28.7118 37.8672 36.6187 37.8672 36.6187C37.8672 36.6187 40.0635 30.0296 45.3347 30.9082C50.606 31.7867 49.2882 37.9365 49.2882 37.9365C49.2882 37.9365 54.1201 34.8616 54.5594 40.5721C54.9987 46.2826 47.5311 48.4789 47.5311 48.4789C47.5311 48.4789 51.0452 53.7501 46.2133 55.9465C41.3813 58.1428 38.7457 51.1145 38.7457 51.1145C38.7457 51.1145 38.722 57.8652 33.9138 58.1428C29.1055 58.4204 30.3996 52.8716 30.3996 52.8716C30.3996 52.8716 24.6891 55.5072 22.4928 52.4323C20.2964 49.3575 26.0069 45.404 26.0069 45.404C26.0069 45.404 19.4179 44.9648 21.6142 38.815C23.8106 32.6653 29.5211 37.9365 29.5211 37.9365Z" fill="#F2674A"/>
<path d="M101.836 76.7302C104.199 76.63 101.234 81.0284 103.025 80.9946C104.817 80.9608 109.311 77.2538 110.421 78.3414C111.532 79.4291 105.016 82.6753 106.225 83.1141C107.434 83.5529 112.061 80.9894 113.325 82.4069C114.59 83.824 107.216 85.6636 107.843 86.576C108.47 87.4879 112.437 85.2322 113.031 87.3645C113.626 89.4967 105.822 89.1272 106.933 90.2144C108.044 91.3021 109.582 91.5871 109.385 92.8843C109.188 94.1815 100.701 91.9219 100.701 91.9219L96.8281 84.4934C96.8281 84.4934 99.4725 76.8304 101.836 76.7302Z" fill="#F4B792"/>
<path d="M16.6852 46.0411C15.0494 44.3324 14.1436 49.5592 12.8741 48.2941C11.6051 47.0291 10.9295 41.243 9.37491 41.2588C7.82033 41.2742 10.2741 48.1285 9.09773 47.608C7.92137 47.0875 6.35889 42.0346 4.46476 42.1813C2.57064 42.328 6.61762 48.7615 5.5335 48.9856C4.44983 49.2091 3.14959 44.8353 1.24405 45.9616C-0.661501 47.0879 5.22514 52.2256 3.67056 52.241C2.11599 52.2564 0.808291 51.3963 0.0523099 52.469C-0.703671 53.5412 6.98441 57.7876 6.98441 57.7876L14.9224 55.1103C14.9224 55.1103 18.3206 47.7499 16.6852 46.0411Z" fill="#F4B792"/>
<path d="M24.4781 137.884C26.5045 136.618 28.5361 139.612 28.5361 139.612L28.5009 139.717L35.6241 142.043C35.6241 142.043 34.0735 131.472 34.6292 122.481C35.867 113.809 33.1958 93.3226 33.2283 92.9734C29.7586 90.2881 24.3788 85.6802 18.6218 79.0701C8.79667 67.7892 5.52148 56.5088 5.52148 56.5088L14.9829 54.3252C14.9829 54.3252 26.0779 76.8676 45.0719 82.5662V76.673H55.0925L55.172 85.1579C56.3163 85.3455 66.2302 87.804 75.598 87.5739C86.4457 87.3077 96.8604 84.3299 96.8604 84.3299L102.175 92.4563C102.175 92.4563 92.0003 98.3272 77.1003 99.663C72.0654 100.114 67.5835 100.172 63.8524 100.05C62.9466 108.864 62.792 116.507 63.5203 122.772L63.6108 122.773C63.6108 122.773 68.5688 153.464 61.9798 154.343C53.8454 155.427 51.4373 149.511 51.4373 149.511C51.4373 149.511 50.9981 156.539 42.652 156.1C36.7996 155.792 25.7401 146.436 25.7401 146.436L25.7735 146.352C23.5245 145.366 14.107 141.629 15.177 139.686C16.3477 137.561 22.4518 139.15 24.4781 137.884Z" fill="#F4B792"/>
<mask id="mask0_1640_6928" style="mask-type:luminance" maskUnits="userSpaceOnUse" x="5" y="54" width="98" height="103">
<path d="M24.4742 137.884C26.5006 136.618 28.5322 139.612 28.5322 139.612L28.497 139.717L35.6202 142.043C35.6202 142.043 34.0696 131.472 34.6253 122.481C35.8631 113.809 33.1919 93.3226 33.2244 92.9734C29.7547 90.2881 24.3749 85.6802 18.6179 79.0701C8.79276 67.7892 5.51758 56.5088 5.51758 56.5088L14.979 54.3252C14.979 54.3252 26.074 76.8676 45.068 82.5662V76.673H55.0886L55.1681 85.1579C56.3124 85.3455 66.2262 87.804 75.5941 87.5739C86.4418 87.3077 96.8565 84.3299 96.8565 84.3299L102.171 92.4563C102.171 92.4563 91.9964 98.3272 77.0964 99.663C72.0615 100.114 67.5796 100.172 63.8485 100.05C62.9427 108.864 62.7881 116.507 63.5164 122.772L63.6069 122.773C63.6069 122.773 68.5649 153.464 61.9759 154.343C53.8415 155.427 51.4334 149.511 51.4334 149.511C51.4334 149.511 50.9942 156.539 42.6481 156.1C36.7957 155.792 25.7362 146.436 25.7362 146.436L25.7696 146.352C23.5206 145.366 14.1031 141.629 15.1731 139.686C16.3438 137.561 22.4479 139.15 24.4742 137.884Z" fill="white"/>
</mask>
<g mask="url(#mask0_1640_6928)">
<path d="M67.9078 128.426L61.758 119.641L34.0841 119.86L34.3037 140.945L30.1307 139.188C30.1307 139.188 24.4202 143.8 26.8362 149.511C26.8362 149.511 30.7896 158.955 44.8462 159.394C58.9028 159.834 71.2023 156.539 71.2023 156.539L67.9078 128.426Z" fill="#375875"/>
</g>
<path d="M54.0708 134.575C53.9289 135.401 50.5566 138.968 50.5566 138.968L51.4352 149.51" stroke="#282B30" stroke-width="0.439268" stroke-miterlimit="10" stroke-linecap="round" stroke-linejoin="round"/>
<path d="M36.7212 150.389C36.7212 149.73 35.623 142.043 35.623 142.043" stroke="#282B30" stroke-width="0.439268" stroke-miterlimit="10" stroke-linecap="round" stroke-linejoin="round"/>
<path d="M36.5195 58.4621C36.5195 58.4621 30.0038 52.8052 28.1 59.5242C26.1962 66.2433 34.5669 65.5418 34.5669 65.5418L36.5195 58.4621Z" fill="#F4B792"/>
<path d="M34.57 65.5428L34.649 65.1725C35.0971 63.0662 33.8311 61.0363 31.9062 60.7754" stroke="#282B30" stroke-width="0.439268" stroke-miterlimit="10" stroke-linecap="round" stroke-linejoin="round"/>
<path d="M69.6233 62.9489C69.6233 62.9489 77.4098 59.2305 77.4563 66.214C77.5029 73.1975 69.6211 70.2931 69.6211 70.2931L69.6233 62.9489Z" fill="#F4B792"/>
<path d="M69.6211 70.2932L69.6435 69.915C69.7722 67.7656 71.5332 66.1456 73.4581 66.4065" stroke="#282B30" stroke-width="0.439268" stroke-miterlimit="10" stroke-linecap="round" stroke-linejoin="round"/>
<path d="M70.9862 63.1944C70.9862 63.1944 82.741 54.0769 76.311 47.3302C69.881 40.583 54.1191 45.7914 54.1191 45.7914L70.9862 63.1944Z" fill="#F2674A"/>
<path d="M33.8195 63.0994C32.3229 74.143 38.181 80.353 50.2086 81.9831C62.8297 83.6936 69.9647 78.4641 71.4618 67.4205C72.9588 56.3768 66.3443 47.2642 55.3011 45.7672C44.2574 44.271 35.3161 52.0562 33.8195 63.0994Z" fill="#F4B792"/>
<path d="M59.0145 65.1837C58.9605 65.5821 59.2394 65.9489 59.6378 66.0025C60.0362 66.0565 60.403 65.7772 60.4566 65.3792C60.5107 64.9808 60.2313 64.614 59.8333 64.5604C59.4349 64.5064 59.0685 64.7857 59.0145 65.1837Z" fill="#282B30"/>
<path d="M45.6766 63.3752C45.6226 63.7736 45.9019 64.14 46.2999 64.194C46.6983 64.2481 47.0647 63.9687 47.1187 63.5707C47.1728 63.1723 46.8934 62.8059 46.4954 62.7519C46.0974 62.6974 45.7306 62.9768 45.6766 63.3752Z" fill="#282B30"/>
<path d="M54.0166 64.1387C54.0166 64.1387 55.5017 66.7268 53.9375 67.4327" stroke="#282B30" stroke-width="0.439268" stroke-miterlimit="10" stroke-linecap="round" stroke-linejoin="round"/>
<path d="M63.4663 62.1145C63.4663 62.1145 61.3086 59.0678 58.1797 60.48" stroke="#282B30" stroke-width="0.439268" stroke-miterlimit="10" stroke-linecap="round" stroke-linejoin="round"/>
<path d="M44.3809 59.3438C44.3809 59.3438 47.2717 56.9814 49.9121 59.1756" stroke="#282B30" stroke-width="0.439268" stroke-miterlimit="10" stroke-linecap="round" stroke-linejoin="round"/>
<path d="M56.5321 69.9878C56.5321 69.9878 55.5666 71.6931 52.8374 71.5068C49.1888 71.2578 48.877 68.2158 48.877 68.2158L56.5321 69.9878Z" stroke="#282B30" stroke-width="0.439268" stroke-miterlimit="10" stroke-linecap="round" stroke-linejoin="round"/>
<path d="M58.2614 69.3956C58.0791 70.7397 59.5458 72.0483 61.5375 72.3185C63.5291 72.5886 65.291 71.7176 65.4733 70.3734C65.6556 69.0292 64.1889 67.7206 62.1973 67.4505C60.2056 67.1803 58.4437 68.0514 58.2614 69.3956Z" fill="#EA6E7A"/>
<path d="M39.8552 67.2972C39.6729 68.6414 41.1396 69.95 43.1312 70.2201C45.1229 70.4898 46.8848 69.6192 47.0671 68.2746C47.2494 66.9305 45.7826 65.6219 43.791 65.3517C41.7994 65.082 40.037 65.9531 39.8552 67.2972Z" fill="#EA6E7A"/>
<path d="M70.9199 70.8367C70.9199 70.8367 72.0717 66.4028 71.6834 62.4941" stroke="#282B30" stroke-width="0.439268" stroke-miterlimit="10" stroke-linecap="round" stroke-linejoin="round"/>
<path d="M35.6466 57.4258C35.6466 57.4258 33.3888 61.8936 33.6453 65.417" stroke="#282B30" stroke-width="0.439268" stroke-miterlimit="10" stroke-linecap="round" stroke-linejoin="round"/>
<path d="M61.7587 45.185C61.7587 45.185 62.8568 52.8722 55.3893 56.606C47.9217 60.3398 34.524 59.9005 34.524 59.9005C34.524 59.9005 34.0847 55.0686 36.0614 48.9188C38.0382 42.769 53.8518 38.8156 61.7587 45.185Z" fill="#F2674A"/>
<path d="M34.524 59.9005C34.524 59.9005 34.0847 55.0686 36.0614 48.9188C38.0382 42.769 53.8518 38.8156 61.7587 45.185" stroke="#282B30" stroke-width="0.439268" stroke-miterlimit="10" stroke-linecap="round" stroke-linejoin="round"/>
<path d="M64.8361 101.85L63.0791 85.8168L60.2238 85.5971C60.2238 85.5971 61.1024 95.261 51.6581 93.9432C42.2138 92.6254 41.3353 80.7652 41.3353 80.7652L38.6997 79.667C38.6997 79.667 39.1389 95.0414 32.7695 96.5788V122.276C32.7695 122.276 38.2441 123.155 47.5338 123.155C59.394 123.155 64.8361 122.715 64.8361 122.715V101.85Z" fill="#A3BDDF"/>
<path d="M45.0059 80.875C45.0059 80.875 53.7912 82.3026 55.109 82.1928L55.2189 84.2793C55.2189 84.2793 45.6648 81.9732 45.0059 80.875Z" fill="#282B30"/>
<path d="M192.798 73.5461C193.677 73.7658 203.926 78.5244 204 90.458C204.056 99.6927 212.126 96.3881 218.935 103.636C225.744 110.884 225.744 116.375 220.253 120.767C214.762 125.16 202.609 121.28 197.777 128.308C192.945 135.337 169.298 123.842 165.344 113.959C161.391 104.075 158.535 108.102 155.021 101.074C151.962 94.9556 158.316 79.9155 165.564 74.6443C172.812 69.3731 192.798 73.5461 192.798 73.5461Z" fill="#B55252"/>
<path d="M118.892 109.611C116.534 109.806 120.024 113.801 118.242 113.99C116.46 114.18 111.54 111.061 110.573 112.278C109.606 113.495 116.476 115.906 115.331 116.492C114.186 117.078 109.276 115.11 108.198 116.673C107.119 118.236 114.665 119.144 114.156 120.127C113.648 121.11 109.431 119.366 109.106 121.555C108.781 123.745 116.479 122.407 115.512 123.625C114.545 124.842 113.054 125.316 113.411 126.579C113.768 127.841 121.908 124.543 121.908 124.543L124.826 116.691C124.826 116.691 121.249 109.417 118.892 109.611Z" fill="#FFB6A8"/>
<path d="M225.213 93.9006C227.478 93.2197 225.691 98.2142 227.419 97.7389C229.146 97.2632 232.585 92.5613 233.93 93.341C235.275 94.1207 229.762 98.8757 231.043 99.0027C232.323 99.1292 236.173 95.5022 237.748 96.563C239.324 97.6238 232.633 101.228 233.466 101.957C234.298 102.686 237.585 99.5206 238.688 101.439C239.791 103.358 232.137 104.928 233.482 105.708C234.827 106.487 236.389 106.383 236.518 107.689C236.648 108.995 227.866 108.902 227.866 108.902L222.277 102.661C222.277 102.661 222.947 94.5814 225.213 93.9006Z" fill="#FFB6A8"/>
<path d="M173.242 174.341C174.289 174.36 187.572 176.781 187.67 174.089C187.767 171.397 181.045 169.429 179.836 167.067C178.628 164.705 174.985 166.398 174.985 166.398L173.242 174.341Z" fill="#FFB6A8"/>
<path d="M190.601 123.842C190.601 123.842 191.699 128.235 190.382 128.674C189.064 129.113 187.746 125.16 187.966 124.282C188.185 123.403 190.601 123.842 190.601 123.842Z" fill="#F9BF55"/>
<path d="M124.295 115.767C124.295 115.767 137.321 118.041 149.309 115.936C158.628 114.299 170.833 108.468 170.833 108.468L171.996 102.973L181.864 104.719L181.039 109.377L181.508 109.46C191.258 112.202 198.993 110.975 204.71 109.311C214.711 106.399 222.081 101.614 222.081 101.614L229.089 108.335C229.089 108.335 220.498 116.347 206.283 121.004C199.887 123.1 194.29 124.294 190.062 124.976C188.773 130.071 186.014 141.839 187.036 145.587L192.747 161.84L201.094 156.414C201.312 155.345 202.027 152.972 204.083 153.114C206.73 153.296 211.882 148.552 214.139 150.024C216.208 151.374 208.88 160 207.219 162.108L207.243 162.133C207.243 162.133 207.187 162.184 207.092 162.271C207.009 162.379 206.946 162.464 206.914 162.515L206.87 162.473C204.509 164.622 191.585 176.214 188.794 175.018C185.719 173.7 171.662 157.008 171.662 155.69C171.662 154.372 165.512 165.354 164.195 165.793C162.877 166.232 175.616 166.672 175.616 166.672L176.055 174.139C176.055 174.139 157.453 177.19 150.577 173.261C147.502 171.504 154.531 156.569 157.404 138.72C158.207 135.031 158.796 131.196 159.194 127.229C155.47 127.827 150.948 128.341 145.809 128.523C130.859 129.052 120.033 124.492 120.033 124.492L124.295 115.767Z" fill="#FFB6A8"/>
<path d="M181.596 108.249C181.596 108.249 172.811 107.041 171.273 105.942L170.834 108.468C170.834 108.468 180.059 109.566 181.596 108.249Z" fill="#282B30"/>
<path d="M164.464 77.3015C164.464 77.3015 158.978 65.2216 167.968 62.7613C176.957 60.3009 192.357 75.5229 192.357 75.5229L164.464 77.3015Z" fill="#B55252"/>
<path d="M168.578 80.8612C168.578 80.8612 163.103 73.3448 159.36 79.2596C155.617 85.1744 164.691 87.1102 164.691 87.1102L168.578 80.8612Z" fill="#EA6E7A"/>
<path d="M164.688 87.1095L164.867 86.7752C165.882 84.8745 165.057 82.5121 163.078 81.6582" stroke="#282B30" stroke-width="0.439268" stroke-miterlimit="10" stroke-linecap="round" stroke-linejoin="round"/>
<path d="M195.963 98.0842C191.545 108.316 181.226 110.831 170.365 105.413C158.087 99.2883 157.074 92.5899 161.491 82.358C165.909 72.1265 175.204 67.1422 185.436 71.5595C195.667 75.9776 200.381 87.8528 195.963 98.0842Z" fill="#FFB6A8"/>
<path d="M192.956 89.8016C192.956 89.8016 202.182 88.6318 200.443 95.4124C198.705 102.193 191.074 96.9164 191.074 96.9164L192.956 89.8016Z" fill="#FFB6A8"/>
<path d="M191.074 96.9165L191.195 96.5572C191.882 94.5146 194.168 93.4959 196.146 94.3499" stroke="#282B30" stroke-width="0.439268" stroke-miterlimit="10" stroke-linecap="round" stroke-linejoin="round"/>
<path d="M169.295 84.9365C169.135 85.3055 168.707 85.4755 168.338 85.3161C167.969 85.1566 167.799 84.7283 167.958 84.3593C168.118 83.9903 168.546 83.8203 168.915 83.9798C169.284 84.1393 169.454 84.5675 169.295 84.9365Z" fill="#282B30"/>
<path d="M181.658 90.2734C181.498 90.6424 181.07 90.8124 180.701 90.653C180.332 90.4935 180.162 90.0652 180.322 89.6962C180.481 89.3273 180.909 89.1573 181.278 89.3167C181.647 89.4762 181.817 89.9045 181.658 90.2734Z" fill="#282B30"/>
<path d="M173.066 86.7617C173.066 86.7617 170.458 88.2122 171.433 89.6244" stroke="#282B30" stroke-width="0.439268" stroke-miterlimit="10" stroke-linecap="round" stroke-linejoin="round"/>
<path d="M167.062 80.0092C167.062 80.0092 170.483 78.5131 172.434 81.3376" stroke="#282B30" stroke-width="0.439268" stroke-miterlimit="10" stroke-linecap="round" stroke-linejoin="round"/>
<path d="M184.842 87.4872C184.842 87.4872 183.585 83.9718 180.191 84.4883" stroke="#282B30" stroke-width="0.439268" stroke-miterlimit="10" stroke-linecap="round" stroke-linejoin="round"/>
<path d="M168.375 90.2852C168.375 90.2852 168.322 92.2443 170.755 93.4931C174.009 95.1628 175.846 92.7183 175.846 92.7183" stroke="#282B30" stroke-width="0.439268" stroke-miterlimit="10" stroke-linecap="round" stroke-linejoin="round"/>
<path d="M167.765 88.9333C167.227 90.1786 165.295 90.5423 163.45 89.7459C161.606 88.9491 160.546 87.2939 161.083 86.0482C161.621 84.8028 163.553 84.4391 165.398 85.2355C167.243 86.0324 168.303 87.688 167.765 88.9333Z" fill="#EA6E7A"/>
<path d="M184.618 96.6374C184.081 97.8827 182.149 98.2469 180.304 97.45C178.459 96.6532 177.399 94.998 177.937 93.7523C178.474 92.507 180.406 92.1432 182.251 92.9396C184.096 93.7365 185.156 95.3921 184.618 96.6374Z" fill="#EA6E7A"/>
<path d="M179.549 69.6191C179.549 69.6191 181.472 78.0575 189.213 86.7506C192.305 90.223 191.759 93.4077 191.759 93.4077C191.759 93.4077 195.11 88.8336 198.618 90.3482C198.618 90.3482 206.783 71.8155 179.549 69.6191Z" fill="#B55252"/>
<path d="M154.58 141.194C154.287 143.39 158.826 141.779 158.826 141.779L159.705 140.022C159.705 140.022 155.752 138.851 154.58 141.194Z" fill="#F9BF55"/>
<path d="M187.085 142.951L193.894 159.863C193.894 159.863 193.894 161.181 191.917 162.279C189.94 163.377 187.964 162.498 187.964 162.498C187.964 162.498 187.524 166.012 184.45 166.671C181.375 167.33 180.276 166.012 180.276 166.012C180.276 166.012 179.837 167.55 177.202 167.77C174.566 167.989 173.248 166.452 173.248 166.452C173.248 166.452 171.93 168.868 168.416 168.648C164.902 168.428 165.341 166.232 165.341 166.232C165.341 166.232 163.365 169.527 160.729 168.868C158.093 168.209 157.215 165.793 157.215 165.793C157.215 165.793 156.556 168.428 153.261 167.989C149.967 167.55 149.967 165.134 149.967 165.134C149.967 165.134 147.258 165.28 145.062 163.743C142.865 162.205 144.183 160.522 144.183 160.522L155.604 145.293L157.654 139.876L187.085 142.951Z" fill="#F2674A"/>
<mask id="mask1_1640_6928" style="mask-type:luminance" maskUnits="userSpaceOnUse" x="143" y="139" width="51" height="30">
<path d="M187.081 142.951L193.89 159.863C193.89 159.863 193.89 161.181 191.913 162.279C189.936 163.377 187.96 162.498 187.96 162.498C187.96 162.498 187.52 166.012 184.446 166.671C181.371 167.33 180.273 166.012 180.273 166.012C180.273 166.012 179.833 167.55 177.198 167.77C174.562 167.989 173.244 166.452 173.244 166.452C173.244 166.452 171.926 168.868 168.412 168.648C164.898 168.428 165.337 166.232 165.337 166.232C165.337 166.232 163.361 169.527 160.725 168.868C158.089 168.209 157.211 165.793 157.211 165.793C157.211 165.793 156.552 168.428 153.258 167.989C149.963 167.55 149.963 165.134 149.963 165.134C149.963 165.134 147.254 165.28 145.058 163.743C142.861 162.205 144.179 160.522 144.179 160.522L155.6 145.293L157.65 139.876L187.081 142.951Z" fill="white"/>
</mask>
<g mask="url(#mask1_1640_6928)">
<path d="M160.605 173.426C158.297 173.426 156.132 172.407 156.009 172.348L155.29 172.004L156.14 165.539L165.332 138.956L163.793 138.443L149.86 167.729L147.877 166.786L162.644 135.745L168.133 137.575L158.289 166.047L157.681 170.662C158.864 171.084 160.82 171.546 162.148 170.94C162.873 170.609 163.355 169.979 163.624 169.014C165.056 163.858 169.122 139.502 169.163 139.257L169.369 138.018L175.267 139.833L175.141 140.757C174.283 147.05 174.345 166.255 174.346 166.448V166.479L174.344 166.509C174.344 166.517 174.295 167.769 174.816 169.591C175.064 170.005 177.202 170.546 178.547 169.839C178.876 169.666 179.648 169.26 178.839 167.531C176.364 162.24 178.296 142.182 178.524 139.912L178.559 139.566L178.787 139.303C178.986 139.072 180.792 137.067 182.687 137.686C184.077 138.14 184.867 139.736 185.103 142.567C185.674 149.416 189.424 163.316 189.462 163.455L187.342 164.03C187.185 163.452 183.502 149.796 182.915 142.749C182.688 140.027 182.013 139.776 182.005 139.774C181.75 139.689 181.128 140.072 180.672 140.506C180.06 146.789 178.988 162.667 180.828 166.6C181.82 168.721 181.319 170.074 180.725 170.837C179.599 172.28 177.329 172.582 175.581 172.242C174.038 171.942 172.989 171.195 172.704 170.194C172.122 168.158 172.14 166.692 172.149 166.432C172.145 165.402 172.097 148.472 172.853 141.388L171.121 140.855C170.261 145.964 167.03 164.956 165.74 169.6C165.293 171.209 164.389 172.333 163.053 172.94C162.278 173.294 161.433 173.425 160.605 173.426Z" fill="#F9BF55"/>
</g>
<path d="M182.032 109.128L172.588 117.181L169.074 108.688L164.462 110.446L158.532 128.456L154.578 141.194C154.578 141.194 156.335 138.998 169.733 142.073C183.131 145.148 187.743 143.83 187.743 143.83L190.818 128.016C190.818 128.016 186.864 126.259 185.547 121.867C184.229 117.474 187.523 110.006 187.523 110.006L182.032 109.128Z" fill="white"/>
<path d="M184.677 50.4428H180.43C180.067 50.4428 179.771 50.1481 179.771 49.7839C179.771 49.4197 180.067 49.125 180.43 49.125H184.677C185.041 49.125 185.336 49.4197 185.336 49.7839C185.336 50.1476 185.041 50.4428 184.677 50.4428Z" fill="#FFB6A8"/>
<path d="M182.553 52.5662C182.19 52.5662 181.895 52.2714 181.895 51.9073V47.6609C181.895 47.2967 182.19 47.002 182.553 47.002C182.917 47.002 183.212 47.2967 183.212 47.6609V51.9073C183.212 52.2714 182.917 52.5662 182.553 52.5662Z" fill="#FFB6A8"/>
<path d="M259.796 3.44085H255.55C255.186 3.44085 254.891 3.1461 254.891 2.78195C254.891 2.4178 255.186 2.12305 255.55 2.12305H259.796C260.16 2.12305 260.455 2.4178 260.455 2.78195C260.455 3.1461 260.16 3.44085 259.796 3.44085Z" fill="#FFB6A8"/>
<path d="M257.671 5.56421C257.307 5.56421 257.012 5.26946 257.012 4.90531V0.658903C257.012 0.294749 257.307 0 257.671 0C258.034 0 258.33 0.294749 258.33 0.658903V4.90531C258.33 5.26946 258.035 5.56421 257.671 5.56421Z" fill="#FFB6A8"/>
<path d="M275.167 149.279H270.921C270.557 149.279 270.262 148.984 270.262 148.62C270.262 148.256 270.557 147.961 270.921 147.961H275.167C275.531 147.961 275.826 148.256 275.826 148.62C275.826 148.984 275.531 149.279 275.167 149.279Z" fill="#FFB6A8"/>
<path d="M273.046 151.401C272.682 151.401 272.387 151.106 272.387 150.742V146.496C272.387 146.132 272.682 145.837 273.046 145.837C273.409 145.837 273.705 146.132 273.705 146.496V150.742C273.705 151.106 273.41 151.401 273.046 151.401Z" fill="#FFB6A8"/>
<path d="M122.23 170.781H117.983C117.619 170.781 117.324 170.486 117.324 170.122C117.324 169.758 117.619 169.463 117.983 169.463H122.23C122.593 169.463 122.888 169.758 122.888 170.122C122.888 170.486 122.594 170.781 122.23 170.781Z" fill="#FFB6A8"/>
<path d="M120.108 172.903C119.744 172.903 119.449 172.608 119.449 172.244V167.998C119.449 167.634 119.744 167.339 120.108 167.339C120.472 167.339 120.767 167.634 120.767 167.998V172.244C120.767 172.608 120.472 172.903 120.108 172.903Z" fill="#FFB6A8"/>
<path d="M14.608 163.313H10.362C9.99832 163.313 9.70312 163.018 9.70312 162.654C9.70312 162.29 9.99832 161.995 10.362 161.995H14.6084C14.9722 161.995 15.2673 162.29 15.2673 162.654C15.2669 163.018 14.9722 163.313 14.608 163.313Z" fill="#FFB6A8"/>
<path d="M12.4851 165.435C12.1214 165.435 11.8262 165.141 11.8262 164.776V160.53C11.8262 160.166 12.1214 159.871 12.4851 159.871C12.8488 159.871 13.144 160.166 13.144 160.53V164.776C13.144 165.141 12.8488 165.435 12.4851 165.435Z" fill="#FFB6A8"/>
<path d="M22.0748 15.2787H17.8288C17.4651 15.2787 17.1699 14.984 17.1699 14.6198C17.1699 14.2557 17.4651 13.9609 17.8288 13.9609H22.0752C22.4389 13.9609 22.7341 14.2557 22.7341 14.6198C22.7341 14.984 22.4389 15.2787 22.0748 15.2787Z" fill="#FFB6A8"/>
<path d="M19.9519 17.4021C19.5882 17.4021 19.293 17.1074 19.293 16.7432V12.4968C19.293 12.1326 19.5882 11.8379 19.9519 11.8379C20.3156 11.8379 20.6108 12.1326 20.6108 12.4968V16.7432C20.6108 17.1074 20.3156 17.4021 19.9519 17.4021Z" fill="#FFB6A8"/>
<path d="M96.3116 67.9916H92.0652C91.7014 67.9916 91.4062 67.6969 91.4062 67.3327C91.4062 66.9686 91.7014 66.6738 92.0652 66.6738H96.3116C96.6753 66.6738 96.9705 66.9686 96.9705 67.3327C96.9705 67.6964 96.6757 67.9916 96.3116 67.9916Z" fill="#FFB6A8"/>
<path d="M94.1921 70.114C93.8284 70.114 93.5332 69.8193 93.5332 69.4551V65.2087C93.5332 64.8446 93.8284 64.5498 94.1921 64.5498C94.5558 64.5498 94.851 64.8446 94.851 65.2087V69.4551C94.851 69.8193 94.5558 70.114 94.1921 70.114Z" fill="#FFB6A8"/>
<path d="M295.741 52.0307H291.495C291.131 52.0307 290.836 51.7359 290.836 51.3718C290.836 51.0076 291.131 50.7129 291.495 50.7129H295.741C296.105 50.7129 296.4 51.0076 296.4 51.3718C296.4 51.7359 296.105 52.0307 295.741 52.0307Z" fill="#FFB6A8"/>
<path d="M293.616 54.1541C293.252 54.1541 292.957 53.8593 292.957 53.4952V49.2487C292.957 48.8846 293.252 48.5898 293.616 48.5898C293.98 48.5898 294.275 48.8846 294.275 49.2487V53.4952C294.275 53.8593 293.98 54.1541 293.616 54.1541Z" fill="#FFB6A8"/>
<path d="M59.4286 15.0457H57.0658L58.7367 13.3747C58.9941 13.1177 58.9941 12.7 58.7367 12.443C58.4798 12.1856 58.062 12.1856 57.805 12.443L56.1345 14.1135V11.7507C56.1345 11.3865 55.8393 11.0918 55.4756 11.0918C55.1114 11.0918 54.8167 11.3865 54.8167 11.7507V14.1135L53.1457 12.443C52.8887 12.1856 52.471 12.1856 52.214 12.443C51.9566 12.7004 51.9566 13.1177 52.214 13.3747L53.885 15.0457H51.5222C51.158 15.0457 50.8633 15.3404 50.8633 15.7046C50.8633 16.0687 51.158 16.3635 51.5222 16.3635H53.8846L52.214 18.034C51.9566 18.291 51.9566 18.7087 52.214 18.9657C52.3427 19.0944 52.5114 19.159 52.6801 19.159C52.8488 19.159 53.0175 19.0944 53.1462 18.9657L54.8171 17.2951V19.658C54.8171 20.0221 55.1119 20.3169 55.476 20.3169C55.8398 20.3169 56.1349 20.0221 56.1349 19.658V17.2951L57.8055 18.9657C57.9337 19.0944 58.1029 19.159 58.2715 19.159C58.4402 19.159 58.6089 19.0944 58.7376 18.9657C58.995 18.7087 58.995 18.291 58.7376 18.034L57.0671 16.3635H59.4299C59.7936 16.3635 60.0888 16.0687 60.0888 15.7046C60.0875 15.3408 59.7923 15.0457 59.4286 15.0457Z" fill="#F9BF55"/>
<path d="M244.065 165.257H241.702L243.373 163.586C243.631 163.329 243.631 162.911 243.373 162.654C243.116 162.397 242.699 162.397 242.442 162.654L240.771 164.325V161.963C240.771 161.598 240.476 161.304 240.112 161.304C239.748 161.304 239.453 161.598 239.453 161.963V164.325L237.782 162.654C237.525 162.397 237.108 162.397 236.851 162.654C236.593 162.912 236.593 163.329 236.851 163.586L238.522 165.257H236.159C235.795 165.257 235.5 165.552 235.5 165.916C235.5 166.28 235.795 166.575 236.159 166.575H238.521L236.851 168.245C236.593 168.502 236.593 168.92 236.851 169.177C236.979 169.306 237.148 169.37 237.317 169.37C237.485 169.37 237.654 169.306 237.782 169.177L239.453 167.507V169.869C239.453 170.234 239.748 170.528 240.112 170.528C240.476 170.528 240.771 170.234 240.771 169.869V167.507L242.442 169.177C242.57 169.306 242.739 169.37 242.907 169.37C243.076 169.37 243.245 169.306 243.373 169.177C243.631 168.92 243.631 168.502 243.373 168.245L241.703 166.575H244.066C244.429 166.575 244.725 166.28 244.725 165.916C244.724 165.552 244.429 165.257 244.065 165.257Z" fill="#F9BF55"/>
<path d="M98.5106 145.929H96.1478L97.8188 144.258C98.0762 144.002 98.0762 143.584 97.8188 143.327C97.5618 143.069 97.144 143.069 96.8871 143.327L95.2165 144.997V142.634C95.2165 142.27 94.9213 141.976 94.5576 141.976C94.1935 141.976 93.8987 142.27 93.8987 142.634V144.997L92.2278 143.327C91.9708 143.069 91.553 143.069 91.2961 143.327C91.0387 143.584 91.0387 144.002 91.2961 144.258L92.967 145.929H90.6042C90.2401 145.929 89.9453 146.224 89.9453 146.588C89.9453 146.953 90.2401 147.247 90.6042 147.247H92.9666L91.2961 148.918C91.0387 149.175 91.0387 149.593 91.2961 149.849C91.4248 149.978 91.5934 150.042 91.7621 150.042C91.9308 150.042 92.0995 149.978 92.2282 149.849L93.8992 148.179V150.542C93.8992 150.906 94.1939 151.201 94.5581 151.201C94.9218 151.201 95.217 150.906 95.217 150.542V148.179L96.8875 149.849C97.0162 149.978 97.1849 150.042 97.3536 150.042C97.5223 150.042 97.6909 149.978 97.8192 149.849C98.0766 149.592 98.0766 149.175 97.8192 148.918L96.1487 147.247H98.5115C98.8752 147.247 99.1704 146.953 99.1704 146.588C99.1695 146.224 98.8743 145.929 98.5106 145.929Z" fill="#F9BF55"/>
<path d="M208.401 15.9183H206.038L207.709 14.2473C207.967 13.9903 207.967 13.5726 207.709 13.3156C207.452 13.0582 207.035 13.0582 206.778 13.3156L205.107 14.9866V12.6237C205.107 12.2596 204.812 11.9648 204.448 11.9648C204.084 11.9648 203.789 12.2596 203.789 12.6237V14.9866L202.118 13.3156C201.861 13.0582 201.444 13.0582 201.187 13.3156C200.929 13.573 200.929 13.9903 201.187 14.2473L202.858 15.9183H200.495C200.131 15.9183 199.836 16.213 199.836 16.5772C199.836 16.9413 200.131 17.2361 200.495 17.2361H202.857L201.187 18.9066C200.929 19.1636 200.929 19.5813 201.187 19.8383C201.315 19.967 201.484 20.0311 201.652 20.0311C201.821 20.0311 201.99 19.9666 202.118 19.8383L203.789 18.1673V20.5301C203.789 20.8943 204.084 21.189 204.448 21.189C204.812 21.189 205.107 20.8943 205.107 20.5301V18.1673L206.778 19.8383C206.906 19.967 207.075 20.0311 207.244 20.0311C207.412 20.0311 207.581 19.9666 207.709 19.8383C207.967 19.5809 207.967 19.1636 207.709 18.9066L206.039 17.2361H208.402C208.765 17.2361 209.061 16.9413 209.061 16.5772C209.06 16.2134 208.765 15.9183 208.401 15.9183Z" fill="#F9BF55"/>
<path d="M289.581 84.9275H287.218L288.889 83.2565C289.146 82.9991 289.146 82.5818 288.889 82.3248C288.632 82.0674 288.214 82.0674 287.957 82.3248L286.287 83.9954V81.6325C286.287 81.2684 285.992 80.9736 285.628 80.9736C285.264 80.9736 284.969 81.2684 284.969 81.6325V83.9954L283.298 82.3248C283.041 82.0674 282.623 82.0674 282.366 82.3248C282.109 82.5818 282.109 82.9995 282.366 83.2565L284.037 84.9275H281.675C281.31 84.9275 281.016 85.2222 281.016 85.5864C281.016 85.9505 281.31 86.2453 281.675 86.2453H284.037L282.366 87.9158C282.109 88.1732 282.109 88.5906 282.366 88.8475C282.495 88.9762 282.664 89.0408 282.832 89.0408C283.001 89.0408 283.169 88.9767 283.298 88.8475L284.969 87.177V89.5398C284.969 89.904 285.264 90.1987 285.628 90.1987C285.992 90.1987 286.287 89.904 286.287 89.5398V87.177L287.957 88.8475C288.086 88.9762 288.255 89.0408 288.423 89.0408C288.592 89.0408 288.761 88.9767 288.889 88.8475C289.146 88.5906 289.146 88.1728 288.889 87.9158L287.219 86.2453H289.581C289.945 86.2453 290.24 85.9505 290.24 85.5864C290.24 85.2222 289.945 84.9275 289.581 84.9275Z" fill="#F9BF55"/>
<path d="M11.8934 102.477H9.5306L11.2016 100.806C11.459 100.549 11.459 100.132 11.2016 99.8746C10.9446 99.6172 10.5269 99.6172 10.2699 99.8746L8.59935 101.545V99.1823C8.59935 98.8182 8.30416 98.5234 7.94044 98.5234C7.57629 98.5234 7.28154 98.8182 7.28154 99.1823V101.545L5.61056 99.8746C5.35359 99.6172 4.93585 99.6172 4.67888 99.8746C4.42146 100.132 4.42146 100.549 4.67888 100.806L6.34985 102.477H3.98703C3.62287 102.477 3.32812 102.772 3.32812 103.136C3.32812 103.5 3.62287 103.795 3.98703 103.795H6.34942L4.67888 105.466C4.42146 105.723 4.42146 106.14 4.67888 106.397C4.80758 106.526 4.97626 106.59 5.14494 106.59C5.31362 106.59 5.4823 106.526 5.611 106.397L7.28198 104.727V107.09C7.28198 107.454 7.57673 107.749 7.94088 107.749C8.3046 107.749 8.59979 107.454 8.59979 107.09V104.727L10.2703 106.397C10.3986 106.526 10.5677 106.59 10.7359 106.59C10.9046 106.59 11.0733 106.526 11.202 106.397C11.4594 106.14 11.4594 105.723 11.202 105.466L9.53148 103.795H11.8943C12.258 103.795 12.5532 103.5 12.5532 103.136C12.5523 102.772 12.2571 102.477 11.8934 102.477Z" fill="#F9BF55"/>
</svg>
