<svg width="218" height="161" viewBox="0 0 218 161" fill="none" xmlns="http://www.w3.org/2000/svg">
<path d="M97.6 241.408C78.1334 233.003 61.2 221.6 46.8 207.2C32.4 192.8 21.0027 175.867 12.608 156.4C4.21336 136.933 0.0106869 116.133 2.02532e-05 94C-0.0106464 71.8666 4.19202 51.0666 12.608 31.6C21.024 12.1333 32.4214 -4.80004 46.8 -19.2C61.1787 -33.6 78.112 -44.9974 97.6 -53.392C117.088 -61.7867 137.888 -65.9894 160 -66C182.112 -66.0107 202.912 -61.808 222.4 -53.392C241.888 -44.976 258.821 -33.5787 273.2 -19.2C287.579 -4.82137 298.981 12.112 307.408 31.6C315.835 51.088 320.032 71.888 320 94C319.968 116.112 315.765 136.912 307.392 156.4C299.019 175.888 287.621 192.821 273.2 207.2C258.779 221.579 241.845 232.981 222.4 241.408C202.955 249.835 182.155 254.032 160 254C137.845 253.968 117.045 249.781 97.6 241.408ZM250.8 184.8C275.6 160 288 129.733 288 94C288 58.2666 275.6 28 250.8 3.19996C226 -21.6 195.733 -34 160 -34C124.267 -34 94 -21.6 69.2 3.19996C44.4 28 32 58.2666 32 94C32 129.733 44.4 160 69.2 184.8C94 209.6 124.267 222 160 222C195.733 222 226 209.6 250.8 184.8ZM92 162C73.3334 143.333 64 120.667 64 94C64 67.3333 73.3334 44.6666 92 26C110.667 7.3333 133.333 -2.00004 160 -2.00004C186.667 -2.00004 209.333 7.3333 228 26C246.667 44.6666 256 67.3333 256 94C256 120.667 246.667 143.333 228 162C209.333 180.667 186.667 190 160 190C133.333 190 110.667 180.667 92 162ZM205.2 139.2C217.733 126.667 224 111.6 224 94C224 76.3999 217.733 61.3333 205.2 48.8C192.667 36.2666 177.6 30 160 30C142.4 30 127.333 36.2666 114.8 48.8C102.267 61.3333 96 76.3999 96 94C96 111.6 102.267 126.667 114.8 139.2C127.333 151.733 142.4 158 160 158C177.6 158 192.667 151.733 205.2 139.2ZM137.408 116.608C131.136 110.336 128 102.8 128 94C128 85.2 131.136 77.6693 137.408 71.408C143.68 65.1466 151.211 62.0106 160 62C168.789 61.9893 176.325 65.1253 182.608 71.408C188.891 77.6906 192.021 85.2213 192 94C191.979 102.779 188.848 110.315 182.608 116.608C176.368 122.901 168.832 126.032 160 126C151.168 125.968 143.637 122.837 137.408 116.608Z" fill="#E6E9F8"/>
</svg>
