<svg width="250" height="161" viewBox="0 0 250 161" fill="none" xmlns="http://www.w3.org/2000/svg">
<g opacity="0.48">
<path d="M129.6 241.408C110.133 233.003 93.2 221.6 78.8 207.2C64.4 192.8 53.0027 175.867 44.608 156.4C36.2134 136.933 32.0107 116.133 32 94C31.9894 71.8666 36.192 51.0666 44.608 31.6C53.024 12.1333 64.4214 -4.80004 78.8 -19.2C93.1787 -33.6 110.112 -44.9974 129.6 -53.392C149.088 -61.7867 169.888 -65.9894 192 -66C214.112 -66.0107 234.912 -61.808 254.4 -53.392C273.888 -44.976 290.821 -33.5787 305.2 -19.2C319.579 -4.82137 330.981 12.112 339.408 31.6C347.835 51.088 352.032 71.888 352 94C351.968 116.112 347.765 136.912 339.392 156.4C331.019 175.888 319.621 192.821 305.2 207.2C290.779 221.579 273.845 232.981 254.4 241.408C234.955 249.835 214.155 254.032 192 254C169.845 253.968 149.045 249.781 129.6 241.408ZM282.8 184.8C307.6 160 320 129.733 320 94C320 58.2666 307.6 28 282.8 3.19996C258 -21.6 227.733 -34 192 -34C156.267 -34 126 -21.6 101.2 3.19996C76.4 28 64 58.2666 64 94C64 129.733 76.4 160 101.2 184.8C126 209.6 156.267 222 192 222C227.733 222 258 209.6 282.8 184.8ZM124 162C105.333 143.333 96 120.667 96 94C96 67.3333 105.333 44.6666 124 26C142.667 7.3333 165.333 -2.00004 192 -2.00004C218.667 -2.00004 241.333 7.3333 260 26C278.667 44.6666 288 67.3333 288 94C288 120.667 278.667 143.333 260 162C241.333 180.667 218.667 190 192 190C165.333 190 142.667 180.667 124 162ZM237.2 139.2C249.733 126.667 256 111.6 256 94C256 76.3999 249.733 61.3333 237.2 48.8C224.667 36.2666 209.6 30 192 30C174.4 30 159.333 36.2666 146.8 48.8C134.267 61.3333 128 76.3999 128 94C128 111.6 134.267 126.667 146.8 139.2C159.333 151.733 174.4 158 192 158C209.6 158 224.667 151.733 237.2 139.2ZM169.408 116.608C163.136 110.336 160 102.8 160 94C160 85.2 163.136 77.6693 169.408 71.408C175.68 65.1466 183.211 62.0106 192 62C200.789 61.9893 208.325 65.1253 214.608 71.408C220.891 77.6906 224.021 85.2213 224 94C223.979 102.779 220.848 110.315 214.608 116.608C208.368 122.901 200.832 126.032 192 126C183.168 125.968 175.637 122.837 169.408 116.608Z" fill="#E6E9F8"/>
</g>
</svg>
