<svg width="173" height="174" viewBox="0 0 173 174" fill="none" xmlns="http://www.w3.org/2000/svg">
<g clip-path="url(#clip0_1864_8461)">
<path d="M47.6563 294.425C91.8254 324.93 145.399 326.916 191.686 311.057C271.735 283.63 297.081 263.792 308.719 208.878C319.204 159.409 300.246 104.443 271.02 80.0288C241.795 55.616 168.428 59.6272 124.455 68.9282C80.4828 78.2293 18.4378 113.704 8.17309 159.013C-2.09268 204.323 18.2694 274.13 47.6563 294.425ZM58.5824 181.421C65.556 148.518 87.7504 124.815 135.714 108.381C163.448 98.8789 212.606 95.7436 235.567 115.77C251.695 129.836 269.086 185.841 261.021 212.481C249.57 250.306 206.475 266.11 180.127 271.685C153.78 277.258 108.385 283.225 86.8099 262.518C70.3483 246.72 52.301 211.063 58.5824 181.421Z" fill="#398B00"/>
<path d="M86.0824 287.323C77.5538 282.254 69.6507 275.302 61.4178 266.283C34.7606 237.086 22.7854 189.337 34.1548 157.579C45.0079 127.266 100.095 99.1655 134.473 87.6728C167.244 76.7157 228.58 74.1877 256.141 103.545C282.735 131.87 297.482 190.6 284.83 217.8C267.508 255.048 232.388 281.541 188.48 290.486C137.073 300.963 109.281 301.113 86.0824 287.323ZM241.453 95.9664C211.675 78.2621 163.19 81.4676 135.493 90.7272C101.71 102.022 47.6509 129.434 37.1857 158.667C27.5403 185.609 34.8552 232.418 63.7944 264.113C93.7945 296.974 118.143 301.532 187.837 287.333C230.734 278.592 265.022 252.755 281.909 216.444C294.114 190.201 279.659 133.304 253.793 105.751C250.229 101.951 246.062 98.7066 241.453 95.9664Z" fill="#F7E5DF"/>
<path d="M100.777 244.837C124.063 260.918 152.306 261.966 176.711 253.605C218.914 239.147 232.275 228.686 238.413 199.736C243.941 173.656 233.947 144.678 218.538 131.807C203.129 118.936 164.448 121.05 141.265 125.954C118.082 130.857 85.3722 149.56 79.9607 173.448C74.5485 197.334 85.2839 234.137 100.777 244.837ZM106.537 185.259C110.212 167.913 121.914 155.417 147.201 146.753C161.823 141.744 187.738 140.091 199.843 150.648C208.345 158.064 217.515 187.589 213.264 201.634C207.226 221.576 184.508 229.908 170.617 232.846C156.726 235.784 132.793 238.931 121.419 228.014C112.74 219.686 103.226 200.888 106.537 185.259Z" fill="#7AB154"/>
</g>
<defs>
<clipPath id="clip0_1864_8461">
<rect width="173" height="174" fill="white"/>
</clipPath>
</defs>
</svg>
