<svg width="124" height="134" viewBox="0 0 124 134" fill="none" xmlns="http://www.w3.org/2000/svg">
<path d="M112.89 129.566C119.022 123.382 137.793 110.423 132.825 88.9399C129.336 73.8509 110.765 69.9829 110.265 56.6589C109.765 43.3349 114.34 28.8839 120.396 18.9279C126.451 8.97091 122.299 4.1119 119.377 2.8489C105.413 -3.1871 100.553 0.0248957 93.6889 15.7879C86.8235 31.5509 78.8513 49.8569 66.3165 60.2189C53.7818 70.5809 33.1874 71.8249 20.7788 88.4739C8.37111 105.124 -0.272437 113.129 0.0065629 126.961C0.284642 140.793 27.3909 152.228 48.7321 165.057C70.0733 177.886 90.4035 186.462 103.133 174.334C115.864 162.206 106.759 135.75 112.89 129.566ZM109.288 116.673C101.873 116.597 103.615 106.134 103.285 89.7859C102.957 73.4389 105.8 72.0509 115.08 77.1769C119.175 79.4389 124.352 82.8049 123.916 95.6479C123.479 108.492 116.704 116.749 109.288 116.673Z" fill="#B0BBE8"/>
<mask id="mask0_705_10453" style="mask-type:luminance" maskUnits="userSpaceOnUse" x="0" y="0" width="134" height="181">
<path d="M112.89 129.566C119.022 123.382 137.793 110.423 132.825 88.9399C129.336 73.8509 110.765 69.9829 110.265 56.6589C109.765 43.3349 114.34 28.8839 120.396 18.9279C126.451 8.97091 122.299 4.1119 119.377 2.8489C105.413 -3.1871 100.553 0.0248957 93.6889 15.7879C86.8235 31.5509 78.8513 49.8569 66.3165 60.2189C53.7818 70.5809 33.1874 71.8249 20.7788 88.4739C8.37111 105.124 -0.272437 113.129 0.0065629 126.961C0.284642 140.793 27.3909 152.228 48.7321 165.057C70.0733 177.886 90.4035 186.462 103.133 174.334C115.864 162.206 106.759 135.75 112.89 129.566ZM109.288 116.673C101.873 116.597 103.615 106.134 103.285 89.7859C102.957 73.4389 105.8 72.0509 115.08 77.1769C119.175 79.4389 124.352 82.8049 123.916 95.6479C123.479 108.492 116.704 116.749 109.288 116.673Z" fill="white"/>
</mask>
<g mask="url(#mask0_705_10453)">
<path d="M125.54 197.634C125.445 197.634 125.349 197.613 125.257 197.569C121.587 195.785 119.565 194.719 118.089 193.942C114.544 192.076 114.089 191.836 100.574 186.878C91.5863 183.58 84.8535 178.985 77.7257 174.121C69.4956 168.504 60.9838 162.696 47.8671 157.927C30.7763 151.713 26.9164 149.2 20.5206 145.038C17.5667 143.115 14.2177 140.935 8.80901 137.869C2.60011 134.348 -1.44859 131.468 -4.70174 129.153C-10.5479 124.994 -13.7679 122.703 -22.5274 121.725C-22.9067 121.683 -23.183 121.314 -23.1443 120.903C-23.1047 120.491 -22.7594 120.186 -22.3874 120.233C-13.2918 121.248 -9.77356 123.751 -3.94495 127.898C-0.717569 130.195 3.29899 133.053 9.44711 136.539C14.8918 139.626 18.2591 141.817 21.2305 143.751C27.5453 147.861 31.3582 150.343 48.3054 156.505C61.5786 161.331 70.1604 167.188 78.4595 172.851C85.5165 177.667 92.1831 182.216 101.016 185.456C114.614 190.445 115.078 190.689 118.691 192.593C120.159 193.366 122.17 194.425 125.821 196.2C126.169 196.369 126.325 196.813 126.169 197.191C126.055 197.469 125.803 197.634 125.54 197.634Z" fill="#E6E9F8"/>
<path d="M139.299 166.039C139.204 166.039 139.108 166.018 139.016 165.974C135.346 164.19 133.324 163.124 131.848 162.347C128.303 160.481 127.848 160.241 114.333 155.282C105.346 151.984 98.6137 147.39 91.4849 142.525C83.2549 136.909 74.744 131.101 61.6273 126.332C44.5374 120.118 40.6775 117.605 34.2816 113.443C31.3268 111.52 27.9779 109.34 22.5683 106.273C16.3594 102.753 12.3107 99.873 9.05843 97.558C3.21232 93.398 -0.00767326 91.107 -8.76809 90.13C-9.14745 90.088 -9.42373 89.72 -9.38506 89.308C-9.34547 88.896 -8.99554 88.597 -8.62815 88.638C0.468355 89.652 3.98673 92.156 9.81534 96.303C13.0427 98.599 17.0592 101.457 23.2064 104.943C28.6529 108.031 32.0202 110.222 34.9916 112.156C41.3064 116.266 45.1185 118.747 62.0657 124.91C75.3389 129.736 83.9197 135.592 92.2188 141.255C99.2767 146.071 105.942 150.62 114.776 153.86C128.373 158.849 128.837 159.094 132.45 160.997C133.919 161.77 135.929 162.829 139.581 164.604C139.929 164.773 140.084 165.217 139.929 165.595C139.815 165.874 139.562 166.039 139.299 166.039Z" fill="#E6E9F8"/>
<path d="M132.1 182.568C132.01 182.568 131.919 182.549 131.83 182.508C128.117 180.795 126.098 179.708 124.625 178.913C121.051 176.987 120.678 176.786 106.549 173.337C97.0549 171.019 90.6683 165.541 83.906 159.742C76.1612 153.1 68.154 146.232 54.46 142.968C36.4604 138.677 32.7532 135.748 26.6115 130.896C23.7967 128.671 20.607 126.151 15.3088 122.875C9.18369 119.089 5.38637 115.591 2.33487 112.78C-3.05913 107.811 -6.02968 105.071 -15.8287 106.74C-16.198 106.801 -16.558 106.524 -16.6178 106.115C-16.6758 105.706 -16.4189 105.322 -16.0423 105.258C-5.62355 103.488 -2.28848 106.554 3.22891 111.637C6.23621 114.408 9.97839 117.855 15.9921 121.573C21.3575 124.889 24.7212 127.548 27.4247 129.683C33.4208 134.42 37.0386 137.28 54.7574 141.503C68.7599 144.841 76.895 151.817 84.7623 158.564C91.3975 164.254 97.6654 169.629 106.851 171.873C121.143 175.361 121.608 175.612 125.238 177.568C126.697 178.354 128.694 179.43 132.37 181.126C132.722 181.288 132.886 181.728 132.736 182.109C132.624 182.397 132.369 182.568 132.1 182.568Z" fill="#E6E9F8"/>
<path d="M153.549 204.038C153.449 204.038 153.345 204.014 153.248 203.963C148.419 201.411 145.7 200.033 143.714 199.027C138.866 196.568 138.244 196.253 121.497 186.268C110.54 179.734 100.76 175.495 90.4076 171.005C78.302 165.757 65.7839 160.329 49.4951 150.585C28.5692 138.065 23.061 135.6 13.935 131.516C9.66437 129.606 4.82558 127.44 -2.6669 123.792C-11.1695 119.652 -17.1426 117.138 -21.9427 115.117C-30.8017 111.386 -35.6819 109.332 -45.1191 101.972C-45.4285 101.73 -45.4994 101.262 -45.2775 100.925C-45.0546 100.589 -44.6237 100.513 -44.3134 100.753C-35.0189 108.001 -30.1967 110.031 -21.4428 113.718C-16.6279 115.744 -10.6382 118.267 -2.10242 122.422C5.37072 126.061 10.2002 128.222 14.4607 130.128C23.6318 134.232 29.1686 136.71 50.1617 149.27C66.3741 158.97 78.8517 164.38 90.9187 169.612C101.312 174.118 111.129 178.375 122.162 184.953C138.868 194.913 139.486 195.226 144.298 197.667C146.287 198.675 149.011 200.057 153.851 202.612C154.194 202.794 154.336 203.242 154.171 203.615C154.052 203.883 153.805 204.038 153.549 204.038Z" fill="#E6E9F8"/>
<path d="M143.846 178.252C143.745 178.252 143.642 178.228 143.544 178.176C139.415 175.988 137.087 174.811 135.389 173.95C131.232 171.846 130.698 171.575 116.396 162.924C107.052 157.272 98.6596 153.699 89.7758 149.917C79.3755 145.49 68.6206 140.912 54.7074 132.465C36.8532 121.625 32.1286 119.542 24.3019 116.09C20.6362 114.474 16.4817 112.642 10.0573 109.531C2.77382 106.005 -2.35502 103.891 -6.47741 102.194C-14.0997 99.0532 -18.2994 97.3232 -26.3186 90.8302C-26.6243 90.5822 -26.6869 90.1122 -26.4594 89.7802C-26.232 89.4492 -25.8002 89.3802 -25.4927 89.6272C-17.6291 95.9952 -13.4938 97.6992 -5.98655 100.792C-1.84851 102.496 3.30149 104.618 10.6209 108.162C17.0231 111.262 21.1658 113.088 24.8213 114.7C32.6987 118.174 37.4536 120.27 55.3815 131.156C69.2127 139.552 79.9215 144.112 90.2786 148.52C99.2075 152.321 107.641 155.912 117.068 161.613C131.327 170.238 131.856 170.507 135.972 172.591C137.675 173.453 140.009 174.635 144.15 176.828C144.493 177.01 144.635 177.458 144.468 177.831C144.348 178.097 144.102 178.252 143.846 178.252Z" fill="#E6E9F8"/>
<path d="M155.414 165.208C155.319 165.208 155.223 165.187 155.131 165.143C151.461 163.359 149.439 162.293 147.964 161.516C144.419 159.65 143.964 159.41 130.449 154.452C121.461 151.154 114.73 146.559 107.602 141.695C99.3716 136.079 90.8599 130.271 77.7423 125.502C60.6524 119.288 56.7924 116.775 50.3966 112.612C47.4418 110.689 44.0927 108.51 38.684 105.443C32.4751 101.922 28.4264 99.043 25.1742 96.728C19.328 92.568 16.1081 90.277 7.34763 89.3C6.96827 89.258 6.69199 88.89 6.73066 88.478C6.77026 88.066 7.11557 87.764 7.48757 87.808C16.5841 88.822 20.1015 91.326 25.9311 95.473C29.1584 97.769 33.1749 100.627 39.3221 104.113C44.7677 107.201 48.1351 109.392 51.1065 111.326C57.4213 115.436 61.2333 117.917 78.1805 124.08C91.4547 128.906 100.036 134.762 108.336 140.426C115.393 145.241 122.058 149.79 130.891 153.03C144.489 158.019 144.953 158.264 148.566 160.167C150.034 160.94 152.044 161.999 155.696 163.774C156.044 163.943 156.199 164.387 156.044 164.765C155.929 165.043 155.677 165.208 155.414 165.208Z" fill="#E6E9F8"/>
<path d="M169.175 133.614C169.08 133.614 168.985 133.593 168.893 133.548C165.221 131.763 163.198 130.698 161.722 129.92C158.177 128.054 157.722 127.814 144.209 122.857C135.221 119.559 128.488 114.964 121.36 110.1C113.13 104.483 104.619 98.675 91.5019 93.906C74.4111 87.692 70.551 85.1789 64.1552 81.0169C61.2013 79.0939 57.8524 76.9139 52.4437 73.8479C46.2348 70.3269 42.1861 67.4469 38.9329 65.1319C33.0868 60.9729 29.8668 58.682 21.1073 57.704C20.7279 57.662 20.4518 57.2929 20.4904 56.8819C20.53 56.4699 20.8798 56.167 21.2472 56.212C30.3428 57.227 33.8612 59.7299 39.6898 63.8769C42.9172 66.1739 46.9336 69.0319 53.0818 72.518C58.5264 75.6049 61.8937 77.796 64.8651 79.73C71.1799 83.84 74.993 86.322 91.9402 92.484C105.213 97.31 113.795 103.167 122.094 108.83C129.151 113.646 135.818 118.195 144.651 121.435C158.246 126.423 158.71 126.667 162.325 128.571C163.793 129.344 165.803 130.404 169.456 132.179C169.804 132.348 169.96 132.792 169.804 133.17C169.69 133.449 169.439 133.614 169.175 133.614Z" fill="#E6E9F8"/>
<path d="M161.976 150.142C161.886 150.142 161.794 150.123 161.706 150.082C157.991 148.369 155.973 147.282 154.5 146.488C150.926 144.562 150.553 144.361 136.425 140.911C126.93 138.594 120.543 133.116 113.781 127.317C106.037 120.675 98.0286 113.807 84.3355 110.544C66.3349 106.253 62.6278 103.324 56.4861 98.4707C53.6713 96.2467 50.4817 93.7267 45.1844 90.4507C39.0593 86.6647 35.2629 83.1667 32.2114 80.3557C26.8174 75.3857 23.8395 72.6477 14.0469 74.3157C13.6767 74.3787 13.3166 74.1007 13.2577 73.6907C13.1997 73.2817 13.4566 72.8977 13.8332 72.8337C24.2547 71.0617 27.588 74.1287 33.1045 79.2127C36.1127 81.9827 39.8539 85.4307 45.8676 89.1487C51.2321 92.4647 54.5958 95.1227 57.2992 97.2577C63.2954 101.996 66.9132 104.856 84.6329 109.079C98.6354 112.417 106.77 119.393 114.637 126.14C121.272 131.83 127.54 137.205 136.727 139.449C151.018 142.938 151.483 143.189 155.114 145.145C156.573 145.93 158.57 147.006 162.246 148.702C162.597 148.864 162.761 149.305 162.611 149.685C162.501 149.972 162.245 150.142 161.976 150.142Z" fill="#E6E9F8"/>
<path d="M183.424 171.612C183.324 171.612 183.22 171.588 183.123 171.537C178.294 168.986 175.576 167.608 173.59 166.602C168.741 164.144 168.118 163.829 151.372 153.843C140.414 147.309 130.635 143.07 120.282 138.581C108.177 133.332 95.6592 127.905 79.3703 118.161C58.4463 105.642 52.938 103.177 43.8112 99.0929C39.5414 97.1819 34.7008 95.0159 27.2084 91.3679C18.7067 87.2289 12.7335 84.7139 7.93433 82.6929C-0.925532 78.9629 -5.80573 76.9079 -15.2438 69.5469C-15.5542 69.3049 -15.6241 68.8369 -15.4022 68.4999C-15.1803 68.1639 -14.7494 68.0879 -14.4382 68.3279C-5.14276 75.5779 -0.320467 77.6079 8.4335 81.2939C13.2483 83.3209 19.238 85.8439 27.7728 89.9979C35.2469 93.6369 40.0765 95.7979 44.337 97.7049C53.509 101.809 59.0448 104.286 80.037 116.846C96.2494 126.546 108.727 131.955 120.794 137.187C131.187 141.693 141.004 145.95 152.036 152.528C168.742 162.489 169.36 162.802 174.173 165.243C176.162 166.251 178.887 167.632 183.726 170.187C184.069 170.369 184.212 170.817 184.046 171.19C183.927 171.457 183.681 171.612 183.424 171.612Z" fill="#E6E9F8"/>
<path d="M173.722 145.827C173.621 145.827 173.518 145.803 173.42 145.751C169.288 143.562 166.961 142.384 165.262 141.523C161.105 139.419 160.571 139.148 146.271 130.499C136.926 124.846 128.533 121.273 119.649 117.491C109.249 113.063 98.4952 108.486 84.5829 100.039C66.7287 89.1989 62.0042 87.1159 54.1774 83.6639C50.5118 82.0479 46.3572 80.2159 39.9328 77.1049C32.6512 73.5799 27.5214 71.4669 23.4008 69.7689C15.7767 66.6279 11.576 64.8979 3.5559 58.4039C3.2502 58.1559 3.18763 57.6859 3.41506 57.3539C3.64342 57.0229 4.0744 56.9539 4.38194 57.2009C12.2473 63.5699 16.3826 65.2739 23.8917 68.3669C28.0288 70.0709 33.1778 72.1929 40.4963 75.7359C46.8985 78.8359 51.0412 80.6619 54.6967 82.2739C62.5741 85.7479 67.329 87.8439 85.2569 98.7299C99.0872 107.127 109.796 111.685 120.152 116.094C129.081 119.895 137.516 123.486 146.944 129.188C161.199 137.811 161.729 138.079 165.845 140.164C167.549 141.027 169.883 142.209 174.026 144.403C174.368 144.585 174.51 145.033 174.343 145.406C174.224 145.673 173.978 145.827 173.722 145.827Z" fill="#E6E9F8"/>
<path d="M177.201 128.627C177.106 128.627 177.01 128.607 176.918 128.562C173.247 126.777 171.225 125.712 169.749 124.935C166.205 123.069 165.75 122.828 152.234 117.871C143.246 114.573 136.515 109.977 129.386 105.113C121.156 99.4975 112.645 93.6895 99.5282 88.9205C82.4383 82.7065 78.5783 80.1935 72.1825 76.0315C69.2277 74.1085 65.8788 71.9295 60.4692 68.8615C54.2612 65.3405 50.2124 62.4615 46.9602 60.1465C41.1141 55.9865 37.8941 53.6955 29.1328 52.7175C28.7534 52.6755 28.4771 52.3065 28.5158 51.8955C28.5554 51.4835 28.9017 51.1785 29.2727 51.2255C38.3692 52.2405 41.8876 54.7435 47.7171 58.8915C50.9445 61.1875 54.9601 64.0455 61.1073 67.5315C66.5538 70.6195 69.921 72.8105 72.8924 74.7445C79.2072 78.8545 83.0194 81.3355 99.9666 87.4985C113.24 92.3245 121.821 98.1805 130.12 103.843C137.178 108.66 143.843 113.209 152.676 116.449C166.274 121.438 166.738 121.682 170.351 123.586C171.819 124.359 173.829 125.417 177.482 127.192C177.83 127.361 177.985 127.805 177.83 128.183C177.716 128.462 177.465 128.627 177.201 128.627Z" fill="#E6E9F8"/>
<path d="M190.962 97.0337C190.867 97.0337 190.771 97.0127 190.679 96.9687C187.006 95.1827 184.983 94.1177 183.507 93.3397C179.962 91.4727 179.507 91.2327 165.996 86.2757C157.008 82.9777 150.275 78.3827 143.147 73.5187C134.917 67.9027 126.406 62.0947 113.289 57.3257C96.1983 51.1117 92.3382 48.5997 85.9433 44.4367C82.9885 42.5137 79.6387 40.3347 74.23 37.2677C68.022 33.7467 63.9733 30.8677 60.7201 28.5517C54.8749 24.3927 51.6549 22.1017 42.8945 21.1237C42.5151 21.0817 42.2389 20.7127 42.2775 20.3017C42.3171 19.8897 42.6671 19.5907 43.0344 19.6317C52.131 20.6467 55.6484 23.1497 61.477 27.2977C64.7044 29.5937 68.7209 32.4517 74.8681 35.9377C80.3137 39.0257 83.681 41.2167 86.6524 43.1507C92.9672 47.2607 96.7802 49.7417 113.727 55.9037C127 60.7297 135.581 66.5857 143.881 72.2487C150.938 77.0647 157.604 81.6137 166.438 84.8537C180.031 89.8417 180.496 90.0857 184.109 91.9897C185.578 92.7627 187.588 93.8227 191.242 95.5987C191.59 95.7677 191.746 96.2117 191.591 96.5897C191.476 96.8687 191.225 97.0337 190.962 97.0337Z" fill="#E6E9F8"/>
<path d="M183.762 113.562C183.672 113.562 183.581 113.544 183.493 113.503C179.779 111.79 177.76 110.703 176.286 109.909C172.713 107.983 172.339 107.782 158.211 104.332C148.716 102.015 142.329 96.5366 135.566 90.7366C127.822 84.0946 119.814 77.2276 106.122 73.9646C88.1205 69.6736 84.4144 66.7446 78.2727 61.8916C75.4578 59.6676 72.2682 57.1466 66.9699 53.8716C60.8448 50.0856 57.0475 46.5876 53.9969 43.7776C48.602 38.8076 45.6279 36.0696 35.8325 37.7376C35.4642 37.7976 35.1023 37.5226 35.0433 37.1126C34.9853 36.7036 35.2422 36.3196 35.6188 36.2556C46.0422 34.4846 49.3727 37.5516 54.89 42.6336C57.8973 45.4046 61.6395 48.8516 67.6532 52.5696C73.0187 55.8856 76.3822 58.5446 79.0848 60.6796C85.081 65.4176 88.6997 68.2776 106.419 72.5006C120.421 75.8386 128.555 82.8146 136.423 89.5616C143.058 95.2516 149.326 100.627 158.513 102.871C172.805 106.36 173.27 106.611 176.901 108.567C178.359 109.352 180.356 110.428 184.032 112.124C184.384 112.286 184.548 112.727 184.398 113.107C184.287 113.391 184.031 113.562 183.762 113.562Z" fill="#E6E9F8"/>
<path d="M205.21 135.032C205.11 135.032 205.006 135.008 204.909 134.957C200.078 132.404 197.359 131.026 195.375 130.019C190.525 127.561 189.903 127.246 173.16 117.262C162.202 110.728 152.422 106.489 142.07 102C129.965 96.7519 117.447 91.3239 101.158 81.5799C80.2313 69.0589 74.7222 66.5939 65.5953 62.5099C61.3265 60.5989 56.4867 58.4339 48.9961 54.7859C40.4935 50.6459 34.5204 48.1319 29.7203 46.1109C20.8613 42.3809 15.9802 40.3259 6.543 32.9659C6.23362 32.7239 6.16272 32.2559 6.38463 31.9189C6.60654 31.5829 7.03747 31.5069 7.3487 31.7469C16.6441 38.9959 21.4654 41.0259 30.2193 44.7119C35.0342 46.7379 41.0248 49.2619 49.5606 53.4159C57.0328 57.0539 61.8614 59.2149 66.1219 61.1219C75.293 65.2259 80.8298 67.7038 101.825 80.2649C118.037 89.9649 130.515 95.3739 142.582 100.607C152.975 105.113 162.791 109.369 173.824 115.947C190.527 125.906 191.145 126.219 195.957 128.66C197.947 129.668 200.671 131.05 205.513 133.606C205.856 133.788 205.999 134.236 205.833 134.609C205.713 134.877 205.467 135.032 205.21 135.032Z" fill="#E6E9F8"/>
<path d="M195.509 109.247C195.408 109.247 195.305 109.223 195.207 109.171C191.076 106.983 188.748 105.805 187.049 104.944C182.892 102.839 182.358 102.569 168.058 93.9198C158.712 88.2668 150.32 84.6938 141.436 80.9118C131.036 76.4848 120.282 71.9068 106.37 63.4598C88.5159 52.6208 83.7913 50.5368 75.9646 47.0858C72.2998 45.4688 68.1443 43.6368 61.72 40.5258C54.4383 37.0008 49.3085 34.8878 45.188 33.1898C37.5647 30.0478 33.3642 28.3188 25.3441 21.8248C25.0384 21.5768 24.9757 21.1068 25.2031 20.7748C25.4305 20.4438 25.8624 20.3748 26.17 20.6218C34.0354 26.9908 38.1707 28.6938 45.6788 31.7878C49.8159 33.4918 54.965 35.6138 62.2834 39.1568C68.6857 42.2568 72.8292 44.0838 76.4848 45.6948C84.3621 49.1688 89.1163 51.2648 107.045 62.1508C120.875 70.5468 131.583 75.1058 141.94 79.5148C150.869 83.3158 159.303 86.9068 168.731 92.6088C182.986 101.232 183.516 101.501 187.633 103.585C189.337 104.448 191.67 105.63 195.814 107.824C196.156 108.006 196.298 108.454 196.132 108.827C196.011 109.092 195.766 109.247 195.509 109.247Z" fill="#E6E9F8"/>
<path d="M179.783 82.1828C179.689 82.1828 179.593 82.1618 179.501 82.1178C175.83 80.3338 173.808 79.2678 172.333 78.4908C168.788 76.6248 168.333 76.3848 154.819 71.4268C145.831 68.1288 139.098 63.5338 131.97 58.6698C123.74 53.0528 115.228 47.2448 102.112 42.4758C85.0209 36.2618 81.161 33.7488 74.7652 29.5868C71.8113 27.6638 68.4624 25.4838 63.0536 22.4178C56.8447 18.8978 52.796 16.0168 49.5429 13.7018C43.6968 9.54279 40.4768 7.25178 31.7173 6.27378C31.3379 6.23178 31.0616 5.86279 31.1003 5.45179C31.1399 5.03979 31.4861 4.73677 31.8572 4.78177C40.9528 5.79677 44.4711 8.29978 50.2997 12.4468C53.5271 14.7438 57.5436 17.6018 63.6917 21.0878C69.1373 24.1758 72.5037 26.3668 75.4751 28.3008C81.7899 32.4098 85.6019 34.8918 102.55 41.0538C115.823 45.8798 124.405 51.7368 132.704 57.3998C139.761 62.2158 146.428 66.7648 155.261 70.0048C168.858 74.9938 169.322 75.2388 172.935 77.1418C174.404 77.9148 176.413 78.9738 180.065 80.7488C180.413 80.9178 180.569 81.3618 180.413 81.7398C180.299 82.0178 180.047 82.1828 179.783 82.1828Z" fill="#E6E9F8"/>
<path d="M193.543 50.5889C193.449 50.5889 193.353 50.5689 193.261 50.5239C189.589 48.7389 187.566 47.6739 186.09 46.8959C182.545 45.0299 182.089 44.7899 168.577 39.8329C159.589 36.5349 152.857 31.9399 145.729 27.0759C137.499 21.4599 128.988 15.6519 115.87 10.8829C98.7792 4.66787 94.9193 2.15588 88.5235 -2.00712C85.5687 -3.92912 82.2198 -6.10915 76.8119 -9.17515C70.603 -12.6961 66.5542 -15.5761 63.3011 -17.8911C57.455 -22.0511 54.2349 -24.3421 45.4755 -25.3191C45.0961 -25.3611 44.8199 -25.7291 44.8586 -26.1411C44.8982 -26.5531 45.2417 -26.8581 45.6155 -26.8111C54.7111 -25.7971 58.2294 -23.2931 64.058 -19.1461C67.2854 -16.8491 71.3019 -13.9911 77.45 -10.5051C82.8947 -7.41814 86.262 -5.22713 89.2325 -3.29313C95.5482 0.815868 99.3602 3.29787 116.308 9.46087C129.582 14.2869 138.163 20.1429 146.463 25.8069C153.52 30.6219 160.186 35.1709 169.019 38.4109C182.613 43.3989 183.078 43.6429 186.691 45.5469C188.16 46.3199 190.171 47.3799 193.824 49.1549C194.172 49.3239 194.328 49.7679 194.172 50.1459C194.059 50.4239 193.808 50.5889 193.543 50.5889Z" fill="#E6E9F8"/>
<path d="M186.345 67.1178C186.255 67.1178 186.163 67.0988 186.075 67.0578C182.361 65.3448 180.341 64.2568 178.868 63.4628C175.294 61.5368 174.922 61.3358 160.794 57.8868C151.299 55.5698 144.912 50.0908 138.15 44.2918C130.405 37.6498 122.398 30.7818 108.705 27.5188C90.7031 23.2278 86.9959 20.2978 80.8543 15.4458C78.0403 13.2218 74.8498 10.7018 69.5534 7.42579C63.4283 3.63979 59.631 0.141792 56.5795 -2.66921C51.1864 -7.63821 48.215 -10.3782 38.4159 -8.70922C38.0439 -8.64922 37.6858 -8.92422 37.6268 -9.33422C37.5688 -9.74322 37.8257 -10.1272 38.2023 -10.1912C48.622 -11.9622 51.9562 -8.89521 57.4735 -3.81221C60.4808 -1.04121 64.223 2.40579 70.2367 6.12379C75.6012 9.43979 78.9648 12.0978 81.6674 14.2328C87.6636 18.9698 91.2814 21.8308 109.002 26.0538C123.005 29.3918 131.139 36.3678 139.005 43.1148C145.641 48.8058 151.909 54.1808 161.096 56.4248C175.387 59.9128 175.852 60.1638 179.482 62.1198C180.941 62.9058 182.938 63.9818 186.615 65.6778C186.966 65.8398 187.13 66.2808 186.98 66.6608C186.869 66.9468 186.614 67.1178 186.345 67.1178Z" fill="#E6E9F8"/>
<path d="M207.794 88.5877C207.693 88.5877 207.589 88.5638 207.493 88.5128C202.661 85.9608 199.943 84.5817 197.958 83.5768C193.108 81.1178 192.486 80.8028 175.742 70.8188C164.785 64.2848 155.005 60.0458 144.652 55.5558C132.548 50.3078 120.03 44.8797 103.741 35.1357C82.8157 22.6167 77.3075 20.1518 68.1806 16.0678C63.9109 14.1568 59.0712 11.9907 51.5787 8.34275C43.0761 4.20275 37.103 1.68876 32.3029 -0.332242C23.4439 -4.06224 18.5637 -6.11723 9.1265 -13.4772C8.81711 -13.7192 8.74621 -14.1873 8.96813 -14.5243C9.19004 -14.8613 9.62188 -14.9373 9.93219 -14.6963C19.2267 -7.44826 24.0489 -5.41826 32.8028 -1.73126C37.6177 0.294741 43.6074 2.81775 52.1432 6.97275C59.6172 10.6118 64.4458 12.7727 68.7063 14.6787C77.8783 18.7837 83.4142 21.2617 104.407 33.8207C120.62 43.5207 133.097 48.9308 145.164 54.1628C155.557 58.6687 165.374 62.9258 176.407 69.5038C193.11 79.4628 193.729 79.7758 198.542 82.2168C200.531 83.2248 203.255 84.6068 208.097 87.1628C208.439 87.3447 208.582 87.7927 208.416 88.1657C208.297 88.4317 208.05 88.5877 207.794 88.5877Z" fill="#E6E9F8"/>
<path d="M198.091 62.802C197.99 62.802 197.887 62.778 197.789 62.726C193.659 60.538 191.332 59.361 189.634 58.5C185.476 56.396 184.942 56.125 170.64 47.474C161.296 41.822 152.904 38.249 144.02 34.468C133.62 30.04 122.865 25.462 108.952 17.015C91.0979 6.17499 86.3733 4.09199 78.5465 0.639994C74.8809 -0.976006 70.7263 -2.808 64.3019 -5.919C57.0184 -9.445 51.8896 -11.559 47.7672 -13.257C40.1449 -16.398 35.9452 -18.127 27.926 -24.62C27.6203 -24.868 27.5577 -25.338 27.7852 -25.67C28.0126 -26.001 28.4444 -26.07 28.7519 -25.823C36.6164 -19.455 40.7509 -17.752 48.2581 -14.659C52.3961 -12.954 57.5461 -10.833 64.8655 -7.28798C71.2678 -4.18898 75.4104 -2.36199 79.0659 -0.74999C86.9442 2.72401 91.6982 4.82 109.627 15.706C123.458 24.103 134.167 28.662 144.525 33.071C153.453 36.872 161.887 40.462 171.314 46.163C185.572 54.788 186.102 55.057 190.218 57.141C191.921 58.003 194.254 59.185 198.396 61.378C198.738 61.56 198.88 62.008 198.714 62.381C198.593 62.646 198.347 62.802 198.091 62.802Z" fill="#E6E9F8"/>
</g>
</svg>
