<svg width="101" height="108" viewBox="0 0 101 108" fill="none" xmlns="http://www.w3.org/2000/svg">
<path d="M13.2516 1.39222C-9.56443 10.3572 1.72057 32.1282 12.7216 41.8622C23.7226 51.5962 1.83457 64.3982 0.566573 85.1612C-0.701427 105.924 24.0276 139.227 25.6266 121.827C27.2246 104.427 27.9246 102.533 34.6946 108.609C41.4646 114.685 44.5586 112.973 42.1106 96.3782C39.6626 79.7832 37.2346 56.7932 53.5516 80.0022C69.8686 103.211 84.6346 131.754 100.717 141.791C116.799 151.827 114.01 132.982 106.79 122.144C99.5696 111.306 105.853 110.856 115.917 116.718C125.954 122.564 134.315 120.895 128.702 113.238C123.088 105.581 109.912 98.1852 112.003 93.3372C114.094 88.4892 121.429 95.6012 128.258 94.1722C135.087 92.7432 132.162 81.6752 86.8996 65.6272C50.9226 52.8712 42.4096 40.8562 63.4596 43.4862C79.3016 45.4662 86.9766 47.2312 85.0756 42.0672C83.2336 37.0632 78.5606 36.2882 76.1526 31.3782C73.7436 26.4672 82.1676 27.7182 93.3656 29.6912C104.435 31.6422 118.491 29.7172 91.2066 12.8052C68.6356 -1.18577 55.8486 7.86622 42.6576 19.3812C29.4656 30.8962 17.0486 24.3912 21.7876 15.8512C26.5266 7.31122 34.6276 12.6532 36.9306 14.2192C39.2336 15.7842 40.5646 10.0462 36.1496 5.14722C31.4166 -0.106779 20.1046 -1.30078 13.2516 1.39222Z" fill="#B0BBE8"/>
</svg>
