<svg width="117" height="112" viewBox="0 0 117 112" fill="none" xmlns="http://www.w3.org/2000/svg">
<path d="M42.1173 61.1904C40.691 36.3164 49.8713 21.3924 60.7146 15.6904C71.5569 9.98837 83.5217 11.4144 86.8872 11.1794C92.9211 10.7564 84.7482 2.05238 72.8847 0.477385C61.0212 -1.09762 44.249 0.909377 29.4325 11.2694C14.616 21.6294 2.57116 44.0924 0.381515 67.6814C-1.80905 91.2704 5.07202 117.631 30.4564 130.854C52.0923 142.124 76.3855 144.688 93.6458 131.751C119.123 112.656 123.945 84.5714 124.13 80.3454C124.572 70.1704 120.287 75.6384 112.726 80.3454C104.038 85.7534 94.9321 91.6064 80.1838 92.6204C65.4355 93.6344 54.1402 84.2494 49.0574 79.3324C43.9746 74.4154 42.4866 67.6344 42.1173 61.1904Z" fill="#CEB0FA"/>
<mask id="mask0_705_10435" style="mask-type:luminance" maskUnits="userSpaceOnUse" x="0" y="0" width="125" height="141">
<path d="M42.1173 61.1904C40.691 36.3164 49.8713 21.3924 60.7146 15.6904C71.5569 9.98837 83.5217 11.4144 86.8872 11.1794C92.9211 10.7564 84.7482 2.05238 72.8847 0.477385C61.0212 -1.09762 44.249 0.909377 29.4325 11.2694C14.616 21.6294 2.57116 44.0924 0.381515 67.6814C-1.80905 91.2704 5.07202 117.631 30.4564 130.854C52.0923 142.124 76.3855 144.688 93.6458 131.751C119.123 112.656 123.945 84.5714 124.13 80.3454C124.572 70.1704 120.287 75.6384 112.726 80.3454C104.038 85.7534 94.9321 91.6064 80.1838 92.6204C65.4355 93.6344 54.1402 84.2494 49.0574 79.3324C43.9746 74.4154 42.4866 67.6344 42.1173 61.1904Z" fill="white"/>
</mask>
<g mask="url(#mask0_705_10435)">
<path d="M93.8052 138.824C93.7749 138.824 93.7436 138.822 93.7114 138.817C93.3339 138.761 93.0686 138.383 93.1192 137.973C94.285 128.607 96.7868 121.549 99.6661 116.275C95.0253 118.334 90.2474 120.129 85.5301 121.903C83.6757 122.599 81.8359 123.291 80.0247 123.991C75.3766 125.79 64.3804 129.667 62.6742 126.813C61.8142 125.374 63.3252 123.372 64.537 121.989C68.431 117.547 72.6685 113.363 77.2181 109.46C69.5544 112.365 61.6632 115.385 53.6422 118.78C49.2435 120.641 39.7161 123.983 35.1536 123.355C34.1223 123.21 33.7696 122.643 33.6554 122.192C33.2429 120.563 35.463 117.902 41.5743 112.702L42.042 112.304C46.8302 108.191 51.7619 104.266 56.8254 100.535C50.1201 102.806 43.2915 104.995 36.1683 107.277C32.591 108.424 28.9345 109.594 25.1768 110.814C20.2027 112.426 13.9505 113.917 12.4165 111.854C12.0564 111.37 11.7784 110.496 12.4948 109.082C14.7682 104.593 21.3076 97.9192 29.9889 91.2282C36.1084 86.5102 41.95 82.2222 47.5926 78.3132C45.716 78.7482 43.8376 79.1712 41.9583 79.5852L39.7594 80.0712C31.9704 81.8032 21.3076 84.1752 17.9431 82.9872C17.4044 82.7972 17.0536 82.3902 16.956 81.8422C16.5849 79.7612 20.4725 76.2002 20.5121 76.1642C28.1657 69.2132 36.2392 62.6862 44.6617 56.6292C17.2552 66.7342 -10.9026 74.6982 -39.5576 80.4332C-39.8836 80.5012 -40.1994 80.3072 -40.3228 79.9772C-40.4462 79.6472 -40.3384 79.2682 -40.065 79.0712C-30.6011 72.2462 -20.5626 66.3152 -10.2682 60.9172C-14.0038 61.7692 -17.7496 62.5692 -21.511 63.3192C-27.1693 64.4482 -33.1213 65.3432 -38.2731 62.8802C-38.5217 62.7612 -38.682 62.4952 -38.6847 62.2002C-38.7142 58.5372 -36.2078 55.6262 -33.4924 53.0252C-23.9198 43.8532 -15.8777 38.5352 -6.78483 33.5392C-2.92303 29.7122 1.48573 26.4642 6.31712 23.9142C6.66058 23.7332 7.07406 23.8892 7.24072 24.2612C7.40739 24.6342 7.2637 25.0822 6.92117 25.2642C4.01791 26.7962 1.27026 28.5872 -1.29139 30.6092C0.571377 29.6372 2.49401 28.6532 4.49397 27.6282C7.81343 25.9272 11.2471 24.1672 15.003 22.1692C21.1115 18.9212 37.3819 12.7452 47.273 13.0842C47.7887 13.1042 49.3531 13.1622 49.8052 14.4252C50.3135 15.8452 49.1238 17.8782 45.5613 21.6782C35.614 32.2892 22.6234 40.8662 3.43875 49.4882C2.15332 50.0652 0.98761 50.6782 -0.139439 51.2712C-3.6053 53.0942 -6.59328 54.6692 -11.0205 54.1712C-14.0821 53.8262 -16.0793 52.6492 -16.7966 50.7652C-17.5931 48.6712 -16.5535 46.4762 -15.56 44.7972C-13.9403 42.0652 -12.1024 39.4882 -10.072 37.0942C-17.5378 41.4602 -24.5174 46.4292 -32.578 54.1522C-34.915 56.3912 -37.0835 58.8512 -37.287 61.7042C-32.5863 63.7502 -27.045 62.8982 -21.7597 61.8462C-16.0563 60.7082 -10.3842 59.4532 -4.74435 58.0812C6.7149 52.3142 18.4155 47.1202 29.9272 42.0092C51.82 32.2892 74.4585 22.2392 98.4746 17.9332C98.8052 17.8722 99.1375 18.0872 99.2434 18.4402C99.3493 18.7922 99.203 19.1752 98.8992 19.3422C66.304 37.2752 31.6619 50.7522 -4.29593 59.5102C-15.3611 65.0822 -26.1942 71.1912 -36.392 78.2652C-7.14117 72.2222 21.5728 63.8492 49.4876 53.2392C70.5258 38.7772 93.5815 27.2002 117.542 19.1642C117.829 19.0702 118.139 19.1832 118.312 19.4502C118.484 19.7162 118.479 20.0722 118.297 20.3322C115.114 24.9172 110.128 27.6922 104.868 30.3612C87.0209 39.4172 68.7349 47.5062 50.0916 54.5982C40.0191 61.5312 30.4161 69.1262 21.3988 77.3172C19.6171 78.9352 18.1889 81.0382 18.3114 81.5602C21.385 82.6272 32.2743 80.2062 39.4822 78.6042L41.6848 78.1162C44.7989 77.4322 47.9112 76.7182 51.017 75.9732C61.8888 68.6332 72.0562 62.7002 82.0965 57.8072C90.2068 53.8552 99.9064 49.6002 110.351 48.0002L110.834 47.9232C113.047 47.5692 115.13 47.3022 116.398 47.7262C123.792 45.3632 131.004 43.3862 137.813 41.6592C140.122 41.0732 142.722 40.6942 144.514 42.3272C144.685 42.4832 144.777 42.7202 144.758 42.9622C144.74 43.2042 144.616 43.4222 144.423 43.5462C135.624 49.2212 125.922 53.3222 116.749 56.9082C114.02 57.9742 111.282 59.0172 108.531 60.0372C92.9471 74.1462 65.3491 90.2952 43.9112 99.3792C42.4619 99.9962 40.4417 100.656 39.6462 99.3342C38.1563 96.8532 43.89 90.5242 44.5493 89.8112C49.633 84.3062 55.1412 79.4062 60.9339 75.0302C57.8087 75.8452 54.6808 76.6302 51.5464 77.3842C44.9342 81.8562 38.0587 86.8522 30.7881 92.4552C22.269 99.0212 15.8823 105.509 13.7046 109.809C13.5776 110.059 13.3041 110.666 13.491 110.916C14.1245 111.769 18.2064 111.514 24.7818 109.381C28.5414 108.161 32.1997 106.989 35.777 105.843C44.5199 103.041 52.8217 100.381 60.991 97.5342C74.046 88.3212 87.9371 80.3742 102.498 73.8022C102.661 73.7292 119.108 67.0272 120.283 69.3672C120.74 70.2772 119.665 71.0862 119.148 71.4742C116.278 73.6332 109.7 78.0292 103.341 81.2892C88.7805 88.7512 75.3627 94.0972 61.5886 98.9022C55.1458 103.457 48.9084 108.321 42.8975 113.483L42.426 113.886C35.5808 119.711 34.9326 121.349 34.986 121.788C34.9842 121.773 35.0845 121.836 35.3294 121.87C39.3119 122.43 48.1588 119.494 53.1403 117.385C61.9597 113.652 70.6124 110.376 78.9796 107.208C79.5735 106.983 80.1647 106.759 80.7567 106.535C95.1284 95.0552 112.339 86.2252 131.492 80.6002C131.698 80.5392 131.917 80.5852 132.088 80.7242C132.59 81.1352 132.844 81.7212 132.804 82.3742C132.723 83.6492 131.54 84.9272 130.474 85.5742C114.773 95.1062 98.5428 101.384 81.4087 107.876C75.6335 112.505 70.3233 117.567 65.5388 123.026C63.4928 125.36 63.8316 125.992 63.8353 125.999C64.5462 127.192 71.605 125.659 79.5625 122.581C81.3783 121.879 83.2217 121.185 85.079 120.487C90.3938 118.489 95.785 116.464 100.959 114.065C104.161 108.931 107.638 105.784 110.186 103.963C114.311 101.017 118.747 99.6522 121.476 100.484C121.715 100.556 121.9 100.762 121.959 101.023C122.019 101.285 121.946 101.561 121.767 101.748C116.075 107.669 109.185 111.852 101.875 115.271C98.6643 120.541 95.7619 127.93 94.4866 138.176C94.4415 138.55 94.145 138.824 93.8052 138.824ZM119.715 101.745C117.588 101.745 114.407 102.744 110.947 105.215C108.861 106.704 106.131 109.121 103.463 112.863C109.397 109.919 114.975 106.394 119.739 101.745C119.73 101.745 119.723 101.745 119.715 101.745ZM131.422 82.1712C114.313 87.2472 98.7831 94.9032 85.485 104.735C100.899 98.8502 115.589 92.8902 129.799 84.2632C130.645 83.7492 131.39 82.8362 131.425 82.2702C131.428 82.2362 131.427 82.2042 131.422 82.1712ZM64.804 74.0002C57.9423 78.8852 51.4415 84.4642 45.5254 90.8702C41.8753 94.8232 40.4914 97.9912 40.8036 98.5112C40.8072 98.5162 41.2142 98.9092 43.4103 97.9802C63.4919 89.4702 88.9858 74.7582 104.773 61.4112C91.6451 66.1562 78.2862 70.3642 64.804 74.0002ZM118.245 70.3252C115.286 70.7542 107.342 73.2362 103.03 75.1822C90.2299 80.9602 77.9511 87.8042 66.3076 95.6432C78.2586 91.3142 90.0761 86.4252 102.753 79.9272C108.95 76.7512 115.353 72.4862 118.245 70.3252ZM111.539 49.3272C111.377 49.3512 111.21 49.3772 111.037 49.4052L110.544 49.4822C100.271 51.0562 90.6856 55.2642 82.6628 59.1732C73.7467 63.5182 64.7266 68.6902 55.1937 74.9492C58.2148 74.1962 61.2332 73.4152 64.2432 72.6042C79.1076 62.0602 95.6137 54.7462 111.539 49.3272ZM116.254 49.3352C100.374 54.4462 83.7069 61.3562 68.5452 71.4272C81.8184 67.7272 94.9627 63.4722 107.869 58.6952C111.127 55.7232 113.835 52.8472 115.817 50.1562C116.155 49.6962 116.235 49.4402 116.254 49.3352ZM117.599 48.9052C117.746 49.5232 117.511 50.2572 116.896 51.0932C115.413 53.1072 113.531 55.2222 111.321 57.4032C112.979 56.7752 114.632 56.1392 116.282 55.4942C125.033 52.0732 134.265 48.1832 142.691 42.9072C141.392 42.4212 139.689 42.7212 138.128 43.1182C131.594 44.7752 124.682 46.6642 117.599 48.9052ZM93.9774 20.3362C71.8536 25.0162 50.8282 34.3502 30.452 43.3972C21.048 47.5722 11.5178 51.8042 2.09993 56.3562C33.9851 48.0302 64.781 35.9612 93.9774 20.3362ZM-5.99291 34.7882C-9.21476 38.0042 -12.0425 41.6362 -14.397 45.6092C-15.2091 46.9802 -16.071 48.7402 -15.5185 50.1922C-14.8731 51.8872 -12.6383 52.4802 -10.8768 52.6782C-6.84466 53.1342 -4.15137 51.7152 -0.73983 49.9202C0.405636 49.3182 1.58886 48.6952 2.91203 48.1002C21.9255 39.5562 34.7807 31.0772 44.5963 20.6072C48.4784 16.4662 48.634 15.2842 48.5208 14.9672C48.4756 14.8412 48.1524 14.6172 47.2289 14.5832C37.5771 14.2122 21.617 20.3232 15.6144 23.5162C11.8493 25.5192 8.41103 27.2812 5.08604 28.9842C1.13677 31.0082 -2.50679 32.8762 -5.99291 34.7882ZM115.611 21.3922C94.6653 28.6372 74.4475 38.5972 55.713 50.8282C72.2127 44.3322 88.4224 37.0492 104.285 29.0002C108.558 26.8322 112.64 24.5982 115.611 21.3922Z" fill="#B78AF7"/>
</g>
</svg>
