<svg width="172" height="106" viewBox="0 0 172 106" fill="none" xmlns="http://www.w3.org/2000/svg">
<path d="M147.783 167.39C145.571 167.39 143.418 166.138 142.23 163.897C132.397 145.359 128.304 128.064 130.029 112.394C128.238 111.725 126.413 111.013 124.556 110.255C109.574 104.143 98.1796 94.5845 91.0754 82.6955C88.4881 83.1405 85.7901 83.5325 82.9702 83.8655C74.3027 84.8925 66.464 85.1755 59.3946 84.8535C52.0028 94.8975 37.1058 106.192 7.37389 107.099C3.84607 107.212 0.885168 104.163 0.787173 100.297C0.688262 96.4335 3.47792 93.2125 7.01673 93.1055C22.2975 92.6395 34.5103 89.0565 42.8142 82.7705C13.1043 76.3245 1.92922 57.1425 0.268798 43.7375C-1.68469 27.9675 7.17883 14.6995 21.346 12.1895C35.7458 9.63647 49.8332 16.1645 59.031 29.6475C67.3386 41.8265 69.9094 57.4275 66.159 70.9445C70.9699 70.9155 76.1096 70.5955 81.5882 69.9475C82.8337 69.7995 84.0536 69.6395 85.2452 69.4695C82.896 61.6705 82.0892 53.2135 82.9601 44.3135C85.2021 21.4075 98.3005 2.95848 114.104 0.446477C126.432 -1.51652 137.843 3.06948 144.635 12.7045C151.173 21.9795 152.398 34.3695 147.912 45.8485C144.111 55.5735 133.622 71.2375 104.858 79.5635C109.915 86.2015 117.566 92.4595 129.043 97.1415C130.44 97.7115 131.821 98.2545 133.181 98.7695C137.096 88.0805 144.17 79.0665 153.639 72.8755C172.822 60.3325 195.574 62.7235 204.349 78.2095C210.289 88.6895 210.129 99.8785 203.921 108.139C195.719 119.055 175.597 125.944 142.49 116.508C141.869 126.953 144.5 140.242 153.325 156.879C155.1 160.224 154.054 164.507 150.99 166.445C149.979 167.086 148.873 167.39 147.783 167.39ZM145.506 102.871C171.309 110.205 188.378 106.753 194.008 99.2605C197.396 94.7515 195.573 89.3305 193.446 85.5785C188.597 77.0205 172.762 76.6915 160.226 84.8885C156.593 87.2635 149.567 92.8985 145.506 102.871ZM27.3997 25.6555C26.0735 25.6555 24.7373 25.7725 23.3984 26.0095C15.0239 27.4935 12.1289 35.0405 12.9743 41.8605C14.5751 54.7825 27.6287 67.1025 52.7456 70.2025C56.8925 60.2525 55.3512 47.6915 48.7479 38.0105C43.3399 30.0845 35.5699 25.6555 27.3997 25.6555ZM119.749 13.9925C118.517 13.9925 117.249 14.0935 115.951 14.3005C106.178 15.8545 97.2857 29.6915 95.7086 45.8025C95.2388 50.6015 95.1912 58.4835 98.1164 66.9635C125.4 60.0645 133.701 46.5415 136.118 40.3535C138.8 33.4955 138.2 26.5295 134.474 21.2445C131.154 16.5355 125.912 13.9925 119.749 13.9925Z" fill="#FCEDBF"/>
</svg>
