<svg width="373" height="413" viewBox="0 0 373 413" fill="none" xmlns="http://www.w3.org/2000/svg">
<path d="M130.372 -223.745C135.73 -218.045 142.75 -207.289 144.967 -201.497C148.2 -192.855 148.847 -186.327 147.369 -176.582C145.152 -162.148 142.843 -158.839 135.637 -159.942C130.649 -160.769 126.307 -163.068 113.19 -171.801C100.811 -180.076 97.1165 -181.731 83.7219 -184.856C61.2746 -190.097 54.9006 -189.821 41.8756 -183.477C24.6937 -175.019 8.25078 -153.23 1.41495 -129.695C-6.34463 -103.033 -6.62175 -72.3269 0.491195 -25.8074C4.00148 -2.45571 0.58357 17.8621 -8.83878 29.446C-11.9796 33.2154 -12.9033 35.146 -12.9033 37.6283V40.938L-10.0397 39.2831C-1.72583 34.5025 5.4795 23.6541 8.98978 10.5072C11.0221 2.87656 11.2068 -19.188 9.35929 -32.7026C8.5279 -38.2187 7.97365 -49.9865 7.97365 -60.2833C7.97365 -75.6366 8.25078 -79.5899 10.0983 -87.7721C13.7933 -104.596 19.7978 -119.398 27.0955 -130.155C31.6219 -136.682 40.5824 -145.6 46.2173 -149.001C57.8567 -156.08 78.5489 -160.034 92.9595 -157.919C99.8877 -156.908 115.315 -151.484 124.644 -146.795C137.669 -140.176 149.401 -146.335 154.482 -162.608C156.237 -168.124 156.607 -171.25 156.607 -181.639C156.607 -200.853 152.819 -211.702 142.658 -221.906C137.023 -227.515 136.838 -227.607 131.757 -227.607H126.677L130.372 -223.745Z" fill="#347E00" fill-opacity="0.02"/>
<path d="M153.374 -227.239C153.374 -226.964 154.852 -224.389 156.607 -221.447C158.362 -218.506 161.133 -212.805 162.796 -208.76C166.676 -199.015 166.768 -191.293 163.165 -174.836C160.025 -160.77 160.209 -154.059 163.904 -142.475C167.877 -130.063 172.68 -123.904 198.545 -98.4373C211.386 -85.8422 223.949 -72.7873 226.535 -69.4776C239.099 -53.2049 241.87 -37.4839 234.664 -22.9581C231.524 -16.5226 226.813 -12.0177 211.478 -0.341858C194.389 12.5292 179.146 25.584 175.359 30.5486C170.648 36.8922 163.997 49.2115 161.965 55.6471C160.764 59.2326 160.394 63.4616 160.487 70.7245C160.671 92.2375 170.094 112.188 185.428 123.312C196.513 131.402 199.1 132.322 223.949 136.918C244.456 140.78 252.031 143.078 265.333 149.973C291.845 163.672 305.794 183.07 305.794 206.422C305.794 218.006 301.822 226.832 292.677 235.749C278.451 249.632 269.952 250.919 259.144 241.174C251.846 234.462 251.2 232.44 247.135 203.388C245.565 191.804 243.44 185.92 237.066 174.796C222.194 148.594 192.449 131.77 169.539 136.459C163.627 137.654 153.096 142.526 148.108 146.388C139.517 152.823 131.203 170.383 128.432 187.483C125.661 205.135 125.291 213.869 127.139 223.338C130.002 238.783 130.095 239.794 128.986 243.104C128.063 246.138 127.693 246.322 123.444 246.598C120.672 246.782 114.76 245.862 107.74 244.115C100.904 242.369 94.0681 241.265 90.3731 241.265C87.0476 241.265 83.0754 240.806 81.4126 240.254C75.8701 238.324 78.0871 234.83 91.3892 224.257C102.659 215.431 108.664 208.444 116.793 195.022C124.275 182.61 129.356 169.556 133.975 151.168C139.702 127.817 140.626 113.659 139.148 66.5874C138.409 43.6035 138.409 41.8567 140.256 34.7776C142.935 24.1131 147.184 14.5518 152.819 6.27753C155.498 2.23236 160.856 -5.67413 164.643 -11.2822C179.701 -33.5307 185.336 -55.8711 180.717 -74.9937C178.592 -83.8195 170.648 -100.46 165.013 -107.815C147.646 -130.615 110.788 -146.244 82.244 -143.026C55.1778 -139.992 35.7789 -122.616 25.3404 -92.2776C20.2597 -77.476 19.4283 -70.3969 18.5045 -31.7839C18.0427 -13.8564 17.2113 6.64526 16.7494 13.7243C14.7171 41.3051 7.32703 56.9342 -6.99125 63.9213C-12.2567 66.4955 -12.9033 67.139 -12.9033 69.5294C-12.9033 72.1036 -12.7186 72.1955 -9.85491 71.6439C-1.07919 69.8971 8.52792 62.8181 14.7171 53.7164C22.4767 42.1325 25.248 29.997 27.2803 -0.525726C29.8668 -39.5984 33.3771 -59.4566 40.0282 -72.6953C46.125 -84.9228 60.7204 -100.736 70.3275 -105.608C90.835 -115.905 121.134 -110.665 137.947 -93.8406C146.722 -85.1067 149.309 -76.1889 148.478 -56.7904C147.831 -41.2533 146.076 -33.8984 138.039 -13.1209C127.508 14.0001 126.585 23.8373 130.834 61.9906C133.697 87.9165 133.975 108.05 131.758 127.725C128.894 153.375 124.46 167.809 113.929 186.38C103.952 204.123 95.0843 213.869 77.5328 226.372C67.3715 233.543 64.6002 237.68 66.5401 242.736C68.1105 246.69 71.436 247.425 88.2485 247.885C101.273 248.253 104.969 248.712 109.864 250.367C120.765 254.136 124.46 257.262 134.806 271.512C145.152 285.67 147.554 287.693 150.695 284.843C152.45 283.28 152.635 282.361 152.265 276.385C151.803 270.409 151.157 268.57 145.983 258.457C142.843 252.298 138.593 244.115 136.654 240.346C131.758 230.785 128.986 217.086 129.818 206.33C131.85 181.599 141.827 156.225 152.542 148.41C160.671 142.618 176.745 139.768 187.645 142.343C201.04 145.376 209.815 150.893 218.129 161.097C224.226 168.636 229.03 177.83 231.986 187.943C233.741 193.919 234.11 197.964 234.572 218.282C235.126 240.99 235.219 241.909 237.528 246.782C240.577 253.309 244.826 258.09 250.276 261.307C254.063 263.514 255.449 263.79 263.301 263.79C271.43 263.79 272.539 263.514 279.005 260.48C288.243 256.067 296.002 249.54 303.392 239.703C322.791 214.052 326.024 191.528 313.923 167.257C307.734 154.938 295.725 142.251 283.162 134.712C270.784 127.265 253.694 123.404 224.041 121.381C212.679 120.554 202.518 119.359 199.562 118.531C189.4 115.497 180.994 108.326 176.652 98.8569C171.479 87.8246 173.234 69.0697 180.624 53.9922C187.368 40.3857 197.345 30.4566 221.27 13.5405C250.461 -7.05316 263.948 -20.7516 270.322 -36.2888C276.973 -52.7453 274.201 -67.7308 262.285 -80.1421C255.449 -87.2212 246.119 -93.5648 224.503 -106.252C203.072 -118.755 196.144 -123.628 188.938 -131.167C182.287 -138.154 178.13 -145.6 175.821 -154.334C174.62 -159.115 174.528 -162.425 175.174 -174.284C175.544 -182.099 175.913 -192.855 175.913 -198.188C175.821 -208.852 174.528 -213.449 168.893 -222.643L165.937 -227.607H159.655C156.237 -227.607 153.374 -227.423 153.374 -227.239Z" fill="#347E00" fill-opacity="0.02"/>
<path d="M177.462 -223.284C180.973 -217.768 183.651 -208.942 183.929 -202.599C184.021 -199.932 183.744 -189.176 183.374 -178.787C182.728 -160.952 182.82 -159.389 184.668 -153.413C189.194 -138.519 199.448 -128.682 226.329 -113.605C243.419 -104.043 253.303 -96.8724 263.834 -86.4836C272.702 -77.7497 274.642 -75.2675 278.059 -68.2803C281.477 -61.4771 282.124 -59.2706 282.494 -53.1109C282.863 -46.9512 282.494 -44.9286 279.999 -37.3899C278.429 -32.7012 276.027 -26.9092 274.642 -24.6108C273.348 -22.2205 266.513 -14.6818 259.584 -7.87852C237.322 14.0022 232.149 20.6216 237.322 20.6216C238.246 20.6216 244.897 15.3812 252.102 8.8538C269.099 -6.22367 275.565 -11.2801 283.048 -15.1414C289.052 -18.1753 289.237 -18.2673 298.659 -17.8076C305.68 -17.4398 309.652 -16.7044 314.178 -14.9576C320.368 -12.6592 322.03 -11.6479 344.57 2.41829C359.258 11.6119 365.077 14.1861 370.897 14.1861C374.407 14.1861 375.701 13.7264 377.918 11.5199C380.966 8.39412 381.243 6.00379 378.841 0.855383C376.347 -4.7527 371.821 -7.51077 350.574 -16.6124C327.388 -26.5415 318.612 -31.3221 310.761 -38.4931C302.447 -46.1238 298.105 -53.1109 294.225 -65.7061C285.634 -93.103 280.369 -105.147 272.332 -115.811C269.838 -119.121 263.187 -125.74 257.46 -130.521C240.001 -145.139 233.812 -152.585 229.1 -164.629C227.253 -169.318 226.883 -171.708 226.883 -181.178C226.976 -202.874 232.426 -215.378 246.19 -225.491L248.961 -227.605L236.121 -227.329L223.188 -227.145L220.14 -218.595C216.63 -208.666 213.396 -193.865 213.396 -187.429C213.396 -171.34 225.405 -150.655 248.037 -127.579C259.954 -115.351 261.339 -113.513 261.432 -109.743C261.432 -107.629 261.062 -107.169 259.215 -107.169C256.536 -107.169 239.631 -115.627 232.611 -120.5C214.228 -133.371 206.006 -141.002 201.48 -149.368C195.753 -160.124 195.568 -160.952 194.921 -185.774C194.367 -207.379 194.182 -209.126 191.965 -214.918C190.672 -218.32 188.547 -222.641 187.162 -224.387C184.852 -227.329 184.298 -227.605 179.679 -227.605H174.599L177.462 -223.284Z" fill="#347E00" fill-opacity="0.02"/>
<path d="M253.6 -222.824C248.519 -217.216 241.037 -202.231 238.912 -193.497C236.048 -181.729 237.526 -168.766 243.069 -156.906C245.563 -151.666 248.519 -148.264 265.978 -131.072C292.86 -104.411 298.31 -96.4127 302.005 -78.0255C305.33 -61.3851 309.025 -54.2141 319.279 -44.7447C325.561 -38.8608 330.364 -36.1028 345.884 -29.4834C361.033 -23.0479 366.299 -19.5543 377.014 -8.61397C382.926 -2.73008 388.284 1.95865 390.409 2.78607C398.076 6.00382 405.651 2.41832 420.801 -11.5559C426.435 -16.7043 433.641 -22.956 436.966 -25.4382C460.984 -43.7334 490.452 -43.8254 506.987 -25.806C510.682 -21.7608 512.53 -18.3592 519.181 -3.5575C522.599 4.07317 533.499 8.30222 538.857 4.07317C541.998 1.5909 542.183 -2.91395 539.411 -15.2333C536.363 -28.7479 536.64 -38.4931 540.335 -49.2496C545.323 -63.8674 553.083 -76.5545 566.016 -91.1723C575.992 -102.572 579.503 -107.997 582.459 -116.639C589.017 -136.221 580.426 -152.769 561.305 -157.458C555.854 -158.745 554.007 -158.837 548.557 -157.918C536.178 -155.803 527.218 -150.287 501.168 -128.774C474.563 -106.893 464.864 -101.285 446.851 -97.424C437.89 -95.5852 420.062 -95.5852 410.639 -97.5159C384.035 -102.94 361.587 -124.085 352.996 -151.758C350.04 -161.044 349.301 -180.258 351.426 -190.831C353.274 -199.473 357.431 -210.873 362.511 -220.986L365.837 -227.605H360.664H355.583L351.149 -218.228C343.112 -201.128 340.803 -192.026 340.803 -176.856C340.71 -150.471 347.454 -128.406 361.033 -110.387C371.656 -96.3207 382.926 -87.4949 397.06 -82.2545C404.819 -79.4045 405.651 -79.2207 419.415 -79.2207C435.95 -79.1287 445.188 -80.5997 464.679 -86.2078C486.203 -92.4594 496.918 -98.5272 514.562 -114.524C532.114 -130.429 543.845 -132.451 551.975 -121.051C554.469 -117.466 554.746 -116.455 554.746 -110.111C554.746 -103.676 554.469 -102.48 551.328 -96.9643C549.48 -93.6546 544.677 -86.5755 540.705 -81.3352C536.732 -76.0948 531.282 -68.1884 528.603 -63.7754C522.784 -54.1222 518.719 -50.6286 511.976 -49.0657C506.618 -47.9625 507.819 -47.6867 489.159 -53.1109C481.584 -55.2254 466.804 -55.6851 459.044 -53.8464C446.943 -51.0883 430.223 -41.435 418.399 -30.4028C398.353 -11.7398 394.566 -10.8204 380.617 -21.3011C372.95 -27.0011 366.853 -30.3108 356.969 -33.9883C343.944 -38.8608 335.815 -45.0205 326.854 -56.6045C321.496 -63.5916 318.448 -69.7513 313.182 -84.1852C309.303 -94.8497 302.282 -108.916 297.386 -115.995C292.398 -123.166 285.285 -130.153 274.939 -137.784C253.046 -154.148 244.732 -168.582 246.025 -188.073C246.764 -199.748 251.752 -210.505 261.359 -221.445C263.946 -224.387 266.071 -226.961 266.071 -227.237C266.071 -227.421 264.223 -227.605 262.006 -227.605C258.219 -227.605 257.572 -227.237 253.6 -222.824Z" fill="#347E00" fill-opacity="0.02"/>
<path d="M376.459 -221.172C374.704 -217.678 372.117 -211.151 370.731 -206.738C368.514 -199.383 368.237 -197.269 368.237 -183.478C368.237 -170.791 368.607 -167.114 370.177 -161.23C374.704 -145.233 382.648 -130.891 392.625 -120.962C399.46 -114.159 405.003 -110.389 412.67 -107.447C417.936 -105.333 420.43 -104.965 428.189 -104.965C447.773 -104.873 463.292 -112.78 488.695 -135.764C526.569 -170.147 541.534 -178.789 561.672 -177.778C568.416 -177.502 570.356 -176.951 575.344 -174.285C578.577 -172.63 582.642 -169.504 584.489 -167.481C591.972 -158.931 596.406 -144.405 595.574 -131.534C594.558 -116.365 588.092 -102.575 574.697 -86.9456C549.941 -57.9858 544.398 -46.7696 545.229 -27.4631C545.599 -19.2808 546.061 -17.3502 548.647 -12.1098C551.788 -5.76627 557.331 -0.158187 563.335 2.78376C568.508 5.4499 581.164 5.17409 586.429 2.41602C594.835 -1.9969 600.932 -10.9147 603.703 -22.7744C604.35 -25.9921 605.643 -36.8406 606.475 -46.9535C609.523 -84.8311 612.849 -95.4956 626.89 -111.125C643.887 -129.972 646.75 -134.476 648.69 -145.601C650.723 -157.552 646.196 -171.435 637.975 -178.606C635.85 -180.444 630.03 -183.846 624.95 -186.328C611.371 -192.672 607.86 -196.901 610.909 -203.244C613.957 -209.496 626.335 -212.53 643.24 -211.059C654.787 -210.048 662.085 -209.22 664.948 -208.669C666.981 -208.301 666.981 -208.393 666.981 -217.954V-227.607H649.891C636.959 -227.607 631.97 -227.24 629.476 -226.228C627.721 -225.493 621.439 -223.654 615.527 -222.091C601.117 -218.414 597.699 -215.104 597.699 -205.359C597.699 -198.188 600.84 -192.488 609.153 -184.398C625.135 -168.86 631.324 -159.023 631.324 -148.91C631.324 -141.923 628.645 -136.315 620.7 -126.478C599.085 -99.8166 594.373 -89.5198 588.923 -57.3423C585.782 -38.4954 584.674 -34.1744 581.164 -27.4631C577.746 -20.6599 569.986 -16.0631 565.09 -17.9018C560.102 -19.8324 558.347 -29.3938 561.118 -39.7825C562.781 -45.9422 570.356 -60.8358 577.561 -72.1439C595.205 -99.8166 607.491 -122.065 610.17 -131.443C611.371 -135.58 611.648 -139.165 611.371 -146.152C610.539 -161.965 605.181 -173.549 592.988 -185.317C569.617 -208.025 542.735 -209.496 513.175 -189.73C505.693 -184.673 498.118 -178.146 481.675 -162.333C458.396 -139.809 448.604 -133.557 432.808 -131.075C422.092 -129.328 412.762 -132.362 404.356 -140.084C390.223 -153.231 383.572 -172.354 384.588 -196.349C385.05 -206.83 387.544 -219.885 390.223 -226.044C390.869 -227.423 390.408 -227.607 385.327 -227.607H379.692L376.459 -221.172Z" fill="#347E00" fill-opacity="0.02"/>
<path d="M80.2117 -85.5652C68.2028 -81.1523 59.3347 -69.2925 52.776 -49.1586C46.4021 -29.3924 42.9842 -12.844 37.4416 24.8497C32.4533 58.9579 28.0193 73.2999 19.4283 82.5854C13.5162 88.929 9.17455 90.6757 -2.83433 91.2274L-12.9033 91.687V98.858C-12.9033 102.903 -12.8109 106.121 -12.6262 106.121C-12.5338 106.121 -10.4092 105.477 -8.00739 104.742C-0.524934 102.535 4.55575 104.19 18.5045 113.476C22.8462 116.326 27.7421 119.176 29.4973 119.819C36.5178 122.118 43.1689 120.463 47.5106 115.223C53.2379 108.419 55.7321 98.858 57.7643 74.8628C59.7966 50.9595 61.5518 37.9046 64.1383 27.7916C67.6486 14.0013 72.6369 6.09479 78.6413 4.62381C82.0592 3.88834 86.8628 7.28995 89.3569 12.3464C93.9757 21.4481 94.0681 26.4126 91.0197 78.908C89.4493 106.581 87.6942 117.061 82.5211 130.944C74.7615 151.537 54.0693 187.3 41.6909 201.275C30.421 213.962 26.1717 222.052 18.5969 244.944C8.25079 276.202 6.21852 299.37 11.2068 328.606C14.9019 350.394 20.5368 362.714 31.899 374.206C43.0765 385.514 53.8845 390.203 68.9418 390.203C88.0637 390.203 99.2412 384.595 105.985 371.632C109.218 365.38 109.31 356.462 106.446 345.43C103.952 336.328 103.952 332.099 106.169 327.043C108.202 322.63 110.326 321.251 115.13 321.251C120.58 321.251 125.938 324.56 136.746 334.765C152.727 349.751 159.747 353.244 171.017 352.233C178.777 351.59 185.613 347.912 193.742 340.281C198.545 335.777 201.317 332.099 203.441 327.778C206.305 322.078 206.49 321.251 206.49 311.138C206.49 302.404 206.12 299.462 204.273 294.13C200.67 283.649 194.204 271.054 186.167 259.286C176.375 244.852 172.772 238.141 168.8 227.476C160.856 206.147 160.671 189.323 168.246 182.979C178.407 174.429 195.959 184.726 201.409 202.47C203.718 209.825 203.718 213.594 201.501 228.212C198.73 246.323 198.268 256.252 199.839 263.883C202.887 278.225 208.43 284.66 225.242 293.486C238.175 300.381 243.348 304.978 243.348 309.667C243.348 313.896 242.239 315.091 226.166 326.859C209.538 339.178 203.718 345.338 198.268 356.094C192.633 367.494 190.878 375.861 191.525 388.732C192.541 409.509 198.361 420.725 218.868 441.871L225.704 449.042H240.484H255.264L254.802 443.066C253.971 433.137 251.015 428.448 235.126 412.267C227.367 404.453 220.254 396.362 219.145 394.248C214.711 385.606 214.249 367.954 218.037 357.657C220.254 351.957 226.073 345.981 231.062 344.419C232.817 343.867 237.898 342.764 242.332 341.936C254.525 339.73 259.883 337.431 265.518 332.007C274.294 323.365 275.772 312.609 269.86 300.657C264.964 290.728 256.742 286.223 235.681 282.178C221.27 279.328 215.358 276.11 212.494 269.399C208.522 260.297 209.169 253.678 215.82 237.038C220.438 225.27 223.579 212.307 223.579 204.952C223.579 198.241 221.27 188.495 218.037 181.692C214.526 174.153 204.088 163.673 196.605 160.087C179.885 152.089 163.258 153.56 154.297 163.673C146.538 172.591 142.843 186.197 143.489 203.573C144.321 223.615 146.538 228.212 176.283 270.226C186.629 284.752 190.416 292.843 190.971 300.841C191.34 305.989 191.063 307.644 189.215 311.138C188.015 313.436 185.613 316.194 183.858 317.389C180.902 319.412 179.978 319.596 171.387 319.136C153.374 318.401 142.935 312.425 118.363 288.705C100.904 271.881 92.4977 265.262 85.2 262.504C75.5929 258.826 66.2629 260.757 62.2908 267.284C60.9975 269.491 60.5356 271.881 60.628 277.122C60.628 287.786 63.2145 294.038 75.3158 312.517C87.0475 330.536 91.4816 340.833 91.4816 350.394C91.4816 367.127 74.9463 367.954 58.8728 352.049C52.1294 345.43 43.8156 333.478 40.2129 325.48C33.9313 311.322 30.6982 292.659 32.3609 279.144C34.0237 264.894 41.4138 242.278 47.7877 232.073C49.5429 229.223 58.0415 220.121 67.0019 211.387C86.7704 191.989 93.1443 182.887 102.197 160.547C110.511 140.137 112.543 120.463 109.403 91.3193C108.109 79.8273 107.647 68.795 107.647 52.3385C107.74 27.6997 107.74 27.8836 114.114 -3.74234C122.058 -42.907 120.211 -65.0635 107.925 -78.3023C100.719 -86.1168 89.7264 -89.0588 80.2117 -85.5652Z" fill="#347E00" fill-opacity="0.02"/>
<path d="M466.08 -30.4969C454.902 -27.7389 445.11 -21.6711 430.053 -7.78879C412.317 8.39191 396.982 17.9532 382.849 21.5387C365.575 25.9516 353.196 22.0903 333.52 6.36932C328.162 2.04834 320.68 -3.00813 316.985 -4.93878C310.703 -8.06461 309.41 -8.34041 302.667 -8.34041C295.738 -8.34041 294.63 -8.06461 287.055 -4.38718C282.436 -2.18071 273.661 3.51932 267.194 8.48384C236.248 31.9275 233.477 33.7662 210.014 46.7291C194.217 55.463 187.012 64.9324 187.197 76.7002C187.289 86.3535 193.571 96.0987 202.531 100.695C210.753 104.833 217.127 105.66 241.144 105.384C261.375 105.2 264.608 105.384 271.166 107.039C290.288 111.912 298.694 119.083 316.893 145.56C328.994 163.396 331.488 166.154 338.601 169.647C345.16 172.865 342.481 172.681 366.683 170.842C370.748 170.475 375.459 170.475 377.214 170.842C382.11 171.762 388.391 177.922 394.581 188.034C402.155 200.262 406.589 203.756 412.594 202.285C415.827 201.457 417.952 196.125 419.799 184.449C422.201 169.188 426.081 160.546 432.732 155.397C434.395 154.202 442.247 150.065 450.191 146.204C462.939 140.044 465.433 138.481 470.975 133.057C479.197 124.967 482.522 118.255 482.984 109.245C483.446 101.063 481.968 97.3858 473.747 87.1809C465.987 77.4357 463.585 71.8276 463.124 62.4502C462.754 56.1066 463.031 54.5437 464.879 50.9582C468.389 44.1549 473.1 41.8566 487.326 39.834C499.52 38.1791 504.508 35.0533 509.034 26.0436C516.424 11.6097 513.376 -5.67427 501.09 -18.913C495.086 -25.2566 490.005 -28.4743 482.615 -30.405C476.333 -32.0598 472.453 -32.0598 466.08 -30.4969ZM458.597 6.92093C461.923 9.58708 463.77 13.3564 463.77 17.8613C463.77 22.8258 462.939 24.2049 454.717 33.3985C445.48 43.7872 443.078 49.0275 443.632 57.7614C444.094 64.3808 445.664 68.9776 454.163 87.7325C457.119 94.3519 457.673 96.7422 458.043 103.454C458.689 117.244 454.625 122.944 436.242 134.528C429.037 139.033 421 145.1 415.273 150.341C405.666 159.075 400.677 162.109 395.781 162.201C394.211 162.201 389.038 160.913 384.327 159.442C377.861 157.328 373.057 156.409 364.466 155.765C355.229 155.121 352.365 154.57 348.577 152.639C341.926 149.33 334.536 142.25 324.005 129.104C310.334 112.187 301.189 103.454 292.782 99.4084C280.589 93.4325 277.725 92.9729 249.92 92.6971C228.396 92.5132 224.055 92.2374 218.235 90.6745C210.845 88.6519 207.704 86.9051 205.487 83.5954C204.194 81.5728 204.194 81.1131 205.58 78.1712C208.259 72.655 219.806 62.634 229.597 57.3937C234.493 54.7276 243.361 49.2114 249.273 45.0743C272.922 28.6178 282.436 24.2968 294.999 24.2968C304.699 24.2968 311.073 27.1468 331.95 40.6614C354.951 55.555 365.482 59.6921 378.6 59.0485C395.966 58.0372 408.714 49.6711 425.527 27.9742C433.656 17.4936 439.198 11.7016 444.741 7.56448C449.267 4.34674 454.902 4.07092 458.597 6.92093Z" fill="#347E00" fill-opacity="0.02"/>
<path d="M443.799 23.8397C440.935 26.6897 436.501 36.1591 431.883 49.1221C428.834 57.5802 428.372 60.2463 427.726 70.8189C427.356 77.3464 426.617 83.6899 425.97 84.7012C422.83 90.5851 418.211 91.3206 416.086 86.3561C414.331 82.0351 414.423 77.4383 416.733 67.0495C418.58 58.8673 418.58 58.1318 417.195 56.0173C414.793 52.4318 411.19 53.0753 399.643 59.1431C382.738 68.0608 370.914 70.727 360.291 68.0608C352.439 66.0383 347.174 63.0044 337.474 55.006C328.514 47.4672 317.706 41.6753 308.56 39.3769C292.579 35.3317 273.55 41.3995 254.798 56.385C243.805 65.1189 239.278 70.727 239.278 75.4157C239.278 79.277 242.511 80.8399 249.809 80.748C256.645 80.5641 262.465 78.9093 279.739 72.3818C301.725 64.1995 315.396 61.7173 325.28 64.2915C332.301 66.0383 335.349 68.5205 335.349 72.5657C335.349 75.5996 334.241 77.5302 328.329 84.5173C317.798 97.0206 317.336 106.766 326.574 120.924C337.289 137.38 358.074 146.942 383.385 147.034C394.101 147.034 395.302 146.85 400.013 144.551C403.246 142.897 407.957 139.127 413.13 133.979C419.135 127.911 423.292 124.693 430.127 120.832C442.044 114.121 443.891 111.73 443.891 102.537C443.891 96.0093 443.614 94.9061 438.811 84.977C430.589 67.785 431.144 60.4302 441.767 44.2495C450.358 31.2865 452.482 25.4026 449.711 22.6446C448.048 20.9897 446.386 21.2655 443.799 23.8397ZM320.107 52.9834C324.726 54.0866 329.992 57.1205 335.904 61.9931C344.033 68.7044 353.825 72.8415 365.649 74.5883C377.288 76.2431 380.706 75.6915 392.53 70.727C399.643 67.6931 403.431 68.1528 406.849 72.198C408.696 74.4044 409.25 76.0593 409.25 79.5528C409.25 84.6093 411.929 90.769 414.701 92.3319C417.287 93.619 421.259 93.5271 425.878 91.8722C429.481 90.5851 430.127 90.5851 431.975 91.8722C437.61 95.5496 436.871 101.617 429.758 108.145C425.139 112.466 406.479 123.866 398.073 127.635C390.129 131.129 383.662 132.14 372.947 131.68C360.938 131.129 355.765 128.922 347.081 120.556C336.088 109.984 333.502 100.514 337.936 86.448C340.615 77.9899 340.615 70.5431 337.936 66.5899C333.964 60.7979 323.802 57.3963 310.223 57.3963C299.138 57.3963 290.547 59.235 277.153 64.5673C263.943 69.8076 259.878 70.635 258.308 68.1528C256.83 65.8544 259.232 61.9011 263.296 59.9705C268.931 57.2124 284.173 53.6269 295.813 52.4318C307.267 51.1447 313.272 51.3285 320.107 52.9834Z" fill="#347E00" fill-opacity="0.02"/>
<path d="M639.074 41.674C634.64 42.5934 627.342 46.3627 622.631 50.1321C620.599 51.7869 614.133 58.4063 608.405 64.8418C591.87 83.137 580.323 89.5725 564.342 89.5725C553.627 89.5725 551.502 88.5612 526.838 71.3692C509.471 59.3257 492.566 57.2111 482.59 65.8531C478.617 69.3466 478.34 72.9322 481.851 75.6902C483.975 77.3451 485.638 77.6209 492.751 77.6209C506.884 77.6209 511.596 80.0112 516.491 89.6645C519.355 95.3645 519.817 98.6742 518.154 101.616C517.692 102.627 512.519 105.661 506.7 108.419C493.028 114.947 491.735 116.786 490.626 131.955C489.056 153.468 484.16 158.249 458.849 163.581C444.9 166.523 435.755 173.326 433.168 182.703C432.337 185.829 432.429 188.128 433.815 195.299C434.739 200.079 435.57 207.158 435.755 210.928C436.124 217.455 435.94 218.283 432.337 225.638C428.18 234.004 427.626 237.589 429.843 241.818C432.152 246.231 440.281 253.126 446.932 256.252C452.013 258.642 454.23 259.194 459.588 259.194C471.597 259.194 476.216 254.046 479.911 236.302C483.329 220.581 486.1 214.421 493.028 207.71C499.679 201.183 507.254 199.344 515.475 202.194C517.6 202.929 523.512 206.239 528.593 209.641C542.819 218.834 544.943 219.57 559.816 219.294C572.009 219.202 572.379 219.202 578.014 221.96C584.757 225.27 589.838 230.878 591.685 237.038C594.18 245.036 590.946 249.265 579.492 252.942C574.319 254.505 571.086 256.068 569.885 257.631C567.668 260.481 567.668 261.952 569.977 265.63C572.009 268.939 578.106 272.433 590.207 277.122C603.602 282.454 611.177 290.36 612.193 300.381C612.655 304.794 612.285 305.806 608.036 313.896C602.309 324.652 601.662 327.043 600.553 341.477C599.353 356.186 597.597 361.978 593.071 366.483C590.023 369.517 589.007 369.977 585.311 369.977C578.106 369.977 574.319 367.311 556.583 349.383C538.385 330.996 534.967 328.606 525.452 327.87C517.877 327.319 513.72 329.617 500.695 342.028C487.947 354.164 480.65 359.128 471.782 361.886C459.865 365.472 449.334 362.806 440.836 354.072C438.803 351.957 434.092 345.89 430.49 340.557C422.545 329.157 418.296 324.468 413.677 322.078C409.89 320.148 402.869 319.78 395.664 321.251C384.486 323.457 379.96 322.906 375.249 318.952C368.967 313.712 364.256 297.899 365.365 285.855C366.196 276.57 370.076 266.089 379.868 246.323C388.92 228.028 391.045 221.5 390.953 212.399C390.768 198.333 378.297 185.829 363.148 184.542C352.894 183.623 342.548 189.966 335.989 200.999C332.571 206.607 329.892 213.686 324.719 230.694C322.872 236.762 319.639 245.22 317.606 249.541C314.281 256.62 312.71 258.551 301.995 269.031C288.323 282.27 285.829 286.407 286.66 293.762C287.307 299.186 289.432 303.415 297.099 314.356C305.782 326.767 307.907 332.007 307.445 339.086C306.983 346.441 304.489 350.119 297.653 353.244C292.572 355.543 292.48 355.543 275.391 354.807C254.698 353.98 251.096 354.072 245.83 355.451C240.38 356.83 234.283 362.714 232.898 367.77C230.311 377.332 235.022 384.503 250.357 394.248C265.599 403.993 266.338 405.28 266.984 426.517C267.446 439.48 267.908 443.709 269.109 446.1L270.772 449.042H278.901H287.122L284.351 446.1C280.379 441.871 279.917 440.032 279.917 429.367C279.917 412.451 276.314 404.637 264.121 394.891C255.253 387.812 251.373 383.307 247.863 375.769C244.814 369.241 245.276 367.219 250.357 364.736C256.638 361.519 263.012 361.886 276.591 366.299C291.556 371.172 295.528 371.172 305.505 366.391C316.221 361.243 321.671 355.083 323.056 346.533C323.888 341.385 320.839 330.628 315.944 321.251C306.614 303.507 304.581 298.91 304.119 294.681C303.473 287.878 305.228 285.58 316.867 277.949C331.555 268.388 334.142 264.802 337.19 248.989C339.684 236.67 341.439 232.441 346.243 227.66C350.769 223.155 354.187 221.317 359.268 220.489C362.593 219.938 363.24 220.213 365.826 222.696C368.228 225.086 368.598 226.189 368.598 230.51C368.598 237.221 366.104 243.933 358.806 256.896C349.753 273.168 348.183 280.064 350.123 295.876C351.601 308.012 353.818 314.999 358.714 322.17C365.919 333.019 374.602 337.799 390.953 340.098C396.311 340.833 401.761 342.212 403.978 343.315C406.102 344.419 412.661 350.027 418.481 355.635C430.028 366.759 435.201 370.712 442.776 374.114C458.11 381.009 480.557 375.585 505.037 359.036C526.838 344.419 531.364 344.878 551.687 364.185C566.559 378.159 570.993 380.549 581.986 380.549C591.501 380.549 595.842 379.17 601.015 374.39C607.297 368.598 609.329 361.702 611.546 338.719C613.024 324.193 614.225 321.802 623.186 315.643C631.315 310.127 633.624 306.725 633.716 300.197C633.809 289.441 624.941 281.351 604.526 273.536C588.729 267.468 587.99 261.492 602.401 257.631C606.096 256.712 610.345 255.057 611.823 253.954C621.246 247.242 617.458 227.292 604.988 218.283C599.722 214.513 592.24 211.847 582.448 210.284C559.908 206.699 555.012 205.412 538.107 198.333C519.263 190.426 514.274 189.507 504.667 191.989C497.37 193.828 491.642 196.678 484.345 202.102C470.488 212.491 460.419 215.249 453.491 210.652C449.427 207.894 448.318 204.768 449.796 199.987C451.367 194.563 458.11 188.312 470.673 180.589C483.698 172.591 490.719 165.879 495.522 156.778C500.51 147.308 501.711 143.447 502.543 133.518C503.744 120.923 505.314 118.257 514.274 113.292C518.247 111.086 524.251 106.673 527.669 103.455C533.489 97.9387 534.32 97.479 538.939 97.1113C543.188 96.7435 544.943 97.2032 551.594 100.237C565.543 106.489 577.275 105.477 594.457 96.6516C600.738 93.3419 603.879 90.7677 615.703 78.908C632.054 62.5434 636.118 60.0611 647.48 59.4176C653.947 59.0498 660.967 59.8773 665.401 61.5321C666.787 62.1757 666.972 61.4402 666.972 53.9014V45.6272L661.244 43.6966C654.686 41.582 644.155 40.5707 639.074 41.674Z" fill="#347E00" fill-opacity="0.02"/>
<path d="M640.491 85.8032C633.84 88.2854 630.422 91.0435 621.739 101.524C610.1 115.59 597.999 125.06 587.652 128.277C583.588 129.473 577.029 130.392 568.346 130.852C556.891 131.587 554.489 131.955 550.148 134.161C544.42 136.919 542.203 139.402 539.894 145.194C536.938 153.008 540.541 162.386 548.762 167.81C554.12 171.395 559.201 172.591 566.406 172.039C577.491 171.12 588.576 165.144 605.573 150.71C616.012 141.884 623.864 137.839 629.129 138.574C633.84 139.218 636.981 141.24 638.921 144.826C641.969 150.802 639.106 155.491 625.157 167.074C612.871 177.371 613.702 185.737 629.037 203.481C643.909 220.673 647.235 226.925 646.496 236.302C646.126 240.531 645.387 242.094 641.692 246.875C631.9 259.378 632.27 264.71 644.464 286.315C652.131 300.106 655.087 308.564 655.179 317.114C655.179 327.319 652.408 333.11 642.431 343.315C633.933 352.049 632.732 355.267 631.346 374.114C630.607 385.054 629.683 391.214 628.39 394.432C622.109 410.98 604.28 422.564 584.973 422.564C571.394 422.564 564.281 418.519 544.975 399.856C532.689 387.904 529.456 385.33 523.266 382.296C517.077 379.17 515.23 378.711 510.057 378.711C499.711 378.803 493.983 383.583 485.485 399.028C477.725 413.095 474.307 417.048 466.825 420.725C461.097 423.483 459.896 423.759 451.767 423.759C444.008 423.759 442.345 423.483 437.726 421.185C431.814 418.335 429.967 416.22 420.36 401.695C407.519 382.388 398.282 371.999 387.843 365.38C364.749 350.486 338.145 359.588 337.96 382.388C337.868 393.972 342.671 400.132 359.946 410.52C379.622 422.288 388.952 433.688 388.952 446.008V449.042H404.748H420.452L419.805 446.927C415.279 432.033 408.166 422.288 395.418 413.37C375.095 399.212 370.477 394.248 370.477 386.985C370.477 379.17 376.758 377.975 385.164 384.135C389.876 387.628 394.494 392.593 407.612 408.682C424.055 428.724 431.445 432.953 453.892 435.159C476.247 437.366 488.164 430.379 498.51 409.049C503.867 398.109 506.731 394.799 510.703 394.799C514.675 394.799 520.587 399.12 526.869 406.475C535.46 416.68 550.979 431.482 558 436.262C561.325 438.469 568.623 442.238 574.166 444.629L584.327 449.042H602.894H621.554L629.222 445.18C639.291 440.216 647.327 432.493 650.468 424.679C653.701 416.496 653.516 398.661 650.006 380.09C646.034 359.404 646.681 356.094 657.766 344.235C660.352 341.477 663.493 337.431 664.786 335.317C667.096 331.456 667.188 330.996 666.819 318.309L666.357 305.162L661.461 293.67C652.223 271.789 651.946 270.87 651.854 262.412C651.761 255.609 652.223 253.31 655.272 244.668C658.32 235.934 658.874 233.084 659.706 221.684C661.461 196.678 657.95 188.22 643.725 182.795C637.443 180.405 633.748 177.187 633.748 174.062C633.748 171.671 637.813 167.258 644.279 162.753C653.332 156.226 654.348 154.755 654.81 147.952C655.179 142.803 654.902 141.516 652.685 137.839C645.11 124.968 627.005 122.853 611.578 133.058C609.268 134.621 604.188 138.942 600.216 142.619C591.44 150.894 585.805 154.571 580.632 155.399C571.856 156.686 567.792 150.434 573.981 145.01C576.29 142.987 579.8 141.516 586.729 139.678C591.994 138.298 598.738 135.908 601.601 134.345C607.698 131.219 619.245 119.727 625.249 110.902C635.78 95.5484 648.436 90.0322 661.646 95.0887C664.324 96.1 666.634 96.9274 666.819 96.9274C666.911 96.9274 667.003 94.629 667.003 91.8709V86.9064L662.2 85.4354C655.733 83.5967 646.403 83.6886 640.491 85.8032Z" fill="#347E00" fill-opacity="0.02"/>
<path d="M-12.9033 125.979C-12.9033 135.724 -12.9033 135.724 -10.7787 135.172C-7.08362 134.253 -2.28006 136.276 3.17013 141.056C9.35934 146.48 10.5602 147.124 15.8257 148.319C18.6893 149.055 22.7539 148.963 29.2202 148.227C40.3977 147.032 42.7995 147.492 44.3699 151.169C47.2336 158.064 43.2614 165.787 29.5897 180.129C13.8858 196.402 7.69657 206.331 1.41499 224.994C-3.57333 239.979 -4.68184 250.552 -4.49709 280.339C-4.40471 303.783 -4.49709 306.724 -6.25224 313.16C-7.26837 317.021 -9.20827 322.262 -10.5015 324.836C-12.4414 328.605 -12.9033 330.812 -12.9033 336.42C-12.9033 342.947 -12.8109 343.315 -10.7787 343.315C-7.5455 343.315 -2.92669 340.005 -0.986794 336.236C2.70825 328.973 3.07776 325.571 2.89301 297.071C2.70825 266.273 3.44726 259.469 8.98983 241.266C14.6248 222.787 19.4283 214.053 36.5179 191.621C63.9537 155.582 70.5124 141.7 65.0622 130.943C63.307 127.358 59.9815 126.071 54.2542 126.53C50.282 126.898 47.6954 127.817 42.0605 131.403C33.7466 136.551 28.2041 137.655 22.9386 135.172C21.1835 134.345 16.1028 130.3 11.5764 126.255C2.33875 117.796 -0.61729 116.234 -7.82263 116.234H-12.9033V125.979Z" fill="#347E00" fill-opacity="0.02"/>
<path d="M-12.9033 156.963V161.835L-7.82263 163.49C-5.05135 164.318 -1.54106 166.065 0.0293379 167.352C5.57191 172.04 2.98537 181.05 -7.36075 193.369L-12.9033 199.897V206.976L-12.8109 214.147L-4.31234 205.413C8.80507 191.807 18.4122 176.637 18.5046 169.282C18.5046 165.421 16.1952 161.744 12.7772 160.089C11.1145 159.353 6.21854 157.79 1.87686 156.687C-2.46482 155.676 -7.54551 154.205 -9.39303 153.469L-12.9033 152.09V156.963Z" fill="#347E00" fill-opacity="0.02"/>
<path d="M-11.7024 354.899C-12.5338 355.267 -12.9033 357.657 -12.9033 362.254V369.057H-10.3168C-5.14374 369.057 -0.709695 372.735 5.38712 381.928C13.4238 394.248 19.1511 400.316 25.6175 403.809C35.3169 408.957 39.3815 409.509 65.6162 409.509C94.4375 409.509 96.3774 409.969 111.989 419.346C125.476 427.437 130.464 429.275 139.517 429.275C152.357 429.183 157.068 424.77 157.068 412.543C157.068 402.154 154.574 396.638 144.043 383.307C140.256 378.435 138.686 373.378 140.164 370.988C141.18 369.333 145.891 368.598 149.401 369.517C153.373 370.436 158.731 376.228 160.856 381.744C162.426 385.79 162.98 390.111 163.535 401.235C164.736 423.391 167.137 428.54 180.809 438.193C184.966 441.135 189.215 444.812 190.324 446.283C192.264 449.042 192.448 449.042 200.577 449.042H208.799L206.951 445.272C205.012 441.595 202.425 438.837 189.77 426.793C185.613 422.932 182.287 418.703 180.624 415.301C178.13 410.428 177.853 408.866 177.299 396.362C176.745 382.94 176.652 382.572 173.234 375.861C168.061 365.656 161.502 360.507 149.955 357.565C136.469 354.072 122.427 357.657 116.7 366.207C114.114 370.069 114.021 373.746 116.515 378.803C118.917 383.859 123.074 386.893 132.681 390.662C137.023 392.409 141.919 394.799 143.674 396.086C150.048 400.959 149.955 409.325 143.489 411.44C137.947 413.187 129.91 411.899 117.439 407.303C100.442 400.959 91.851 399.764 73.4682 401.051C49.7276 402.798 41.1366 402.246 32.7304 398.385C25.4327 394.891 17.2112 384.503 10.6525 370.528C7.60414 363.817 3.44722 358.852 -0.986823 356.646C-3.85048 355.175 -10.0397 354.164 -11.7024 354.899Z" fill="#347E00" fill-opacity="0.02"/>
<path d="M293.33 378.159C288.803 380.182 284.924 384.503 284.092 388.456C283.538 390.938 284.185 392.961 288.064 400.224C292.683 409.049 293.699 412.727 295.639 426.517C296.84 434.424 298.872 440.032 302.752 445.548L305.154 449.042H313.837H322.613L318.733 444.629C310.696 435.619 304.877 421.645 304.877 411.348C304.877 404.453 305.431 403.074 308.295 403.074C309.957 403.074 313.098 405.556 319.565 411.716C327.509 419.438 329.726 421.001 339.241 425.598C351.157 431.298 356.423 435.987 360.672 444.353L363.074 449.042H368.154H373.143L371.757 445.18C368.062 434.608 361.319 427.712 344.783 417.324C331.389 408.866 328.156 405.28 323.444 393.788C320.026 385.606 316.054 380.825 310.05 378.159C305.246 375.953 298.041 375.953 293.33 378.159Z" fill="#347E00" fill-opacity="0.02"/>
<path d="M-3.66573 411.441C-5.42087 411.993 -8.28453 413.464 -9.85492 414.659C-12.7186 416.865 -12.9033 417.325 -12.9033 422.841V428.633L-8.09977 425.967C-0.0630713 421.554 8.89739 422.565 22.1995 429.277C30.0515 433.23 40.8594 434.517 59.6118 433.781C78.1793 433.138 81.8743 433.781 97.024 440.677C108.386 445.825 113.836 447.204 123.721 447.204C127.693 447.204 134.159 447.664 138.224 448.123C142.196 448.675 151.988 449.043 159.84 448.859L174.158 448.583L170.093 445.549C162.796 440.217 153.373 438.01 134.436 437.091C125.291 436.631 116.146 435.804 114.114 435.252C112.081 434.609 106.446 431.943 101.55 429.185C88.1559 421.738 85.6618 421.278 60.5355 422.014C37.2568 422.749 33.7465 422.198 23.6775 417.141C13.2391 411.901 2.52345 409.694 -3.66573 411.441Z" fill="#347E00" fill-opacity="0.02"/>
</svg>
