<svg width="173" height="174" viewBox="0 0 173 174" fill="none" xmlns="http://www.w3.org/2000/svg">
<g clip-path="url(#clip0_1864_8461)">
<path d="M24.6563 294.425C68.8254 324.93 122.399 326.916 168.686 311.057C248.735 283.63 274.081 263.792 285.719 208.878C296.204 159.409 277.246 104.443 248.02 80.0288C218.795 55.616 145.428 59.6272 101.455 68.9282C57.4828 78.2293 -4.56223 113.704 -14.8269 159.013C-25.0927 204.323 -4.73056 274.13 24.6563 294.425ZM35.5824 181.421C42.556 148.518 64.7504 124.815 112.714 108.381C140.448 98.8789 189.606 95.7436 212.567 115.77C228.695 129.836 246.086 185.841 238.021 212.481C226.57 250.306 183.475 266.11 157.127 271.685C130.78 277.258 85.3847 283.225 63.8099 262.518C47.3483 246.72 29.301 211.063 35.5824 181.421Z" fill="#398B00"/>
<path d="M63.0824 287.323C54.5538 282.254 46.6507 275.302 38.4178 266.283C11.7606 237.086 -0.214615 189.337 11.1548 157.579C22.0079 127.266 77.0949 99.1655 111.473 87.6728C144.244 76.7157 205.58 74.1877 233.141 103.545C259.735 131.87 274.482 190.6 261.83 217.8C244.508 255.048 209.388 281.541 165.48 290.486C114.073 300.963 86.2812 301.113 63.0824 287.323ZM218.453 95.9664C188.675 78.2621 140.19 81.4676 112.493 90.7272C78.7095 102.022 24.6509 129.434 14.1857 158.667C4.54027 185.609 11.8552 232.418 40.7944 264.113C70.7945 296.974 95.1428 301.532 164.837 287.333C207.734 278.592 242.022 252.755 258.909 216.444C271.114 190.201 256.659 133.304 230.793 105.751C227.229 101.951 223.062 98.7066 218.453 95.9664Z" fill="#F7E5DF"/>
<path d="M77.7767 244.837C101.063 260.918 129.306 261.966 153.711 253.605C195.914 239.147 209.275 228.686 215.413 199.736C220.941 173.656 210.947 144.678 195.538 131.807C180.129 118.936 141.448 121.05 118.265 125.954C95.0818 130.857 62.3722 149.56 56.9607 173.448C51.5485 197.334 62.2839 234.137 77.7767 244.837ZM83.5371 185.259C87.2123 167.913 98.9141 155.417 124.201 146.753C138.823 141.744 164.738 140.091 176.843 150.648C185.345 158.064 194.515 187.589 190.264 201.634C184.226 221.576 161.508 229.908 147.617 232.846C133.726 235.784 109.793 238.931 98.4192 228.014C89.7402 219.686 80.2258 200.888 83.5371 185.259Z" fill="#7AB154"/>
</g>
<defs>
<clipPath id="clip0_1864_8461">
<rect width="173" height="174" fill="white"/>
</clipPath>
</defs>
</svg>
