<svg width="105" height="111" viewBox="0 0 105 111" fill="none" xmlns="http://www.w3.org/2000/svg">
<path d="M102.999 29.6278C90.3908 24.2844 67.7649 67.7248 60.7761 54.8432C54.9274 44.0623 91.9159 30.1343 91.9159 17.9429C91.9159 5.25197 64.5285 -8.58418 42.0951 6.76583C16.326 24.397 61.6179 38.7305 41.4034 54.8432C33.5685 61.0893 37.3083 22.9405 23.6775 29.6278C16.6602 33.0701 4.92153 42.6645 1.46731 55.2119C-2.63629 70.1185 2.59053 88.3561 8.24779 93.6662C24.677 109.087 33.6129 69.0561 42.0951 76.5978C53.5842 86.8136 17.7368 101.386 32.403 113.608C47.1305 125.882 86.3475 130.394 86.9292 106.348C87.1989 95.1812 70.4957 89.5748 74.5517 81.7907C79.4655 72.3618 91.3331 95.4511 99.4303 90.4799C115.343 80.7121 120.294 36.9582 102.999 29.6278Z" fill="#C2DBB0"/>
</svg>
