<svg width="24" height="25" viewBox="0 0 24 25" fill="none" xmlns="http://www.w3.org/2000/svg">
<path d="M14.6357 1.69974L16.0107 2.70974C16.2847 2.91074 16.6037 3.04274 16.9397 3.09374L18.6267 3.35274C19.3861 3.46943 20.0884 3.82531 20.6315 4.36863C21.1747 4.91195 21.5303 5.61437 21.6467 6.37374L21.9057 8.05974C21.9567 8.39574 22.0887 8.71474 22.2897 8.98874L23.2997 10.3637C23.7544 10.9831 23.9995 11.7314 23.9995 12.4997C23.9995 13.2681 23.7544 14.0163 23.2997 14.6357L22.2897 16.0107C22.0884 16.2848 21.9566 16.6036 21.9057 16.9397L21.6467 18.6267C21.5301 19.3861 21.1742 20.0884 20.6309 20.6315C20.0875 21.1747 19.3851 21.5303 18.6257 21.6467L16.9397 21.9057C16.6036 21.9566 16.2848 22.0884 16.0107 22.2897L14.6357 23.2997C14.0163 23.7544 13.2681 23.9995 12.4997 23.9995C11.7314 23.9995 10.9831 23.7544 10.3637 23.2997L8.98874 22.2897C8.71473 22.0884 8.39593 21.9566 8.05974 21.9057L6.37274 21.6467C5.61341 21.5301 4.9111 21.1742 4.36796 20.6309C3.82482 20.0875 3.46917 19.3851 3.35274 18.6257L3.09374 16.9397C3.04284 16.6036 2.91106 16.2848 2.70974 16.0107L1.69974 14.6357C1.24513 14.0163 1 13.2681 1 12.4997C1 11.7314 1.24513 10.9831 1.69974 10.3637L2.70974 8.98874C2.91074 8.71474 3.04274 8.39574 3.09374 8.05974L3.35274 6.37274C3.46943 5.61341 3.82531 4.9111 4.36863 4.36796C4.91195 3.82482 5.61437 3.46917 6.37374 3.35274L8.05974 3.09374C8.39574 3.04274 8.71474 2.91074 8.98874 2.70974L10.3637 1.69974C10.9831 1.24513 11.7314 1 12.4997 1C13.2681 1 14.0163 1.24513 14.6357 1.69974ZM11.2517 2.90874L9.87674 3.91874C9.40772 4.26338 8.86214 4.48916 8.28674 4.57674L6.60074 4.83474C6.15673 4.90279 5.74602 5.11076 5.42839 5.42839C5.11076 5.74602 4.90279 6.15673 4.83474 6.60074L4.57674 8.28674C4.48901 8.86179 4.26323 9.40702 3.91874 9.87574L2.90874 11.2517C2.64324 11.6137 2.50009 12.0509 2.50009 12.4997C2.50009 12.9486 2.64324 13.3858 2.90874 13.7477L3.91874 15.1227C4.26274 15.5917 4.48874 16.1377 4.57674 16.7127L4.83474 18.3987C4.97474 19.3097 5.68974 20.0247 6.60074 20.1647L8.28674 20.4227C8.86179 20.5105 9.40702 20.7363 9.87574 21.0807L11.2517 22.0907C11.6137 22.3562 12.0509 22.4994 12.4997 22.4994C12.9486 22.4994 13.3858 22.3562 13.7477 22.0907L15.1227 21.0807C15.5919 20.7365 16.1374 20.511 16.7127 20.4237L18.3987 20.1637C18.8426 20.0957 19.2532 19.8879 19.5708 19.5705C19.8884 19.2531 20.0965 18.8426 20.1647 18.3987L20.4227 16.7127C20.5105 16.1377 20.7363 15.5925 21.0807 15.1237L22.0907 13.7477C22.3562 13.3858 22.4994 12.9486 22.4994 12.4997C22.4994 12.0509 22.3562 11.6137 22.0907 11.2517L21.0807 9.87674C20.7365 9.40763 20.511 8.86205 20.4237 8.28674L20.1637 6.60074C20.0957 6.15687 19.8879 5.74627 19.5705 5.42866C19.2531 5.11105 18.8426 4.90299 18.3987 4.83474L16.7127 4.57674C16.1377 4.48901 15.5925 4.26323 15.1237 3.91874L13.7477 2.90874C13.3858 2.64324 12.9486 2.50009 12.4997 2.50009C12.0509 2.50009 11.6137 2.64324 11.2517 2.90874Z" fill="#556CCD"/>
<path d="M17.0298 10.1874C17.1623 10.0393 17.2344 9.84338 17.231 9.64099C17.2276 9.4386 17.1489 9.24549 17.0115 9.10235C16.8741 8.95922 16.6887 8.87723 16.4944 8.87366C16.3001 8.87009 16.112 8.94521 15.9698 9.08321L10.4998 14.781L8.02985 12.2081C7.88767 12.0701 7.69963 11.995 7.50532 11.9986C7.31102 12.0022 7.12564 12.0842 6.98822 12.2273C6.85081 12.3704 6.7721 12.5635 6.76867 12.7659C6.76524 12.9683 6.83737 13.1642 6.96985 13.3123L9.96985 16.4372C10.1105 16.5835 10.3011 16.6657 10.4998 16.6657C10.6986 16.6657 10.8892 16.5835 11.0298 16.4372L17.0298 10.1874Z" fill="#556CCD"/>
</svg>
